<?xml version="1.0" encoding="UTF-8" standalone="no"?><!-- Generator: Gravit.io --><svg xmlns="http://www.w3.org/2000/svg" xmlns:xlink="http://www.w3.org/1999/xlink" style="isolation:isolate" viewBox="0 0 4000 4000" width="4000pt" height="4000pt"><clipPath id="_clipPath_YbRoxSKg2RiiaxfHAPXIYEk3cKSgXM6v"><path d=" M 0 0 L 0 4000 L 4000 4000 L 4000 0 L 0 0 Z " fill="rgb(255,255,255)"/></clipPath><g clip-path="url(#_clipPath_YbRoxSKg2RiiaxfHAPXIYEk3cKSgXM6v)"><path d=" M 2564.06 3140.5 L 2144.75 3140.5 C 2049 3140.5 1970.66 3062.16 1970.66 2966.41 L 1970.66 2485 C 1970.66 2389.25 2049 2310.91 2144.75 2310.91 L 2564.06 2310.91 C 2659.81 2310.91 2738.15 2389.25 2738.15 2485 L 2738.15 2966.41 C 2738.15 3062.16 2659.81 3140.5 2564.06 3140.5 Z " fill="rgb(255,255,255)"/><path d=" M 2564.06 2276.09 L 2144.75 2276.09 C 2029.55 2276.09 1935.84 2369.81 1935.84 2485 L 1935.84 2966.41 C 1935.84 3081.61 2029.55 3175.32 2144.75 3175.32 L 2564.06 3175.32 C 2679.25 3175.32 2772.97 3081.61 2772.97 2966.41 L 2772.97 2485 C 2772.97 2369.81 2679.25 2276.09 2564.06 2276.09 Z  M 2564.06 2310.91 C 2659.81 2310.91 2738.15 2389.25 2738.15 2485 L 2738.15 2966.41 C 2738.15 3062.16 2659.81 3140.5 2564.06 3140.5 L 2144.75 3140.5 C 2049 3140.5 1970.66 3062.16 1970.66 2966.41 L 1970.66 2485 C 1970.66 2389.25 2049 2310.91 2144.75 2310.91 L 2564.06 2310.91 Z " fill="rgb(55,26,69)"/><path d=" M 2248.12 2221.31 L 2160.59 2398.25 L 2108.75 2503.15 L 2082.02 2557.13 C 2082.02 2557.13 2067.05 2544.59 2043.37 2520.3 C 1945.08 2419.28 1697.15 2115.41 1755.56 1667.94 C 1786.42 1431.54 1875.83 1402.2 1963.14 1394.37 C 2110.27 1381.18 2069.96 1513.11 2070.22 1575.57 C 2070.35 1605.74 2082.8 1699.19 2105.7 1808.84 C 2136.17 1954.66 2185.09 2129.12 2248.12 2221.31 Z " fill="rgb(255,255,255)"/><path d=" M 2082.02 2574.53 C 2078.08 2574.53 2074.12 2573.2 2070.86 2570.47 C 2066.69 2566.98 1967.79 2483.26 1876.65 2329.55 C 1792.51 2187.67 1700.22 1957.33 1738.3 1665.7 C 1771.06 1414.85 1870.73 1385.17 1961.58 1377.03 C 2008.03 1372.87 2041.4 1381.62 2063.61 1403.77 C 2098.67 1438.75 2093.7 1495.72 2089.71 1541.48 C 2088.61 1554.09 2087.58 1566 2087.62 1575.51 C 2087.92 1652 2156.27 2056.03 2262.49 2211.5 C 2267.91 2219.44 2265.87 2230.28 2257.93 2235.7 C 2250 2241.12 2239.16 2239.09 2233.73 2231.15 C 2123.83 2070.27 2053.1 1654.28 2052.79 1575.65 C 2052.75 1564.56 2053.85 1551.88 2055.02 1538.46 C 2058.38 1499.91 2062.57 1451.92 2039.01 1428.43 C 2024.75 1414.2 1999.76 1408.58 1964.68 1411.72 C 1883.74 1418.97 1802.26 1444.89 1772.83 1670.21 C 1736.11 1951.41 1824.93 2173.69 1905.92 2310.64 C 1994.01 2459.62 2092.24 2542.96 2093.22 2543.78 C 2100.58 2549.96 2101.55 2560.94 2095.37 2568.31 C 2091.93 2572.41 2086.99 2574.53 2082.02 2574.53 Z " fill="rgb(55,26,69)"/><path d=" M 2671.39 2514.47 C 2644.57 2542.55 2627.16 2557.13 2627.16 2557.13 L 2606.01 2514.34 L 2548.59 2398.25 L 2461.06 2221.31 C 2526 2126.29 2575.97 1943.95 2606.23 1795.61 C 2627.38 1691.75 2638.87 1604.52 2639 1575.57 C 2639.22 1513.11 2598.91 1381.18 2746.04 1394.37 C 2833.35 1402.2 2922.76 1431.54 2953.62 1667.94 C 3010.95 2107.09 2773.2 2407.96 2671.39 2514.47 Z " fill="rgb(255,255,255)"/><path d=" M 2627.16 2574.54 C 2622.18 2574.54 2617.25 2572.41 2613.8 2568.3 C 2607.63 2560.93 2608.6 2549.95 2615.97 2543.78 C 2617.36 2542.6 2715.36 2459.3 2803.27 2310.64 C 2884.25 2173.69 2973.08 1951.41 2936.35 1670.21 C 2906.93 1444.89 2825.44 1418.97 2744.5 1411.72 C 2709.46 1408.57 2684.44 1414.2 2670.17 1428.43 C 2646.62 1451.93 2650.8 1499.91 2654.16 1538.46 C 2655.33 1551.88 2656.44 1564.56 2656.39 1575.65 C 2656.08 1654.28 2585.36 2070.27 2475.45 2231.15 C 2470.03 2239.09 2459.19 2241.12 2451.25 2235.7 C 2443.31 2230.28 2441.27 2219.44 2446.7 2211.5 C 2552.91 2056.03 2621.27 1652 2621.57 1575.51 C 2621.61 1566 2620.57 1554.1 2619.47 1541.49 C 2615.48 1495.72 2610.52 1438.76 2645.58 1403.77 C 2667.79 1381.62 2701.17 1372.88 2747.61 1377.03 C 2838.46 1385.17 2938.12 1414.85 2970.88 1665.7 C 3008.97 1957.33 2916.67 2187.67 2832.54 2329.55 C 2741.4 2483.26 2642.49 2566.98 2638.33 2570.47 C 2635.07 2573.2 2631.1 2574.54 2627.16 2574.54 Z " fill="rgb(55,26,69)"/><path d=" M 2737.72 3095.79 C 2726.15 3279.3 2659.81 3431.21 2659.81 3431.21 C 2659.81 3431.21 2690.63 3520.92 2674.39 3610.76 C 2664.86 3663.61 2639.05 3707.44 2581.15 3713.49 C 2433.07 3728.99 2392.98 3578.68 2383.49 3477.79 C 2374.05 3377.37 2417.23 3232.33 2412 3114.55 C 2412 3114.55 2387.93 3117.33 2358.03 3117.33 C 2328.13 3117.33 2304.05 3114.55 2304.05 3114.55 C 2298.83 3232.33 2341.97 3377.37 2332.57 3477.79 C 2323.08 3578.68 2282.99 3728.99 2134.91 3713.49 C 2077.01 3707.44 2051.2 3663.61 2041.67 3610.81 C 2025.43 3520.97 2056.25 3431.21 2056.25 3431.21 C 2056.25 3431.21 1989.91 3279.3 1978.29 3095.79 C 1967.15 2919.54 2007.5 2686.45 2043.37 2520.3 C 2048.07 2498.45 2052.73 2477.73 2057.17 2458.49 C 2062.26 2436.34 2067.09 2416.14 2071.44 2398.25 L 2644.62 2398.25 C 2649.71 2419.23 2655.46 2443.43 2661.55 2470.12 C 2664.77 2484.22 2668.08 2499.06 2671.39 2514.47 C 2707.6 2680.97 2749.04 2917.45 2737.72 3095.79 Z " fill="rgb(255,255,255)"/><path d=" M 2555.47 3697.12 C 2545.72 3696.5 2535.94 3695.76 2526.69 3693.25 C 2508.02 3688.83 2490.91 3679.89 2476.3 3667.37 C 2469.05 3661.04 2462.35 3653.95 2456.26 3646.2 C 2450.27 3638.34 2444.85 3629.93 2439.94 3621.12 C 2420.58 3585.52 2409.97 3544.22 2403.96 3502.57 C 2402.5 3492.19 2401.16 3481.47 2400.54 3471.19 C 2400.29 3466.04 2399.79 3460.96 2399.72 3455.76 L 2399.65 3440.11 C 2400.12 3419.11 2401.77 3397.87 2404.1 3376.53 C 2408.87 3333.78 2415.82 3290.79 2421.3 3247.13 C 2426.86 3203.53 2431.06 3159.11 2429.4 3113.76 L 2428.72 3095.2 L 2409.97 3097.24 C 2401.76 3098.13 2392.79 3098.79 2384.15 3099.24 C 2375.43 3099.7 2366.71 3099.93 2358.03 3099.94 C 2349.34 3099.93 2340.62 3099.7 2331.9 3099.24 C 2323.26 3098.79 2314.29 3098.13 2306.08 3097.24 L 2287.34 3095.2 L 2286.66 3113.76 C 2284.99 3159.11 2289.19 3203.53 2294.75 3247.13 C 2300.23 3290.79 2307.18 3333.78 2311.95 3376.53 C 2314.28 3397.87 2315.93 3419.11 2316.4 3440.11 L 2316.33 3455.76 C 2316.26 3460.96 2315.76 3466.04 2315.51 3471.19 C 2314.89 3481.47 2313.55 3492.19 2312.09 3502.57 C 2306.08 3544.22 2295.48 3585.52 2276.11 3621.12 C 2271.2 3629.93 2265.78 3638.34 2259.79 3646.2 C 2253.7 3653.95 2247 3661.04 2239.75 3667.37 C 2225.14 3679.89 2208.03 3688.83 2189.36 3693.25 C 2180.11 3695.76 2170.33 3696.5 2160.59 3697.12 C 2159.61 3697.09 2158.64 3697.08 2157.68 3697.08 C 2156.81 3697.08 2155.95 3697.08 2155.09 3697.09 C 2154.24 3697.1 2153.39 3697.11 2152.54 3697.11 C 2150.29 3697.11 2148.03 3697.06 2145.75 3696.83 L 2138.29 3696.3 C 2135.76 3696.18 2133.61 3695.59 2131.24 3695.28 C 2128.94 3694.89 2126.59 3694.6 2124.32 3694.15 L 2117.74 3692.24 L 2114.44 3691.33 C 2113.37 3690.97 2112.39 3690.45 2111.35 3690.03 L 2105.19 3687.42 C 2103.24 3686.39 2101.42 3685.16 2099.51 3684.08 L 2096.66 3682.42 L 2094.08 3680.38 C 2092.39 3678.99 2090.6 3677.72 2088.94 3676.29 L 2084.31 3671.54 C 2078.43 3664.9 2073.16 3657.42 2069.36 3648.73 C 2067.13 3644.63 2065.79 3639.89 2063.98 3635.47 C 2063.48 3633.64 2062.93 3631.84 2062.38 3630.03 C 2078.91 3642.61 2099.82 3652.41 2124.75 3652.41 C 2127.41 3652.41 2130.11 3652.3 2132.86 3652.07 C 2279.33 3639.8 2305.67 3509.56 2296.22 3425.2 C 2284.38 3319.61 2200.15 3216.4 2159.5 3135.88 C 2135.08 3087.6 2137.08 3036.28 2148.75 3027.58 C 2151.24 3025.72 2154.05 3024.91 2157.36 3024.91 C 2180.1 3024.91 2226.65 3063.41 2358.03 3069.41 C 2489.4 3063.41 2535.96 3024.91 2558.67 3024.91 C 2561.98 3024.91 2564.78 3025.72 2567.27 3027.58 C 2578.93 3036.28 2580.94 3087.6 2556.56 3135.88 C 2515.86 3216.4 2431.64 3319.61 2419.8 3425.2 C 2410.35 3509.56 2436.73 3639.8 2583.16 3652.07 C 2585.9 3652.3 2588.61 3652.41 2591.27 3652.41 C 2616.25 3652.42 2637.15 3642.6 2653.68 3630 C 2653.13 3631.82 2652.57 3633.63 2652.07 3635.47 C 2650.26 3639.89 2648.92 3644.63 2646.69 3648.73 C 2642.89 3657.42 2637.62 3664.9 2631.74 3671.54 L 2627.11 3676.29 C 2625.45 3677.72 2623.66 3678.99 2621.97 3680.38 L 2619.4 3682.42 L 2616.54 3684.08 C 2614.63 3685.16 2612.81 3686.39 2610.86 3687.42 L 2604.7 3690.03 C 2603.67 3690.45 2602.68 3690.97 2601.61 3691.33 L 2598.31 3692.24 L 2591.74 3694.15 C 2589.46 3694.6 2587.11 3694.89 2584.81 3695.28 C 2582.45 3695.59 2580.29 3696.18 2577.76 3696.3 L 2570.3 3696.83 C 2568.02 3697.06 2565.76 3697.11 2563.51 3697.11 C 2562.66 3697.11 2561.81 3697.1 2560.96 3697.09 C 2560.1 3697.08 2559.24 3697.08 2558.38 3697.08 C 2557.41 3697.08 2556.44 3697.09 2555.47 3697.12 Z " fill="rgb(185,175,190)"/><path d=" M 2670.68 2484.17 C 2696.38 2560.7 2714.56 2639.31 2728.34 2718.76 C 2735.36 2758.46 2741.39 2798.39 2745.81 2838.57 C 2748.22 2858.62 2750.02 2878.78 2751.9 2898.91 C 2752.81 2908.99 2753.37 2919.11 2754.08 2929.21 C 2754.84 2939.3 2755.34 2949.43 2755.72 2959.56 C 2757.63 3000.06 2758.09 3040.75 2755.98 3081.56 C 2753.9 3122.36 2749.27 3163 2742.43 3203.16 C 2735.57 3243.32 2726.45 3283.02 2715.41 3322.17 C 2710.01 3341.78 2703.81 3361.17 2697.4 3380.49 C 2690.79 3399.87 2683.97 3418.7 2675.77 3438.17 L 2676.52 3426.33 C 2682.7 3448.68 2687.04 3470.21 2690.53 3492.53 C 2693.89 3514.74 2696.14 3537.22 2696.42 3560.03 C 2696.79 3582.81 2695.21 3605.99 2689.89 3629.18 C 2688.77 3634.98 2686.72 3640.73 2685.11 3646.5 C 2682.86 3652.19 2681.11 3657.98 2678.21 3663.53 C 2673.21 3674.81 2665.97 3685.53 2657.38 3695.1 L 2650.55 3702.04 C 2648.11 3704.18 2645.5 3706.14 2642.95 3708.17 C 2641.66 3709.17 2640.39 3710.2 2639.07 3711.15 L 2634.9 3713.67 C 2632.09 3715.31 2629.33 3717.06 2626.46 3718.55 L 2617.59 3722.38 C 2616.1 3722.98 2614.63 3723.69 2613.12 3724.19 L 2608.56 3725.52 L 2599.41 3728.11 C 2596.35 3728.74 2593.29 3729.16 2590.22 3729.68 C 2587.19 3730.1 2584.01 3730.81 2581.09 3730.96 L 2572.24 3731.6 C 2568.35 3731.96 2564.38 3731.94 2560.42 3731.91 C 2558.41 3731.9 2556.39 3731.88 2554.39 3731.92 C 2542.41 3731.23 2530.32 3730.23 2518.46 3727.09 C 2494.67 3721.49 2472.05 3709.68 2453.61 3693.78 C 2444.43 3685.79 2436.13 3676.96 2428.75 3667.55 C 2421.5 3658.07 2415.1 3648.11 2409.41 3637.87 C 2387.06 3596.6 2375.98 3551.89 2369.49 3507.48 C 2367.92 3496.28 2366.54 3485.34 2365.82 3473.85 C 2365.52 3468.12 2364.99 3462.33 2364.91 3456.63 L 2364.83 3439.58 C 2365.33 3416.98 2367.09 3394.72 2369.49 3372.71 C 2374.4 3328.77 2381.38 3285.64 2386.76 3242.77 C 2392.24 3199.92 2396.15 3157.18 2394.61 3115.3 L 2414.03 3131.82 C 2404.32 3132.88 2395.31 3133.52 2385.95 3134.02 C 2376.67 3134.5 2367.37 3134.75 2358.03 3134.76 C 2348.68 3134.75 2339.38 3134.5 2330.1 3134.02 C 2320.74 3133.52 2311.73 3132.88 2302.02 3131.82 L 2321.44 3115.3 C 2319.9 3157.18 2323.81 3199.92 2329.29 3242.77 C 2334.67 3285.64 2341.65 3328.77 2346.56 3372.71 C 2348.96 3394.72 2350.72 3416.98 2351.22 3439.58 L 2351.14 3456.63 C 2351.06 3462.33 2350.53 3468.12 2350.23 3473.85 C 2349.51 3485.34 2348.13 3496.28 2346.56 3507.48 C 2340.07 3551.89 2328.99 3596.6 2306.64 3637.87 C 2300.95 3648.11 2294.55 3658.07 2287.3 3667.55 C 2279.92 3676.96 2271.63 3685.79 2262.44 3693.78 C 2244 3709.68 2221.38 3721.49 2197.59 3727.09 C 2185.73 3730.23 2173.64 3731.23 2161.66 3731.92 C 2159.66 3731.88 2157.64 3731.9 2155.63 3731.91 C 2151.67 3731.94 2147.7 3731.96 2143.81 3731.6 L 2134.96 3730.96 C 2132.04 3730.81 2128.87 3730.1 2125.83 3729.68 C 2122.76 3729.16 2119.7 3728.74 2116.64 3728.11 L 2107.49 3725.52 L 2102.93 3724.19 C 2101.42 3723.69 2099.95 3722.98 2098.46 3722.38 L 2089.59 3718.55 C 2086.72 3717.06 2083.96 3715.31 2081.15 3713.67 L 2076.98 3711.15 C 2075.66 3710.2 2074.39 3709.17 2073.1 3708.17 C 2070.56 3706.14 2067.94 3704.18 2065.5 3702.04 L 2058.68 3695.1 C 2050.08 3685.53 2042.84 3674.81 2037.84 3663.53 C 2034.94 3657.98 2033.19 3652.19 2030.95 3646.5 C 2029.33 3640.73 2027.28 3634.98 2026.17 3629.18 C 2020.84 3605.99 2019.26 3582.81 2019.63 3560.03 C 2019.91 3537.22 2022.16 3514.74 2025.53 3492.53 C 2029.01 3470.21 2033.35 3448.68 2039.53 3426.33 L 2040.28 3438.17 C 2032.07 3418.67 2025.24 3399.81 2018.62 3380.4 C 2012.2 3361.05 2006 3341.63 2000.59 3321.99 C 1989.54 3282.77 1980.41 3243 1973.55 3202.78 C 1966.69 3162.56 1962.09 3121.85 1960.24 3080.98 C 1959.07 3060.53 1959.19 3040.16 1959.11 3019.77 C 1959.56 2999.44 1959.95 2979.09 1961.19 2958.84 C 1961.65 2948.7 1962.24 2938.57 1963.07 2928.47 C 1963.86 2918.37 1964.5 2908.25 1965.42 2898.16 C 1967.37 2878.01 1969.15 2857.83 1971.44 2837.74 C 1975.96 2797.54 1980.73 2757.39 1987.04 2717.49 C 1993.24 2677.57 2001.01 2637.94 2010.42 2598.69 C 2019.93 2559.47 2030.92 2520.58 2045.71 2482.69 C 2046.89 2479.67 2050.29 2478.18 2053.31 2479.35 C 2055.76 2480.31 2057.2 2482.74 2057.03 2485.23 C 2054.25 2525.7 2048.73 2565.42 2042.84 2605.02 C 2036.78 2644.58 2030.37 2684.01 2023.96 2723.41 C 2010.46 2802.07 1999.94 2881.32 1995.97 2960.68 C 1991.22 3040.11 1994.29 3118.97 2007.87 3196.9 C 2014.52 3235.84 2023.37 3274.46 2034.11 3312.54 C 2039.35 3331.62 2045.38 3350.47 2051.6 3369.23 C 2057.93 3387.82 2064.82 3406.73 2072.2 3424.24 L 2074.63 3430.02 L 2072.95 3436.09 C 2067.51 3455.77 2063.16 3477.05 2059.95 3497.8 C 2056.78 3518.7 2054.7 3539.71 2054.45 3560.51 C 2054.09 3581.3 2055.62 3601.94 2060.08 3621.28 C 2061 3626.21 2062.71 3630.74 2063.98 3635.47 C 2065.79 3639.89 2067.13 3644.63 2069.36 3648.73 C 2073.16 3657.42 2078.43 3664.9 2084.31 3671.54 L 2088.94 3676.29 C 2090.6 3677.72 2092.39 3678.99 2094.08 3680.38 L 2096.66 3682.42 L 2099.51 3684.08 C 2101.42 3685.16 2103.24 3686.39 2105.19 3687.42 L 2111.35 3690.03 C 2112.39 3690.45 2113.37 3690.97 2114.44 3691.33 L 2117.74 3692.24 L 2124.32 3694.15 C 2126.59 3694.6 2128.94 3694.89 2131.24 3695.28 C 2133.61 3695.59 2135.76 3696.18 2138.29 3696.3 L 2145.75 3696.83 C 2148.89 3697.14 2151.99 3697.12 2155.09 3697.09 C 2156.92 3697.08 2158.75 3697.06 2160.59 3697.12 C 2170.33 3696.5 2180.11 3695.76 2189.36 3693.25 C 2208.03 3688.83 2225.14 3679.89 2239.75 3667.37 C 2247 3661.04 2253.7 3653.95 2259.79 3646.2 C 2265.78 3638.34 2271.2 3629.93 2276.11 3621.12 C 2295.48 3585.52 2306.08 3544.22 2312.09 3502.57 C 2313.55 3492.19 2314.89 3481.47 2315.51 3471.19 C 2315.76 3466.04 2316.26 3460.96 2316.33 3455.76 L 2316.4 3440.11 C 2315.93 3419.11 2314.28 3397.87 2311.95 3376.53 C 2307.18 3333.78 2300.23 3290.79 2294.75 3247.13 C 2289.19 3203.53 2284.99 3159.11 2286.66 3113.76 L 2287.34 3095.2 L 2306.08 3097.24 C 2314.29 3098.13 2323.26 3098.79 2331.9 3099.24 C 2340.62 3099.7 2349.34 3099.93 2358.03 3099.94 C 2366.71 3099.93 2375.43 3099.7 2384.15 3099.24 C 2392.79 3098.79 2401.76 3098.13 2409.97 3097.24 L 2428.72 3095.2 L 2429.4 3113.76 C 2431.06 3159.11 2426.86 3203.53 2421.3 3247.13 C 2415.82 3290.79 2408.87 3333.78 2404.1 3376.53 C 2401.77 3397.87 2400.12 3419.11 2399.65 3440.11 L 2399.72 3455.76 C 2399.79 3460.96 2400.29 3466.04 2400.54 3471.19 C 2401.16 3481.47 2402.5 3492.19 2403.96 3502.57 C 2409.97 3544.22 2420.58 3585.52 2439.94 3621.12 C 2444.85 3629.93 2450.27 3638.34 2456.26 3646.2 C 2462.35 3653.95 2469.05 3661.04 2476.3 3667.37 C 2490.91 3679.89 2508.02 3688.83 2526.69 3693.25 C 2535.94 3695.76 2545.72 3696.5 2555.47 3697.12 C 2557.3 3697.06 2559.13 3697.08 2560.96 3697.09 C 2564.06 3697.12 2567.16 3697.14 2570.3 3696.83 L 2577.76 3696.3 C 2580.29 3696.18 2582.45 3695.59 2584.81 3695.28 C 2587.11 3694.89 2589.46 3694.6 2591.74 3694.15 L 2598.31 3692.24 L 2601.61 3691.33 C 2602.68 3690.97 2603.67 3690.45 2604.7 3690.03 L 2610.86 3687.42 C 2612.81 3686.39 2614.63 3685.16 2616.54 3684.08 L 2619.4 3682.42 L 2621.97 3680.38 C 2623.66 3678.99 2625.45 3677.72 2627.11 3676.29 L 2631.74 3671.54 C 2637.62 3664.9 2642.89 3657.42 2646.69 3648.73 C 2648.92 3644.63 2650.26 3639.89 2652.07 3635.47 C 2653.34 3630.74 2655.05 3626.21 2655.97 3621.28 C 2660.43 3601.94 2661.96 3581.3 2661.6 3560.51 C 2661.35 3539.71 2659.27 3518.7 2656.1 3497.8 C 2652.89 3477.05 2648.54 3455.77 2643.1 3436.09 L 2641.42 3430.02 L 2643.85 3424.24 C 2651.22 3406.76 2658.11 3387.88 2664.42 3369.31 C 2670.63 3350.59 2676.66 3331.77 2681.89 3312.72 C 2692.61 3274.7 2701.47 3236.15 2708.11 3197.27 C 2721.75 3119.47 2724.62 3040.69 2719.29 2961.47 C 2716.85 2921.92 2713.36 2882.34 2708.66 2842.84 C 2707.54 2832.96 2706.41 2823.08 2705.04 2813.22 L 2701.36 2783.59 C 2698.56 2763.87 2696.08 2744.11 2693.13 2724.39 L 2675.38 2605.94 C 2669.7 2566.35 2663.75 2526.75 2659.35 2486.71 L 2659.35 2486.67 C 2658.99 2483.46 2661.31 2480.58 2664.51 2480.23 C 2667.29 2479.92 2669.82 2481.62 2670.68 2484.17 Z " fill="rgb(55,26,69)"/><path d=" M 2302.8 3121.97 C 2289.92 3121.89 2277.73 3120.05 2265.41 3117.65 C 2253.14 3115.25 2241.07 3111.79 2229.14 3107.79 C 2217.23 3103.75 2205.46 3099.21 2194.13 3093.48 C 2182.87 3087.71 2171.82 3081.16 2162.46 3072.59 C 2161.72 3071.91 2161.67 3070.76 2162.34 3070.02 C 2162.86 3069.46 2163.64 3069.3 2164.31 3069.55 L 2164.36 3069.56 C 2175.86 3073.85 2187.45 3076.88 2199.15 3079.46 C 2210.8 3082.14 2222.68 3084.01 2234.49 3085.9 C 2246.31 3087.79 2258.25 3089.11 2270.07 3090.94 C 2281.85 3092.71 2293.86 3094.53 2305.3 3097.09 L 2305.62 3097.16 C 2312.39 3098.68 2316.64 3105.39 2315.12 3112.16 C 2313.81 3118.03 2308.58 3122 2302.8 3121.97 Z " fill="rgb(55,26,69)"/><path d=" M 2410.55 3097.09 C 2421.99 3094.53 2434 3092.71 2445.79 3090.94 C 2457.61 3089.11 2469.54 3087.79 2481.36 3085.9 C 2493.17 3084.01 2505.05 3082.14 2516.7 3079.46 C 2528.41 3076.88 2540 3073.85 2551.49 3069.56 L 2551.54 3069.55 C 2552.48 3069.2 2553.52 3069.67 2553.87 3070.61 C 2554.14 3071.33 2553.92 3072.1 2553.4 3072.59 C 2544.03 3081.16 2532.98 3087.71 2521.72 3093.48 C 2510.39 3099.21 2498.62 3103.75 2486.71 3107.79 C 2474.79 3111.79 2462.71 3115.25 2450.44 3117.65 C 2438.12 3120.05 2425.93 3121.89 2413.05 3121.97 C 2406.12 3122.01 2400.47 3116.42 2400.42 3109.49 C 2400.39 3103.48 2404.59 3098.42 2410.22 3097.16 L 2410.55 3097.09 Z " fill="rgb(55,26,69)"/><path d=" M 2518.41 3000.33 L 2188.33 3000.33 C 2155.06 3000.33 2127.88 2973.11 2127.88 2939.85 L 2127.88 2920.66 C 2109.59 2923.44 2090.02 2924.53 2070.59 2924.53 C 2045.34 2924.53 2020.31 2922.69 1998.54 2920.32 C 1999.31 2910.25 2000.18 2900.19 2001.14 2890.13 C 2007.05 2892.69 2013.36 2894.41 2019.95 2895.21 C 2042.81 2897.97 2069.5 2900.19 2096.38 2900.19 C 2108.92 2900.19 2121.5 2899.71 2133.74 2898.57 L 2133.74 2899.19 C 2133.74 2937.86 2165.2 2969.32 2203.87 2969.32 L 2504.94 2969.32 C 2543.61 2969.32 2575.07 2937.86 2575.07 2899.19 L 2575.07 2895.76 C 2593.86 2898.95 2614.09 2900.19 2634.22 2900.19 C 2661.09 2900.19 2687.79 2897.97 2710.65 2895.21 C 2711.82 2895.07 2712.99 2894.89 2714.15 2894.69 C 2714.99 2903.75 2715.77 2912.8 2716.49 2921.86 C 2698.73 2923.44 2679.46 2924.53 2660.07 2924.53 C 2631.84 2924.53 2603.35 2922.23 2578.83 2915.8 L 2578.83 2939.85 C 2578.83 2973.11 2551.65 3000.33 2518.41 3000.33 Z  M 2127.88 2761.36 L 2127.88 2760.62 C 2127.88 2751.36 2129.99 2742.57 2133.75 2734.71 C 2133.74 2735.03 2133.74 2735.36 2133.74 2735.69 L 2133.74 2761.04 C 2131.82 2761.15 2129.86 2761.26 2127.88 2761.36 Z  M 2578.83 2759.66 C 2577.56 2759.53 2576.31 2759.41 2575.07 2759.28 L 2575.07 2739.63 C 2575.3 2740.25 2575.52 2740.86 2575.72 2741.48 C 2577.63 2747.21 2578.73 2753.31 2578.83 2759.66 Z " fill="rgb(185,175,190)"/><path d=" M 2716.49 2921.86 C 2715.77 2912.8 2714.99 2903.75 2714.15 2894.69 C 2720.42 2893.61 2726.43 2891.67 2732.03 2888.95 C 2732.61 2893.14 2733.17 2897.3 2733.73 2901.44 C 2734.57 2907.63 2735.36 2913.79 2736.14 2919.87 C 2729.87 2920.59 2723.29 2921.26 2716.49 2921.86 Z  M 1998.54 2920.32 C 1995.15 2919.95 1991.84 2919.56 1988.63 2919.17 C 1986.33 2918.88 1984.09 2918.48 1981.91 2917.95 C 1982.61 2912.52 1983.33 2907.02 1984.09 2901.47 C 1984.97 2894.92 1985.88 2888.31 1986.82 2881.65 C 1991.22 2885.07 1996.03 2887.92 2001.14 2890.13 C 2000.18 2900.19 1999.31 2910.25 1998.54 2920.32 Z " fill="rgb(55,26,69)"/><path d=" M 2188.4 2871.41 C 2142.14 2890.14 2070.55 2886.22 2021.75 2880.32 C 1992.48 2876.77 1971.93 2849.76 1976.24 2820.6 C 1980.18 2793.98 2003.61 2774.62 2030.48 2775.88 C 2076.13 2778.02 2144.6 2779.02 2187.97 2769.41 L 2188.4 2871.41 Z " fill="rgb(255,255,255)"/><path d=" M 2096.11 2870.17 C 2074.13 2870.17 2049.75 2868.59 2023.55 2865.42 C 2013.47 2864.2 2004.52 2859.08 1998.36 2851.01 C 1992.17 2842.9 1989.59 2832.88 1991.08 2822.79 C 1991.39 2820.74 1991.85 2818.75 1992.46 2816.83 C 2000.26 2824.08 2010.34 2829.01 2021.75 2830.4 C 2043.56 2833.04 2069.94 2835.28 2096.57 2835.28 C 2109.05 2835.28 2121.59 2834.79 2133.74 2833.61 L 2133.74 2868.4 C 2122.18 2869.57 2109.6 2870.17 2096.11 2870.17 Z " fill="rgb(185,175,190)"/><path d=" M 2027.99 2790.83 C 2009.52 2790.83 1993.82 2804.29 1991.08 2822.79 C 1989.59 2832.88 1992.17 2842.9 1998.36 2851.01 C 2004.52 2859.08 2013.47 2864.2 2023.55 2865.42 C 2092.89 2873.82 2149.44 2871 2182.77 2857.51 L 2182.77 2857.51 C 2190.5 2854.38 2193.38 2841.59 2194.26 2836.24 C 2197.66 2815.58 2192.07 2792.27 2187.25 2784.89 C 2142.99 2793.82 2077.55 2793.1 2029.78 2790.87 C 2029.18 2790.84 2028.59 2790.83 2027.99 2790.83 Z  M 2096.38 2900.19 C 2069.5 2900.19 2042.81 2897.97 2019.95 2895.21 C 2001.77 2893.01 1985.63 2883.78 1974.51 2869.21 C 1963.37 2854.61 1958.72 2836.57 1961.41 2818.4 C 1966.49 2784 1996.42 2759.24 2031.19 2760.9 C 2098.19 2764.03 2152.71 2761.86 2184.72 2754.76 C 2191.92 2753.16 2209.77 2752.96 2219.93 2785.63 C 2229.86 2817.58 2228.5 2871.36 2194.02 2885.32 C 2166.53 2896.45 2131.3 2900.19 2096.38 2900.19 Z " fill="rgb(55,26,69)"/><path d=" M 2542.2 2871.41 C 2588.46 2890.14 2660.04 2886.22 2708.85 2880.32 C 2738.12 2876.77 2758.66 2849.76 2754.35 2820.6 C 2750.42 2793.98 2726.99 2774.62 2700.11 2775.88 C 2654.47 2778.02 2585.99 2779.02 2542.63 2769.41 L 2542.2 2871.41 Z " fill="rgb(255,255,255)"/><path d=" M 2634.49 2870.16 C 2611.98 2870.16 2591.97 2868.52 2575.07 2865.25 L 2575.07 2830.74 C 2593.62 2834.1 2613.9 2835.38 2634.02 2835.38 C 2660.65 2835.38 2687.03 2833.14 2708.86 2830.5 C 2720.25 2829.12 2730.35 2824.16 2738.16 2816.9 C 2738.76 2818.79 2739.21 2820.76 2739.51 2822.79 C 2741.01 2832.88 2738.42 2842.9 2732.24 2851.01 C 2726.07 2859.08 2717.13 2864.2 2707.05 2865.43 C 2680.84 2868.59 2656.47 2870.16 2634.49 2870.16 Z " fill="rgb(185,175,190)"/><path d=" M 2543.35 2784.89 C 2538.53 2792.27 2532.94 2815.58 2536.33 2836.24 C 2537.22 2841.59 2540.1 2854.38 2547.83 2857.51 L 2547.83 2857.51 C 2581.16 2871 2637.7 2873.81 2707.05 2865.43 C 2717.13 2864.2 2726.07 2859.08 2732.24 2851.01 C 2738.42 2842.9 2741.01 2832.88 2739.51 2822.79 C 2736.69 2803.69 2720 2790.02 2700.82 2790.87 C 2653.03 2793.1 2587.61 2793.82 2543.35 2784.89 Z  M 2634.22 2900.19 C 2599.29 2900.19 2564.07 2896.45 2536.57 2885.32 C 2502.1 2871.36 2500.74 2817.58 2510.67 2785.62 C 2520.82 2752.96 2538.68 2753.16 2545.88 2754.76 C 2577.88 2761.86 2632.41 2764.05 2699.41 2760.9 C 2734.1 2759.25 2764.11 2783.99 2769.19 2818.4 C 2771.88 2836.57 2767.22 2854.61 2756.09 2869.21 C 2744.97 2883.78 2728.83 2893.01 2710.65 2895.21 C 2687.79 2897.97 2661.09 2900.19 2634.22 2900.19 Z " fill="rgb(55,26,69)"/><path d=" M 2560.07 2735.69 L 2560.07 2899.17 C 2560.07 2929.51 2535.25 2954.33 2504.95 2954.33 L 2203.89 2954.33 C 2173.54 2954.33 2148.76 2929.51 2148.76 2899.17 L 2148.76 2735.69 C 2148.76 2705.38 2173.54 2680.56 2203.89 2680.56 L 2504.95 2680.56 C 2529.16 2680.56 2549.88 2696.41 2557.23 2718.25 C 2559.06 2723.74 2560.07 2729.59 2560.07 2735.69 Z " fill="rgb(255,255,255)"/><path d=" M 2504.94 2939.32 L 2203.87 2939.32 C 2181.75 2939.32 2163.74 2921.31 2163.74 2899.19 L 2163.74 2851.98 C 2207.71 2873.8 2279.92 2900.72 2334.31 2900.72 C 2351.09 2900.72 2366.17 2898.15 2378.21 2892.09 C 2413.52 2874.3 2413.52 2817.44 2413.52 2817.44 L 2413.52 2817.44 L 2413.52 2817.44 C 2413.52 2843.7 2434.81 2864.98 2461.06 2864.98 C 2483.32 2864.98 2502.01 2849.69 2507.18 2829.03 C 2507.18 2829.04 2507.19 2829.05 2507.19 2829.06 C 2508.12 2825.34 2508.61 2821.45 2508.61 2817.43 C 2508.61 2816.15 2508.56 2814.88 2508.46 2813.63 C 2515.09 2828.05 2520.8 2833.94 2525.73 2833.94 C 2534.24 2833.94 2540.45 2816.44 2545.07 2794.97 L 2545.07 2899.19 C 2545.07 2921.31 2527.07 2939.32 2504.94 2939.32 Z " fill="rgb(185,175,190)"/><path d=" M 2203.87 2695.56 C 2181.75 2695.56 2163.74 2713.57 2163.74 2735.69 L 2163.74 2899.19 C 2163.74 2921.31 2181.75 2939.32 2203.87 2939.32 L 2504.94 2939.32 C 2527.07 2939.32 2545.07 2921.31 2545.07 2899.19 L 2545.07 2735.69 C 2545.07 2713.57 2527.07 2695.56 2504.94 2695.56 L 2203.87 2695.56 Z  M 2504.94 2969.32 L 2203.87 2969.32 C 2165.2 2969.32 2133.74 2937.86 2133.74 2899.19 L 2133.74 2735.69 C 2133.74 2697.02 2165.2 2665.56 2203.87 2665.56 L 2504.94 2665.56 C 2543.61 2665.56 2575.07 2697.02 2575.07 2735.69 L 2575.07 2899.19 C 2575.07 2937.86 2543.61 2969.32 2504.94 2969.32 Z " fill="rgb(55,26,69)"/><path d=" M 2508.6 2817.44 C 2508.6 2843.7 2487.32 2864.98 2461.06 2864.98 C 2434.81 2864.98 2413.52 2843.7 2413.52 2817.44 C 2413.52 2791.18 2434.81 2769.9 2461.06 2769.9 C 2487.32 2769.9 2508.6 2791.18 2508.6 2817.44 Z " fill="rgb(34,167,240)"/><path d=" M 2508.46 2813.63 C 2508.46 2813.62 2508.46 2813.61 2508.45 2813.6 C 2506.5 2789.14 2486.03 2769.9 2461.06 2769.9 C 2451.7 2769.9 2442.98 2772.6 2435.62 2777.27 C 2442.98 2772.6 2451.71 2769.89 2461.07 2769.89 C 2486.05 2769.89 2506.53 2789.15 2508.46 2813.63 Z " fill="rgb(255,255,255)"/><path d=" M 2507.19 2829.06 C 2507.19 2829.05 2507.18 2829.04 2507.18 2829.03 C 2508.11 2825.32 2508.6 2821.44 2508.6 2817.44 C 2508.6 2816.15 2508.55 2814.87 2508.45 2813.6 C 2508.46 2813.61 2508.46 2813.62 2508.46 2813.63 C 2508.56 2814.88 2508.61 2816.15 2508.61 2817.43 C 2508.61 2821.45 2508.12 2825.34 2507.19 2829.06 Z " fill="rgb(220,215,223)"/><path d=" M 2507.18 2829.03 C 2507.18 2829.03 2507.18 2829.03 2507.18 2829.03 C 2508.11 2825.32 2508.6 2821.43 2508.6 2817.43 C 2508.6 2813.03 2507.99 2808.73 2506.88 2804.7 C 2505.73 2808.82 2504.04 2812.72 2501.89 2816.31 C 2493.57 2802.45 2478.41 2793.15 2461.07 2793.15 C 2443.73 2793.15 2428.56 2802.45 2420.25 2816.32 C 2418.09 2812.73 2416.4 2808.84 2415.25 2804.71 C 2418.43 2793.24 2425.81 2783.5 2435.62 2777.27 C 2442.98 2772.6 2451.7 2769.9 2461.06 2769.9 C 2486.03 2769.9 2506.5 2789.14 2508.45 2813.6 C 2508.55 2814.87 2508.6 2816.15 2508.6 2817.44 C 2508.6 2821.44 2508.11 2825.32 2507.18 2829.03 Z " fill="rgb(145,211,248)"/><path d=" M 2461.06 2864.97 C 2434.82 2864.97 2413.52 2843.71 2413.52 2817.43 C 2413.52 2813.03 2414.13 2808.73 2415.25 2804.7 C 2415.25 2804.7 2415.25 2804.71 2415.25 2804.71 C 2414.13 2808.76 2413.53 2813.03 2413.53 2817.43 C 2413.53 2821.45 2414.03 2825.34 2414.96 2829.06 C 2416.1 2824.52 2417.9 2820.24 2420.25 2816.32 C 2428.56 2830.19 2443.75 2839.48 2461.06 2839.48 C 2478.39 2839.48 2493.57 2830.18 2501.89 2816.31 C 2504.23 2820.22 2506.03 2824.49 2507.18 2829.03 C 2502 2849.69 2483.31 2864.97 2461.06 2864.97 Z " fill="rgb(41,118,180)"/><path d=" M 2414.96 2829.06 C 2414.03 2825.34 2413.53 2821.45 2413.53 2817.43 C 2413.53 2813.03 2414.13 2808.76 2415.25 2804.71 C 2416.4 2808.84 2418.09 2812.73 2420.25 2816.32 C 2417.9 2820.24 2416.1 2824.52 2414.96 2829.06 Z  M 2507.18 2829.03 C 2506.03 2824.49 2504.23 2820.22 2501.89 2816.31 C 2504.04 2812.72 2505.73 2808.82 2506.88 2804.7 C 2507.99 2808.73 2508.6 2813.03 2508.6 2817.43 C 2508.6 2821.43 2508.11 2825.32 2507.18 2829.03 Z " fill="rgb(114,146,186)"/><path d=" M 2461.06 2782.4 C 2441.74 2782.4 2426.02 2798.12 2426.02 2817.44 C 2426.02 2836.76 2441.74 2852.48 2461.06 2852.48 C 2480.39 2852.48 2496.11 2836.76 2496.11 2817.44 C 2496.11 2798.12 2480.39 2782.4 2461.06 2782.4 Z  M 2461.06 2877.48 C 2427.95 2877.48 2401.02 2850.55 2401.02 2817.44 C 2401.02 2784.33 2427.95 2757.4 2461.06 2757.4 C 2494.17 2757.4 2521.11 2784.33 2521.11 2817.44 C 2521.11 2850.55 2494.17 2877.48 2461.06 2877.48 Z " fill="rgb(55,26,69)"/><path d=" M 2326.33 2966.82 C 2319.43 2966.82 2313.83 2961.22 2313.83 2954.32 L 2313.83 2875.43 C 2313.83 2855.74 2304.44 2836.91 2288.71 2825.07 C 2266.74 2808.53 2253.62 2782.23 2253.62 2754.73 L 2253.62 2680.56 C 2253.62 2673.66 2259.22 2668.06 2266.12 2668.06 C 2273.03 2668.06 2278.62 2673.66 2278.62 2680.56 L 2278.62 2754.73 C 2278.62 2774.42 2288.01 2793.25 2303.75 2805.1 C 2325.72 2821.63 2338.83 2847.93 2338.83 2875.43 L 2338.83 2954.32 C 2338.83 2961.22 2333.24 2966.82 2326.33 2966.82 Z " fill="rgb(55,26,69)"/><path d=" M 3075.93 1277.23 C 3054.02 1364.56 3021.4 1448.45 2979.25 1527.1 C 2901.57 1672.31 2791.43 1799.59 2656.14 1897.54 C 2539.38 1982.14 2403.85 2044.87 2254.2 2078.32 C 1665.14 2210.32 1080.64 1839.66 948.712 1250.63 C 875.468 923.484 957.247 597.609 1145.45 350.007 C 1180.58 303.701 1254.44 325.644 1258.01 383.68 C 1259.29 403.264 1261.02 422.941 1263.29 442.617 C 1267.73 480.325 1274.12 518.22 1282.56 555.99 C 1300.5 636.001 1326.73 711.945 1360.18 783.109 C 1366.2 795.803 1372.38 808.31 1378.81 820.725 C 1394.54 851.077 1411.55 880.468 1429.86 908.866 C 1443.08 929.443 1456.95 949.461 1471.45 968.951 C 1478.46 978.417 1485.66 987.759 1492.98 996.945 C 1511.3 1020.01 1530.54 1042.26 1550.62 1063.64 C 1561.54 1075.37 1572.75 1086.83 1584.2 1098 C 1592.24 1105.85 1600.37 1113.58 1608.69 1121.18 C 1639.13 1149.21 1671.13 1175.46 1704.46 1199.79 C 1707.53 1202.06 1710.64 1204.26 1713.71 1206.47 C 1732.36 1219.78 1751.42 1232.54 1770.85 1244.61 C 1775.38 1247.43 1779.88 1250.2 1784.44 1252.96 C 1803.84 1264.72 1823.64 1275.8 1843.69 1286.29 C 1854.55 1292 1865.51 1297.49 1876.59 1302.77 C 1878.91 1303.92 1881.24 1305.04 1883.6 1306.12 C 1885.24 1306.9 1886.86 1307.67 1888.53 1308.45 C 1892.1 1310.13 1895.7 1311.74 1899.27 1313.35 C 1918.33 1321.98 1937.63 1330.08 1957.16 1337.59 C 1963.02 1339.89 1968.92 1342.06 1974.85 1344.2 C 1981.21 1346.53 1987.6 1348.83 1994.03 1351.03 C 2010.88 1356.84 2028.01 1362.27 2045.17 1367.23 C 2071.93 1375.08 2099.02 1381.79 2126.39 1387.53 C 2154.48 1393.36 2182.85 1398.14 2211.46 1401.74 C 2249.45 1406.59 2287.9 1409.41 2326.6 1410.19 C 2362.95 1410.9 2399.63 1409.81 2436.47 1406.77 C 2443.98 1406.18 2451.52 1405.5 2459.06 1404.72 C 2475.26 1403.08 2491.53 1401.09 2507.76 1398.67 C 2534.48 1394.73 2561.26 1389.83 2588.08 1383.8 C 2589.85 1383.4 2591.62 1383.03 2593.36 1382.56 C 2669.89 1365.06 2742.73 1339.89 2811.16 1308.02 C 2870.57 1280.43 2926.68 1247.81 2979.1 1210.84 C 3026.36 1177.48 3090.02 1221.05 3075.93 1277.23 Z " fill="rgb(255,218,34)"/><path d=" M 1848.66 2060.5 C 1424.45 1988.18 1065.21 1667.44 965.346 1221.56 C 950.924 1157.14 942.516 1092.79 939.748 1029.07 C 939.587 1019.79 939.551 1010.53 939.64 1001.35 L 939.729 992.683 C 939.804 987.85 939.929 983.003 940.099 978.14 L 940.114 977.632 C 940.18 975.25 940.246 972.862 940.36 970.332 C 940.993 953.645 942.031 936.798 943.449 920.208 L 944.245 911.192 C 944.345 910.09 944.443 908.99 944.613 907.464 C 944.953 903.702 945.351 899.969 945.776 896.135 C 947.346 881.394 949.328 866.109 951.684 850.599 C 952.224 846.9 952.807 843.184 953.439 839.402 C 958.254 809.683 964.45 779.685 971.855 750.25 C 973.633 743.191 975.468 736.162 977.375 729.173 C 981.542 714.006 985.912 699.285 990.407 685.259 C 991.34 682.256 992.304 679.27 993.329 676.211 C 998.147 661.59 1003.46 646.568 1009.12 631.588 C 1011.54 625.223 1014 618.918 1016.56 612.564 C 1020.19 603.477 1023.97 594.39 1027.8 585.559 C 1029.75 581.053 1031.75 576.531 1033.77 572.059 L 1033.78 572.02 C 1047.11 542.289 1062.02 512.725 1078.11 484.163 C 1083.61 474.419 1089.33 464.639 1095.14 455.066 C 1098.46 449.573 1101.86 444.082 1105.29 438.621 C 1108.93 432.793 1112.66 427.044 1116.42 421.292 C 1122.94 411.343 1129.83 401.231 1137.47 390.404 C 1142.26 383.635 1147.14 376.946 1152.06 370.301 C 1154.53 366.976 1157.05 363.636 1159.57 360.304 C 1160.51 359.048 1161.5 357.869 1162.52 356.793 L 1163.75 355.476 C 1164.08 355.118 1164.44 354.81 1165.03 354.26 L 1165.29 354.019 L 1169.68 350.491 C 1169.7 350.475 1169.73 350.46 1169.75 350.444 C 1173.03 350.849 1176.28 351.506 1179.46 352.405 C 1134.78 439.247 1101.58 532.24 1081.37 629.012 C 1031.23 652.742 1008.23 737.832 1029.71 832.027 C 1036.54 862.004 1047.14 889.649 1060.25 913.59 C 1063.64 972.293 1071.82 1031.5 1085.08 1090.76 C 1100.84 1161.14 1123.07 1228.41 1151.01 1292.08 C 1138.99 1306.08 1129.81 1322.55 1123.18 1339.91 C 1110.22 1375.43 1107.5 1413.88 1111.31 1451.2 C 1114.96 1488.74 1126.37 1525.15 1142.2 1559.19 C 1158.37 1593.13 1179.62 1624.54 1204.81 1652.54 C 1230.37 1680.14 1259.9 1704.41 1293.22 1722.52 C 1326.57 1740.21 1363.55 1752.91 1402.03 1754.03 C 1404.49 1754.13 1406.96 1754.18 1409.43 1754.18 C 1426.13 1754.18 1442.89 1751.87 1458.95 1747.19 C 1473.11 1742.81 1486.73 1736.66 1499.1 1728.69 C 1585.83 1793.19 1681.87 1844.76 1784.06 1881.36 C 1786.93 1889.33 1790.55 1897.05 1794.86 1904.38 C 1804.46 1920.48 1816.7 1935.25 1831.43 1947.11 C 1837.5 1952.12 1843.91 1956.71 1850.6 1960.85 L 1843.34 2001.76 C 1839.71 2022.19 1841.88 2042.34 1848.66 2060.5 Z  M 2762 1786.06 C 2757.63 1779.88 2753.13 1773.82 2748.5 1767.89 C 2763.44 1758.14 2778.11 1748.05 2792.5 1737.63 C 2809.66 1725.2 2826.42 1712.3 2842.76 1698.95 C 2840.71 1701.43 2838.69 1703.84 2836.81 1706.07 C 2836.51 1706.4 2836.22 1706.74 2836.14 1706.87 C 2835.32 1707.76 2834.52 1708.72 2833.75 1709.64 C 2832.61 1711.01 2831.46 1712.34 2830.15 1713.85 C 2828.89 1715.33 2827.63 1716.82 2826.31 1718.28 L 2825.74 1718.94 C 2825.24 1719.55 2824.71 1720.15 2824.18 1720.76 L 2823.29 1721.79 C 2823.02 1722.08 2822.75 1722.37 2822.49 1722.68 C 2820.68 1724.73 2818.88 1726.78 2817.2 1728.66 L 2815.48 1730.56 C 2813.14 1733.16 2810.77 1735.75 2808.42 1738.31 L 2808.06 1738.73 C 2807.38 1739.51 2806.68 1740.27 2805.99 1741.02 L 2804.93 1742.19 C 2803.14 1744.12 2801.37 1746.02 2799.34 1748.14 L 2798.87 1748.65 C 2798.24 1749.33 2797.61 1750.03 2796.71 1750.96 C 2795.11 1752.68 2793.5 1754.36 2791.88 1756.06 L 2789.71 1758.32 C 2788.12 1759.97 2786.51 1761.63 2784.77 1763.39 L 2782.27 1765.97 C 2779.66 1768.66 2776.98 1771.32 2774.31 1773.98 L 2765.81 1782.37 C 2765.36 1782.83 2764.92 1783.27 2764.19 1783.95 L 2762 1786.06 Z " fill="rgb(185,151,46)"/><path d=" M 2662.36 1683.37 C 2613.99 1647.09 2558.41 1620.46 2498.01 1605.25 C 2479.92 1600.69 2461.79 1597.27 2443.73 1594.95 C 2457.97 1550.02 2506.16 1517.09 2562.98 1517.09 C 2563.56 1517.09 2564.15 1517.1 2564.73 1517.1 C 2632.72 1517.91 2686.87 1565.59 2685.68 1623.59 C 2685.22 1645.92 2676.63 1666.51 2662.36 1683.37 Z " fill="rgb(185,151,46)"/><path d=" M 1783.85 1476.28 C 1782.15 1473.32 1781.03 1470.17 1779.6 1467.1 C 1778.8 1465.28 1778.47 1463.35 1777.85 1461.48 C 1777.25 1459.59 1776.68 1457.7 1776.56 1455.75 L 1775.77 1449.93 L 1775.92 1444.06 C 1776.25 1428.23 1785.2 1413.19 1797.84 1401.63 C 1798.9 1400.67 1799.33 1399.19 1798.99 1397.83 C 1800.82 1396.54 1802.72 1395.29 1804.69 1394.09 C 1807.06 1410.88 1814.27 1426.61 1825.05 1441.04 C 1800.61 1448.12 1785.19 1460.62 1783.85 1476.28 Z " fill="rgb(185,151,46)"/><path d=" M 1924.69 1554.33 C 1993.96 1559.54 2043.56 1537.14 2035.47 1504.3 C 2027.38 1471.46 1964.67 1440.62 1895.4 1435.4 C 1826.12 1430.19 1776.53 1452.59 1784.62 1485.43 C 1792.7 1518.27 1855.42 1549.12 1924.69 1554.33 Z " fill="rgb(255,218,34)"/><path d=" M 2559.53 1589.68 C 2511.74 1607.65 2485.75 1653.16 2501.47 1691.33 C 2517.19 1729.5 2568.66 1745.89 2616.44 1727.92 C 2664.23 1709.96 2690.22 1664.45 2674.5 1626.28 C 2658.78 1588.1 2607.31 1571.72 2559.53 1589.68 Z " fill="rgb(255,218,34)"/><path d=" M 2083.16 1852.37 C 2083.17 1862.59 2081.87 1872.87 2079.15 1883.02 C 2059.96 1954.95 1977.89 1994.08 1895.83 1970.42 C 1834.2 1952.62 1790.08 1904.48 1780.1 1851.19 L 2083.16 1852.37 Z " fill="rgb(255,218,34)"/><path d=" M 2087.01 1852.36 C 2090.37 1889.7 2072.82 1928.74 2043.05 1953.18 C 2028.33 1965.64 2010.88 1974.6 1992.61 1980.36 C 1974.25 1985.88 1954.99 1988.26 1935.93 1987.31 C 1897.79 1985.58 1860.62 1971.22 1831.43 1947.11 C 1816.7 1935.25 1804.46 1920.48 1794.86 1904.38 C 1785.35 1888.21 1779.21 1870.1 1777.06 1851.76 C 1776.86 1850.06 1778.07 1848.52 1779.78 1848.32 C 1781.32 1848.13 1782.72 1849.11 1783.13 1850.56 L 1783.14 1850.62 C 1792.63 1884.63 1814.33 1913.55 1841.94 1933.62 C 1869.6 1953.6 1903.06 1965.53 1936.87 1966.68 C 1953.72 1967.32 1970.68 1965.61 1986.79 1960.85 C 2002.97 1956.38 2018.22 1948.86 2031.63 1938.88 C 2058.37 1918.92 2076.62 1887.33 2079.32 1852.37 C 2079.49 1850.25 2081.34 1848.66 2083.46 1848.83 C 2085.37 1848.97 2086.84 1850.48 2087 1852.32 L 2087.01 1852.36 Z " fill="rgb(55,26,69)"/><path d=" M 1302.16 1238.45 C 1263.76 1233.22 1226.66 1239.12 1194.95 1257.8 C 1137.47 1291.67 1114.01 1357.65 1119.96 1434.72 C 1123.86 1485.29 1141.8 1539.7 1174.29 1590.82 C 1256.29 1719.84 1399.92 1778.97 1495.1 1722.89 C 1530.51 1702.03 1554.23 1668.15 1565.82 1627.18 C 1585.39 1558.06 1567.25 1470.89 1515.76 1389.88 L 1302.16 1238.45 Z " fill="rgb(255,218,34)"/><path d=" M 1194.95 1257.8 C 1180 1268.28 1167.26 1281.33 1157.3 1296 C 1147.39 1310.71 1140.07 1326.95 1135.54 1343.93 C 1130.91 1360.87 1128.64 1378.41 1128.29 1395.97 C 1127.99 1413.52 1128.98 1431.22 1131.83 1448.52 C 1134.56 1465.86 1139.07 1482.89 1144.41 1499.6 C 1150 1516.25 1156.75 1532.52 1164.78 1548.15 C 1180.65 1579.49 1200.63 1608.87 1224.46 1634.59 C 1247.95 1660.58 1275.24 1683.24 1305.52 1700.5 C 1335.58 1718.05 1368.98 1729.96 1403.29 1733.28 C 1420.45 1735.07 1437.72 1733.74 1454.55 1730.31 C 1471.28 1726.55 1487.55 1720.03 1502.1 1710.5 C 1516.79 1701.17 1529.68 1688.87 1540.38 1674.66 C 1551.01 1660.4 1559.47 1644.27 1565.82 1627.18 C 1563.96 1636.1 1561.5 1644.95 1558.36 1653.62 C 1555.13 1662.24 1551.19 1670.65 1546.54 1678.73 C 1537.2 1694.87 1524.59 1709.31 1509.7 1721.14 C 1494.73 1732.88 1477.29 1741.51 1458.95 1747.19 C 1440.52 1752.56 1421.15 1754.81 1402.03 1754.03 C 1363.55 1752.91 1326.57 1740.21 1293.22 1722.52 C 1259.9 1704.41 1230.37 1680.14 1204.81 1652.54 C 1179.62 1624.54 1158.37 1593.13 1142.2 1559.19 C 1126.37 1525.15 1114.96 1488.74 1111.31 1451.2 C 1107.5 1413.88 1110.22 1375.43 1123.18 1339.91 C 1129.9 1322.32 1139.24 1305.65 1151.48 1291.53 C 1153.04 1289.79 1154.5 1287.98 1156.11 1286.3 L 1161.12 1281.43 C 1164.33 1278.07 1168.07 1275.29 1171.62 1272.35 C 1175.17 1269.41 1179.23 1267.11 1182.98 1264.5 C 1186.89 1262.1 1190.99 1260.03 1194.95 1257.8 Z " fill="rgb(55,26,69)"/><path d=" M 2560.27 1735.74 C 2533.71 1736.96 2506.42 1730.67 2482.69 1717.04 C 2470.94 1710.07 2460.05 1701.36 2450.87 1690.89 C 2441.84 1680.32 2434.41 1668.12 2429.81 1654.68 C 2420.24 1627.81 2423.5 1596.97 2436.69 1571.81 C 2443.27 1559.16 2452.51 1548.16 2462.93 1538.79 C 2473.42 1529.5 2485.16 1521.62 2497.9 1515.97 C 2510.63 1510.35 2524.03 1506.47 2537.68 1504.21 C 2551.38 1502.22 2565.24 1501.97 2578.96 1503.31 C 2592.66 1505.02 2606.14 1508.29 2619.02 1513.29 C 2631.89 1518.35 2643.86 1525.57 2654.65 1534.2 C 2676.4 1551.23 2692.08 1576.64 2696.08 1604.1 C 2698.04 1617.77 2697.37 1631.79 2693.56 1644.92 C 2691.67 1651.47 2689.2 1657.83 2686.06 1663.8 C 2683.04 1669.85 2678.85 1675.16 2675.1 1680.64 C 2674.14 1682.05 2672.21 1682.41 2670.8 1681.44 C 2669.42 1680.5 2669.05 1678.64 2669.93 1677.24 L 2670.06 1677.05 C 2683.53 1655.76 2688.89 1630.02 2683.33 1606.35 C 2678.3 1582.72 2663.64 1561.83 2644.14 1547.69 C 2605.31 1518.75 2549.92 1514.61 2506.49 1534.76 C 2484.91 1544.89 2465.73 1560.81 2454.61 1581.46 C 2443.38 1601.85 2440.34 1626.54 2447.21 1649.01 C 2453.99 1671.54 2470.07 1691.2 2490.34 1704.77 C 2510.67 1718.5 2535.18 1726.17 2560.36 1728.06 C 2562.48 1728.2 2564.08 1730.04 2563.93 1732.16 C 2563.8 1734.13 2562.19 1735.64 2560.27 1735.74 Z " fill="rgb(55,26,69)"/><path d=" M 2723.82 1557.13 C 2738.96 1578.36 2747.91 1604.5 2748.8 1631.26 C 2749.83 1658.08 2742.09 1685.03 2728.5 1708.21 C 2715.06 1731.65 2695.11 1750.74 2672.68 1765.18 C 2650.05 1779.45 2624.7 1789.21 2598.48 1793.82 C 2572.26 1798.34 2545.31 1798.3 2519.21 1793.24 C 2493.14 1788.23 2467.96 1778.15 2445.95 1763.28 C 2423.95 1748.5 2404.84 1728.98 2392.06 1705.71 C 2379.44 1682.43 2373.12 1655.76 2375 1629.8 C 2375.12 1628.09 2376.61 1626.81 2378.32 1626.93 C 2379.9 1627.04 2381.12 1628.33 2381.19 1629.88 L 2381.19 1629.93 C 2382.36 1654.76 2390.13 1678.66 2403.19 1699.1 C 2416.23 1719.61 2434.69 1736.2 2455.17 1748.88 C 2496.47 1774.23 2547.47 1782.16 2594.85 1773.49 C 2618.53 1769.12 2641.49 1760.68 2661.82 1747.96 C 2672.16 1741.86 2681.47 1734.27 2690.28 1726.21 C 2694.43 1721.94 2698.58 1717.62 2702.41 1713.07 L 2707.85 1705.98 C 2708.75 1704.8 2709.71 1703.65 2710.56 1702.43 L 2712.9 1698.64 L 2717.61 1691.05 C 2719.07 1688.46 2720.22 1685.71 2721.54 1683.05 C 2724.41 1677.79 2726.09 1672.08 2728.12 1666.47 C 2729.28 1663.7 2729.83 1660.78 2730.51 1657.87 L 2732.55 1649.15 C 2733.13 1643.22 2734.1 1637.28 2734.34 1631.28 C 2735.31 1607.24 2729.06 1582.94 2717.3 1561.19 C 2716.28 1559.32 2716.98 1556.98 2718.85 1555.97 C 2720.58 1555.03 2722.71 1555.57 2723.82 1557.13 Z " fill="rgb(55,26,69)"/><path d=" M 1842.85 1848.11 C 1840.04 1839.83 1838.58 1831.11 1838.85 1822.29 C 1839.17 1803.66 1847.24 1785.2 1861.08 1771.4 C 1862.14 1770.35 1862.31 1768.66 1861.42 1767.4 C 1877.38 1754.54 1898.67 1748.11 1921.71 1748.11 C 1922.61 1748.11 1923.51 1748.12 1924.41 1748.14 C 1932.42 1748.31 1940.71 1749.3 1948.95 1751.13 C 1948.81 1752.79 1949.77 1754.42 1951.41 1755.05 L 1951.46 1755.07 C 1969.76 1762.07 1986.2 1773.09 1998.24 1787.63 C 1999.97 1789.67 2001.61 1791.79 2003.14 1793.96 C 1998.68 1800.54 1994.36 1807.26 1990.22 1814.11 C 1982.55 1810.36 1974.23 1807.32 1965.37 1805.13 C 1955.07 1802.59 1944.74 1801.39 1934.63 1801.39 C 1895.78 1801.39 1860.26 1819.24 1842.85 1848.11 Z " fill="rgb(185,151,46)"/><path d=" M 1839.33 1854.61 C 1844.89 1886.09 1872.28 1913.99 1911.3 1923.62 C 1963.26 1936.41 2016.17 1911.95 2029.5 1868.96 C 2031.39 1862.9 2032.37 1856.78 2032.52 1850.71 C 2018.78 1829.43 1995.15 1812.49 1965.37 1805.13 C 1912.6 1792.14 1858.92 1814.01 1839.33 1854.61 Z " fill="rgb(255,218,34)"/><path d=" M 1953.59 1747.68 C 1974.09 1752.07 1993.61 1762.54 2008.91 1777.88 C 2016.49 1785.6 2023.01 1794.52 2027.94 1804.4 C 2032.82 1814.3 2036.01 1825.19 2037.07 1836.42 C 2038.26 1847.57 2037.11 1859.29 2033.4 1870.03 C 2029.96 1880.88 2024.31 1891.12 2016.9 1899.83 C 2001.74 1917.04 1980.6 1927.89 1958.68 1931.67 C 1914.66 1939.14 1868.06 1919.98 1842.82 1883.72 C 1830.29 1865.77 1823.45 1843.27 1825.94 1821.35 C 1828.29 1799.51 1840.04 1779.19 1857.03 1766.72 L 1857.05 1766.7 C 1858.43 1765.69 1860.38 1765.99 1861.39 1767.37 C 1862.31 1768.62 1862.15 1770.34 1861.08 1771.4 C 1847.24 1785.2 1839.17 1803.66 1838.85 1822.29 C 1838.28 1840.9 1845.4 1859.02 1856.63 1873.63 C 1879.44 1902.84 1919.23 1917.85 1955.11 1911.32 C 1972.94 1908.04 1989.82 1899.63 2001.59 1886.41 C 2013.26 1873.29 2019.78 1855.64 2018.81 1837.72 C 2018.05 1819.81 2010.38 1801.98 1998.24 1787.63 C 1986.2 1773.09 1969.76 1762.07 1951.46 1755.07 L 1951.41 1755.05 C 1949.42 1754.29 1948.43 1752.06 1949.19 1750.07 C 1949.88 1748.28 1951.77 1747.29 1953.59 1747.68 Z " fill="rgb(55,26,69)"/><path d=" M 1400.2 1678.34 C 1346.8 1678.34 1286.23 1650.47 1238.13 1598.29 C 1159.51 1513.02 1143.99 1395.11 1203.46 1334.95 C 1226.54 1311.59 1257.53 1300.37 1291.41 1300.37 C 1344.81 1300.37 1405.38 1328.25 1453.48 1380.42 C 1532.09 1465.7 1547.62 1583.6 1488.15 1643.77 C 1465.07 1667.12 1434.08 1678.34 1400.2 1678.34 Z " fill="rgb(185,151,46)"/><path d=" M 1400.23 1442.22 C 1326.82 1373.62 1234.72 1358.06 1194.51 1407.46 C 1154.3 1456.85 1181.21 1552.5 1254.61 1621.1 C 1328.01 1689.69 1420.11 1705.25 1460.32 1655.86 C 1500.53 1606.46 1473.63 1510.81 1400.23 1442.22 Z " fill="rgb(255,218,34)"/><path d=" M 1378.69 1676.95 C 1397.64 1678.55 1416.71 1676.67 1434.04 1670.44 C 1451.37 1664.26 1466.79 1653.62 1478.48 1639.92 C 1490.29 1626.28 1498.48 1609.64 1502.97 1591.95 C 1507.56 1574.28 1509.11 1555.69 1507.76 1537.2 C 1505.2 1500.18 1492.98 1463.77 1474.17 1431.38 C 1455.61 1398.77 1430.53 1369.82 1400.69 1347.56 C 1371.04 1325.28 1335.69 1309.92 1299.75 1308.02 C 1281.84 1307.06 1263.98 1310.1 1248 1317.38 C 1232.02 1324.68 1217.93 1335.98 1207.49 1350.45 C 1196.93 1364.85 1190.01 1382.09 1186.16 1400.14 C 1182.24 1418.21 1181.59 1437.16 1183.26 1455.98 C 1186.4 1493.81 1199.79 1530.74 1218.79 1564.44 C 1219.88 1566.34 1219.22 1568.77 1217.32 1569.86 C 1215.53 1570.88 1213.27 1570.33 1212.1 1568.7 C 1189.18 1536.13 1173.16 1498.19 1166.83 1457.95 C 1163.77 1437.82 1163.59 1417.05 1166.92 1396.52 C 1170.14 1376.01 1177.51 1355.71 1189.51 1337.91 C 1201.44 1320.11 1218.27 1305.14 1237.88 1295.83 C 1257.44 1286.35 1279.34 1282.25 1300.63 1282.9 C 1321.98 1283.46 1342.82 1288.33 1362.21 1296.04 C 1381.67 1303.69 1399.78 1314.1 1416.45 1326.28 C 1449.76 1350.8 1476.73 1382.9 1496.88 1418.53 C 1516.67 1454.34 1529.81 1494.5 1531.19 1536.05 C 1531.96 1556.75 1529.63 1577.76 1523.52 1597.87 C 1517.36 1617.93 1506.87 1637.02 1492.17 1652.41 C 1477.4 1667.68 1458.65 1678.96 1438.51 1684.54 C 1418.34 1690.2 1397.26 1690.36 1377.36 1686.71 C 1374.68 1686.22 1372.91 1683.65 1373.4 1680.98 C 1373.86 1678.46 1376.15 1676.75 1378.64 1676.95 L 1378.69 1676.95 Z " fill="rgb(55,26,69)"/><path d=" M 1797.84 1401.63 C 1785.2 1413.19 1776.25 1428.23 1775.92 1444.06 L 1775.77 1449.93 L 1776.56 1455.75 C 1776.68 1457.7 1777.25 1459.59 1777.85 1461.48 C 1778.47 1463.35 1778.8 1465.28 1779.6 1467.1 C 1781.29 1470.72 1782.55 1474.46 1784.82 1477.85 C 1785.89 1479.56 1786.73 1481.37 1787.96 1483 L 1791.62 1487.88 C 1801.61 1500.79 1814.98 1511.41 1829.46 1519.96 C 1843.89 1528.73 1859.75 1535.28 1876.06 1540.25 C 1880.18 1541.37 1884.25 1542.68 1888.41 1543.66 L 1900.96 1546.37 L 1913.65 1548.29 C 1917.89 1548.82 1922.16 1549.15 1926.41 1549.6 C 1943.46 1550.91 1960.65 1550.16 1977.39 1547.23 C 1994.06 1544.17 2010.48 1538.84 2024.4 1529.59 C 2031.64 1525.3 2037.55 1519.41 2042.91 1513.11 C 2048.06 1506.58 2051.58 1498.96 2053.91 1490.76 L 2053.98 1490.5 C 2054.45 1488.86 2056.16 1487.91 2057.8 1488.37 C 2059.28 1488.79 2060.2 1490.22 2060.03 1491.69 C 2058.98 1501.05 2056.22 1510.47 2051.16 1518.73 C 2046.03 1526.8 2039.63 1534.28 2032.04 1540.05 C 2017.06 1552.06 1999.21 1559.57 1981 1563.94 C 1962.75 1568.49 1943.92 1569.87 1925.28 1569.17 C 1906.61 1568.52 1888.14 1565.24 1870.18 1560.06 C 1852.24 1554.81 1834.93 1547.2 1818.83 1537.32 C 1810.8 1532.34 1803.24 1526.53 1796.06 1520.25 C 1792.53 1517.05 1789.19 1513.57 1785.84 1510.15 L 1781.22 1504.55 C 1779.68 1502.69 1778.15 1500.82 1776.87 1498.72 L 1772.85 1492.61 C 1771.51 1490.57 1770.53 1488.26 1769.37 1486.1 C 1766.95 1481.84 1765.43 1477.02 1763.77 1472.35 C 1762.98 1470 1762.67 1467.45 1762.12 1465.02 C 1761.59 1462.57 1761.11 1460.12 1761.1 1457.57 L 1760.76 1450.04 L 1761.55 1442.52 C 1762.81 1432.55 1766.9 1423.08 1772.48 1415.12 C 1778.11 1407.11 1785.33 1400.64 1793.15 1395.54 C 1794.94 1394.38 1797.32 1394.89 1798.49 1396.67 C 1799.53 1398.28 1799.21 1400.38 1797.84 1401.63 Z " fill="rgb(55,26,69)"/><path d=" M 1880.81 1600.22 C 1902.49 1606.96 1924.63 1609.42 1946.57 1608.2 C 1968.49 1606.94 1990.18 1602.08 2010.54 1594 C 2030.9 1586 2050.05 1574.69 2065.92 1559.96 C 2081.73 1545.25 2093.79 1526.35 2096.31 1504.08 L 2096.32 1504.02 C 2096.51 1502.3 2098.05 1501.08 2099.77 1501.27 C 2101.21 1501.43 2102.31 1502.55 2102.5 1503.93 C 2104.22 1516.02 2102.23 1528.72 2097.82 1540.35 C 2093.36 1552.01 2086.44 1562.58 2078.25 1571.81 C 2061.87 1590.4 2040.71 1603.89 2018.22 1613.18 C 2006.94 1617.82 1995.16 1621.15 1983.22 1623.58 C 1971.22 1625.68 1959.03 1626.89 1946.84 1626.5 C 1922.54 1625.96 1898.05 1619.82 1877.59 1607.19 C 1875.77 1606.07 1875.2 1603.68 1876.32 1601.87 C 1877.27 1600.33 1879.12 1599.69 1880.76 1600.2 L 1880.81 1600.22 Z " fill="rgb(55,26,69)"/><path d=" M 2954.43 1536 C 2974.04 1497.92 2991.42 1458.64 3006.47 1418.4 C 3023.18 1365.4 3031.22 1309.73 2994.53 1303.03 C 2993.41 1302.83 2992.15 1302.73 2990.74 1302.73 C 2973.89 1302.73 2936.72 1317.05 2884.46 1336.95 C 2886.13 1331.54 2887.33 1326.08 2888.02 1320.58 C 2888.02 1320.58 2888.01 1320.59 2888.01 1320.6 C 2888.79 1314.37 2888.91 1308.11 2888.31 1301.83 C 2887.89 1297.36 2887.31 1293.2 2886.59 1289.33 C 2906.07 1278.57 2925.23 1267.23 2944.02 1255.32 L 2947.23 1253.28 C 2949.94 1251.56 2952.64 1249.84 2955.39 1248.04 L 2964.15 1242.24 C 2968.89 1239.12 2973.62 1235.95 2978.33 1232.68 L 2989.2 1225.08 C 2994.69 1221.21 3000.58 1218.65 3006.72 1217.46 C 3007.57 1217.3 3008.42 1217.15 3009.28 1217.07 L 3009.92 1216.99 C 3011.26 1216.81 3012.68 1216.71 3014.24 1216.69 L 3015.51 1216.71 C 3019.34 1216.77 3023.17 1217.33 3026.84 1218.38 C 3033.22 1220.23 3039.31 1223.49 3044.39 1227.77 C 3051.2 1233.55 3056.1 1240.95 3058.55 1249.12 C 3060.42 1255.37 3060.83 1261.96 3059.7 1269.09 C 3059.62 1269.66 3059.51 1270.25 3059.4 1270.77 C 3059.26 1271.46 3059.11 1272.15 3058.88 1273.05 C 3056.62 1282.08 3054.12 1291.49 3051.22 1301.84 C 3049.87 1306.61 3048.51 1311.38 3047.1 1316.12 C 3042.97 1330.09 3038.42 1344.39 3033.58 1358.59 C 3030.01 1368.99 3026.74 1378.12 3023.57 1386.55 C 3008.2 1427.74 2990.22 1468.22 2970.17 1506.8 C 2968.06 1510.84 2965.95 1514.86 2963.86 1518.78 C 2961.46 1523.23 2959.05 1527.71 2956.55 1532.18 C 2955.85 1533.46 2955.14 1534.73 2954.43 1536 Z  M 2353 1456.76 C 2286.09 1456.76 2217.51 1449.52 2149.18 1431.92 C 2147.76 1423.51 2145.65 1415.48 2143.1 1408.23 C 2180.33 1415.32 2218.06 1420.52 2256.1 1423.77 C 2287.13 1426.42 2318.38 1427.75 2349.64 1427.75 C 2381.46 1427.75 2413.29 1426.37 2444.87 1423.62 C 2447.35 1423.42 2449.84 1423.18 2452.34 1422.95 L 2455.86 1422.62 C 2457.83 1422.43 2459.77 1422.22 2461.58 1422.03 C 2465.66 1421.65 2469.78 1421.2 2473.78 1420.74 C 2476.25 1420.47 2478.73 1420.16 2481.22 1419.86 C 2488.02 1419.06 2494.79 1418.16 2501.52 1417.21 C 2510.1 1416.03 2518.71 1414.74 2527.48 1413.33 C 2532.53 1412.47 2537.57 1411.62 2542.6 1410.73 C 2547.93 1409.8 2553.23 1408.82 2558.57 1407.79 L 2559.48 1407.61 C 2563.49 1406.83 2567.51 1406.03 2571.54 1405.21 C 2571.89 1414.31 2573.13 1423.65 2575.5 1432.62 C 2505.45 1447.1 2430.33 1456.76 2353 1456.76 Z  M 1818.23 1315.26 C 1815.63 1313.93 1813.04 1312.58 1810.45 1311.22 C 1790.4 1300.73 1770.6 1289.65 1751.2 1277.89 C 1746.64 1275.13 1742.14 1272.36 1737.61 1269.54 C 1718.18 1257.47 1699.13 1244.71 1680.47 1231.4 C 1677.4 1229.19 1674.3 1226.99 1671.22 1224.72 C 1637.89 1200.39 1605.89 1174.13 1575.45 1146.11 C 1567.13 1138.51 1559 1130.78 1550.96 1122.93 C 1539.51 1111.75 1528.31 1100.3 1517.38 1088.57 C 1497.3 1067.19 1478.06 1044.93 1459.75 1021.87 C 1452.42 1012.69 1445.22 1003.35 1438.21 993.879 C 1423.71 974.389 1409.84 954.37 1396.62 933.794 C 1378.31 905.397 1361.3 876.006 1345.57 845.653 C 1339.14 833.239 1332.97 820.731 1326.95 808.038 C 1293.49 736.872 1267.26 660.928 1249.33 580.918 C 1240.88 543.149 1234.49 505.253 1230.05 467.545 C 1227.79 447.868 1226.05 428.192 1224.78 408.608 C 1222.97 379.226 1203.15 359.105 1179.46 352.405 C 1180.92 349.556 1182.38 346.743 1183.87 343.907 C 1187.07 343.096 1190.39 342.64 1193.8 342.557 L 1195.99 342.503 C 1197.68 342.538 1199.47 342.694 1201.37 342.971 C 1218.55 345.445 1237.24 358.465 1240.3 382.088 C 1240.45 383.221 1240.54 384.353 1240.61 385.352 C 1240.95 391.04 1241.35 396.709 1241.81 402.18 C 1242.06 405.708 1242.36 409.219 1242.68 412.735 C 1243.22 418.838 1243.8 424.954 1244.44 430.803 C 1244.81 434.575 1245.23 438.333 1245.66 442.132 C 1248.07 463.389 1251.15 484.813 1254.78 505.635 C 1255.38 509.312 1256.03 512.969 1256.69 516.484 C 1257.37 520.265 1258.08 524.027 1258.82 527.745 C 1260.59 536.792 1262.43 545.835 1264.34 554.519 L 1265.52 559.8 C 1266.24 563.023 1266.96 566.238 1267.76 569.613 L 1268.18 571.363 C 1269.12 575.391 1270.07 579.417 1271.03 583.196 C 1271.62 585.642 1272.23 588.104 1272.83 590.384 C 1273.7 593.87 1274.6 597.322 1275.47 600.594 C 1275.74 601.687 1276.02 602.779 1276.33 603.858 C 1277.55 608.506 1278.83 613.109 1280.11 617.635 C 1281.55 622.835 1283.05 628.018 1284.56 633.092 C 1286.58 639.927 1288.7 646.709 1290.85 653.499 C 1291.97 657.044 1293.1 660.584 1294.25 664.085 L 1296.58 671.031 C 1349.28 828.001 1434.52 968.069 1549.92 1087.34 C 1630.9 1171.04 1723.57 1240.85 1824.25 1295.03 C 1821.58 1300.62 1819.53 1307.31 1818.23 1315.26 Z " fill="rgb(255,237,145)"/><path d=" M 1179.46 352.405 C 1176.28 351.506 1173.03 350.849 1169.75 350.444 C 1174.01 347.404 1178.77 345.203 1183.87 343.907 C 1182.38 346.743 1180.92 349.556 1179.46 352.405 Z " fill="rgb(220,203,151)"/><path d=" M 1017.81 564.861 L 1017.86 564.861 L 1017.81 564.861 Z  M 2891.81 1635.09 L 2891.64 1635.33 L 2891.81 1635.09 Z  M 2458.88 1991.85 L 2458.87 1991.86 L 2458.88 1991.85 Z  M 2231.51 2084.14 L 2231.54 2084.16 L 2231.32 2083.22 L 2231.51 2084.14 Z  M 1165.29 354.019 L 1165.03 354.26 C 1164.44 354.81 1164.08 355.118 1163.75 355.476 L 1162.52 356.793 C 1161.5 357.869 1160.51 359.048 1159.57 360.304 C 1157.05 363.636 1154.53 366.976 1152.06 370.301 C 1147.14 376.946 1142.26 383.635 1137.47 390.404 C 1129.83 401.231 1122.94 411.343 1116.42 421.292 C 1112.66 427.044 1108.93 432.793 1105.29 438.621 C 1101.86 444.082 1098.46 449.573 1095.14 455.066 C 1089.33 464.639 1083.61 474.419 1078.11 484.163 C 1062.02 512.725 1047.11 542.289 1033.78 572.02 L 1033.77 572.059 C 1031.75 576.531 1029.75 581.053 1027.8 585.559 C 1023.97 594.39 1020.19 603.477 1016.56 612.564 C 1014 618.918 1011.54 625.223 1009.12 631.588 C 1003.46 646.568 998.147 661.59 993.329 676.211 C 992.304 679.27 991.34 682.256 990.407 685.259 C 985.912 699.285 981.542 714.006 977.375 729.173 C 975.468 736.162 973.633 743.191 971.855 750.25 C 964.45 779.685 958.254 809.683 953.439 839.402 C 952.807 843.184 952.224 846.9 951.684 850.599 C 949.328 866.109 947.346 881.394 945.776 896.135 C 945.351 899.969 944.953 903.702 944.613 907.464 C 944.443 908.99 944.345 910.09 944.245 911.192 L 943.449 920.208 C 942.031 936.798 940.993 953.645 940.36 970.332 C 940.246 972.862 940.18 975.25 940.114 977.632 L 940.099 978.14 C 939.929 983.003 939.804 987.85 939.729 992.683 L 939.64 1001.35 C 939.457 1020.13 939.802 1039.25 940.659 1058.19 C 940.822 1062.12 940.995 1065.96 941.235 1069.82 L 941.762 1078.85 C 941.857 1080.31 941.95 1081.76 942.06 1083.21 C 942.275 1086.65 942.523 1089.84 942.773 1093.04 L 942.939 1095.17 C 943.219 1098.97 943.557 1102.74 943.893 1106.51 C 944.282 1110.84 944.662 1114.78 945.061 1118.7 C 945.451 1122.72 945.881 1126.64 946.313 1130.57 C 946.742 1134.49 947.216 1138.38 947.709 1142.32 C 948.207 1146.41 948.715 1150.42 949.254 1154.44 L 949.606 1156.94 C 950.026 1159.96 950.446 1162.96 950.893 1165.99 C 951.51 1170.16 952.128 1174.35 952.797 1178.52 C 954.013 1186.21 955.319 1193.92 956.687 1201.57 C 958.115 1209.48 959.643 1217.38 961.235 1225.32 C 962.829 1233.15 964.528 1241.09 966.321 1248.99 C 968.781 1259.84 971.171 1269.76 973.628 1279.33 C 976.005 1288.59 978.673 1298.39 981.78 1309.29 C 1115.4 1774.31 1539.07 2087.41 2013.9 2087.42 C 2051.16 2087.43 2088.69 2085.5 2126.46 2081.57 L 2130 2081.18 C 2132.76 2080.88 2135.52 2080.58 2138.27 2080.26 C 2142.23 2079.8 2146.17 2079.34 2150.09 2078.83 L 2166.05 2076.67 C 2168.65 2076.3 2171.25 2075.93 2173.86 2075.53 C 2177.01 2075.08 2180.01 2074.6 2183.01 2074.13 L 2185.84 2073.67 C 2189.75 2073.06 2193.67 2072.42 2197.58 2071.73 L 2198.84 2071.51 C 2199.45 2071.39 2200.06 2071.28 2200.68 2071.19 C 2203.04 2070.77 2205.8 2070.28 2208.54 2069.77 L 2210.91 2069.33 C 2212.66 2069.01 2214.41 2068.7 2216.15 2068.36 C 2217.01 2068.19 2217.85 2068.03 2218.67 2067.87 L 2218.95 2067.35 L 2228.59 2065.92 C 2231.69 2065.29 2234.98 2064.6 2238.26 2063.91 C 2239.84 2063.59 2241.32 2063.26 2242.8 2062.93 L 2245.24 2062.4 C 2247.05 2062 2248.92 2061.59 2250.8 2061.15 C 2252.78 2060.72 2254.51 2060.33 2256.2 2059.95 L 2257.09 2059.74 C 2258.98 2059.29 2260.86 2058.85 2262.76 2058.38 L 2263.78 2058.16 C 2264.23 2058.08 2264.67 2057.96 2265.15 2057.83 L 2265.84 2057.65 C 2267.96 2057.16 2270.12 2056.66 2272.25 2056.13 C 2273.4 2055.86 2274.32 2055.64 2275.27 2055.36 L 2276.1 2055.15 C 2277.8 2054.75 2279.46 2054.35 2281.16 2053.88 L 2287.86 2052.17 C 2290.91 2051.36 2294.11 2050.52 2297.33 2049.64 L 2304.93 2047.56 C 2308.97 2046.43 2313.04 2045.27 2317.07 2044.1 L 2318.53 2043.65 C 2322.95 2042.4 2327.38 2041.07 2331.82 2039.71 C 2334.77 2038.8 2337.72 2037.87 2340.65 2036.95 L 2349.38 2034.15 C 2352.3 2033.19 2355.21 2032.24 2358.12 2031.26 L 2362.83 2029.65 C 2364.74 2029.02 2366.54 2028.43 2368.3 2027.78 L 2369.33 2027.43 C 2369.77 2027.3 2370.19 2027.17 2370.61 2027.01 L 2374.75 2025.54 C 2375.3 2025.33 2375.88 2025.13 2376.46 2024.94 C 2377.87 2024.45 2379.48 2023.87 2381.05 2023.28 L 2381.75 2023.03 C 2382.48 2022.79 2383.2 2022.53 2383.92 2022.25 L 2386.27 2021.38 C 2387.05 2021.12 2387.83 2020.84 2388.58 2020.57 C 2389.55 2020.22 2390.45 2019.89 2391.33 2019.53 L 2391.91 2019.31 C 2393.35 2018.79 2394.75 2018.28 2396.13 2017.73 L 2397.48 2017.23 C 2398.09 2017.01 2398.7 2016.78 2399.29 2016.54 L 2400.42 2016.11 C 2402.62 2015.31 2404.58 2014.54 2406.54 2013.77 L 2410.64 2012.13 C 2412.33 2011.48 2414.02 2010.81 2415.7 2010.14 L 2418.04 2009.21 C 2419.21 2008.73 2420.53 2008.2 2421.82 2007.65 L 2424.14 2006.71 C 2425.95 2006.01 2427.75 2005.27 2429.55 2004.52 L 2434.01 2002.62 C 2436.76 2001.48 2439.27 2000.42 2441.75 1999.35 C 2443.27 1998.68 2444.85 1997.99 2446.4 1997.34 L 2450.29 1995.63 C 2453.32 1994.28 2456.37 1992.92 2459.41 1991.56 L 2467.28 1987.11 L 2468.11 1987.56 C 2473.79 1984.95 2479.37 1982.3 2484.89 1979.63 C 2489.07 1977.62 2493.21 1975.57 2497.31 1973.51 C 2499.61 1972.36 2501.87 1971.23 2504.12 1970.06 L 2504.71 1969.76 C 2505.34 1969.46 2505.99 1969.13 2506.61 1968.79 L 2507.47 1968.36 C 2507.88 1968.16 2508.27 1967.96 2508.67 1967.74 L 2509.16 1967.48 C 2511.23 1966.42 2513.28 1965.34 2515.33 1964.27 C 2518.65 1962.54 2521.63 1960.96 2524.58 1959.36 C 2527.51 1957.82 2530.19 1956.34 2532.87 1954.86 L 2534.43 1954.04 C 2537.98 1952.06 2541.3 1950.23 2544.59 1948.34 L 2546.85 1947.07 C 2549.41 1945.61 2551.97 1944.17 2554.53 1942.67 C 2556.4 1941.6 2558.05 1940.64 2559.71 1939.64 C 2561.66 1938.51 2563.38 1937.51 2565.07 1936.5 L 2566.18 1935.81 C 2569.4 1933.92 2572.6 1932 2575.74 1930.04 C 2584.46 1924.76 2593.25 1919.23 2602.81 1912.99 C 2611.05 1907.62 2617.8 1903.09 2624.05 1898.75 L 2626.63 1896.97 C 2629.06 1895.29 2631.49 1893.62 2633.91 1891.92 C 2634.57 1891.46 2634.95 1891.21 2635.3 1890.95 L 2645.88 1883.35 C 2649.04 1881.05 2652.06 1878.86 2655.04 1876.66 C 2657 1875.26 2658.67 1873.97 2660.34 1872.69 C 2663.7 1870.2 2666.77 1867.84 2669.84 1865.47 L 2670.58 1864.92 C 2671.34 1864.38 2672.06 1863.81 2672.79 1863.22 C 2675.24 1861.34 2677.32 1859.71 2679.4 1858.08 L 2682.74 1855.43 C 2685.42 1853.34 2688.07 1851.23 2690.7 1849.07 L 2691.1 1848.76 C 2691.62 1848.36 2692.16 1847.95 2692.65 1847.51 L 2696.49 1844.35 C 2699.15 1842.17 2701.8 1839.99 2704.44 1837.76 C 2705.58 1836.84 2706.45 1836.12 2707.3 1835.39 C 2710.52 1832.71 2713.42 1830.21 2716.33 1827.71 L 2718.9 1825.49 C 2720.51 1824.11 2722.11 1822.75 2723.67 1821.35 C 2724.94 1820.25 2725.85 1819.45 2726.77 1818.61 L 2727.56 1817.93 C 2728.17 1817.39 2728.77 1816.87 2729.37 1816.32 L 2730.43 1815.37 C 2731.46 1814.46 2732.48 1813.56 2733.49 1812.63 C 2736.47 1809.96 2739.21 1807.47 2741.92 1804.97 L 2742.33 1804.6 C 2743.07 1803.96 2743.78 1803.31 2744.48 1802.62 L 2744.97 1802.16 C 2747.38 1799.99 2749.74 1797.75 2752.1 1795.51 C 2754.26 1793.49 2756.29 1791.55 2758.33 1789.58 L 2764.19 1783.95 C 2764.92 1783.27 2765.36 1782.83 2765.81 1782.37 L 2774.31 1773.98 C 2776.98 1771.32 2779.66 1768.66 2782.27 1765.97 L 2784.77 1763.39 C 2786.51 1761.63 2788.12 1759.97 2789.71 1758.32 L 2791.88 1756.06 C 2793.5 1754.36 2795.11 1752.68 2796.71 1750.96 C 2797.61 1750.03 2798.24 1749.33 2798.87 1748.65 L 2799.34 1748.14 C 2801.37 1746.02 2803.14 1744.12 2804.93 1742.19 L 2805.99 1741.02 C 2806.68 1740.27 2807.38 1739.51 2808.06 1738.73 L 2808.42 1738.31 C 2810.77 1735.75 2813.14 1733.16 2815.48 1730.56 L 2817.2 1728.66 C 2818.88 1726.78 2820.68 1724.73 2822.49 1722.68 C 2822.75 1722.37 2823.02 1722.08 2823.29 1721.79 L 2824.18 1720.76 C 2824.71 1720.15 2825.24 1719.55 2825.74 1718.94 L 2826.31 1718.28 C 2827.63 1716.82 2828.89 1715.33 2830.15 1713.85 C 2831.46 1712.34 2832.61 1711.01 2833.75 1709.64 C 2834.52 1708.72 2835.32 1707.76 2836.14 1706.87 C 2836.22 1706.74 2836.51 1706.4 2836.81 1706.07 C 2839.58 1702.79 2842.63 1699.14 2845.64 1695.42 C 2846.88 1693.95 2847.84 1692.76 2848.8 1691.59 L 2849.53 1690.7 C 2851.22 1688.61 2852.97 1686.45 2854.71 1684.25 L 2855.92 1682.74 C 2858.44 1679.61 2860.91 1676.45 2863.39 1673.27 C 2863.67 1672.92 2863.93 1672.61 2864.16 1672.26 L 2865.37 1670.72 C 2865.75 1670.29 2866.09 1669.83 2866.43 1669.36 L 2870.28 1664.34 C 2871.43 1662.86 2872.58 1661.35 2873.68 1659.82 L 2874.33 1658.97 C 2875.13 1657.98 2875.89 1656.94 2876.64 1655.93 L 2876.96 1655.5 C 2878.32 1653.67 2879.64 1651.88 2880.91 1650.11 L 2881.27 1649.63 C 2881.74 1649.03 2882.22 1648.41 2882.64 1647.78 L 2885.84 1643.4 C 2886.95 1641.88 2888.06 1640.36 2889.14 1638.82 L 2892.27 1634.43 C 2893.43 1632.8 2894.59 1631.17 2895.73 1629.54 L 2897.98 1626.3 L 2899.43 1624.21 C 2900.14 1623.24 2900.62 1622.53 2901.1 1621.83 C 2912.44 1605.37 2923.36 1588.51 2933.68 1571.56 C 2938.65 1563.44 2943.92 1554.54 2949.8 1544.27 C 2952.02 1540.32 2954.3 1536.26 2956.55 1532.18 C 2959.05 1527.71 2961.46 1523.23 2963.86 1518.78 C 2965.95 1514.86 2968.06 1510.84 2970.17 1506.8 C 2990.22 1468.22 3008.2 1427.74 3023.57 1386.55 C 3026.74 1378.12 3030.01 1368.99 3033.58 1358.59 C 3038.42 1344.39 3042.97 1330.09 3047.1 1316.12 C 3048.51 1311.38 3049.87 1306.61 3051.22 1301.84 C 3054.12 1291.49 3056.62 1282.08 3058.88 1273.05 C 3059.11 1272.15 3059.26 1271.46 3059.4 1270.77 C 3059.51 1270.25 3059.62 1269.66 3059.7 1269.09 C 3060.83 1261.96 3060.42 1255.37 3058.55 1249.12 C 3056.1 1240.95 3051.2 1233.55 3044.39 1227.77 C 3039.31 1223.49 3033.22 1220.23 3026.84 1218.38 C 3023.17 1217.33 3019.34 1216.77 3015.51 1216.71 L 3014.24 1216.69 C 3012.68 1216.71 3011.26 1216.81 3009.92 1216.99 L 3009.28 1217.07 C 3008.42 1217.15 3007.57 1217.3 3006.72 1217.46 C 3000.58 1218.65 2994.69 1221.21 2989.2 1225.08 L 2978.33 1232.68 C 2973.62 1235.95 2968.89 1239.12 2964.15 1242.24 L 2955.39 1248.04 C 2952.64 1249.84 2949.94 1251.56 2947.23 1253.28 L 2944.02 1255.32 C 2871.4 1301.35 2793.34 1338.88 2711.97 1366.88 L 2711.39 1367.08 C 2707.2 1368.51 2702.98 1369.96 2698.74 1371.33 C 2694.41 1372.76 2689.98 1374.22 2685.5 1375.62 C 2681.24 1376.97 2676.87 1378.31 2672.5 1379.65 C 2645.29 1387.88 2617.8 1395.09 2590.58 1401.15 C 2585.54 1402.27 2580.53 1403.33 2575.52 1404.38 C 2570.16 1405.51 2564.81 1406.57 2559.48 1407.61 L 2558.57 1407.79 C 2553.23 1408.82 2547.93 1409.8 2542.6 1410.73 C 2537.57 1411.62 2532.53 1412.47 2527.48 1413.33 C 2518.71 1414.74 2510.1 1416.03 2501.52 1417.21 C 2494.79 1418.16 2488.02 1419.06 2481.22 1419.86 C 2478.73 1420.16 2476.25 1420.47 2473.78 1420.74 C 2469.78 1421.2 2465.66 1421.65 2461.58 1422.03 C 2459.77 1422.22 2457.83 1422.43 2455.86 1422.62 L 2452.34 1422.95 C 2449.84 1423.18 2447.35 1423.42 2444.87 1423.62 C 2382.26 1429.08 2318.72 1429.12 2256.1 1423.77 C 1988.57 1400.97 1737.77 1281.49 1549.92 1087.34 C 1434.52 968.069 1349.28 828.001 1296.58 671.031 L 1294.25 664.085 C 1293.1 660.584 1291.97 657.044 1290.85 653.499 C 1288.7 646.709 1286.58 639.927 1284.56 633.092 C 1283.05 628.018 1281.55 622.835 1280.11 617.635 C 1278.83 613.109 1277.55 608.506 1276.33 603.858 C 1276.02 602.779 1275.74 601.687 1275.47 600.594 C 1274.6 597.322 1273.7 593.87 1272.83 590.384 C 1272.23 588.104 1271.62 585.642 1271.03 583.196 C 1270.07 579.417 1269.12 575.391 1268.18 571.363 L 1267.76 569.613 C 1266.96 566.238 1266.24 563.023 1265.52 559.8 L 1264.34 554.519 C 1262.43 545.835 1260.59 536.792 1258.82 527.745 C 1258.08 524.027 1257.37 520.265 1256.69 516.484 C 1256.03 512.969 1255.38 509.312 1254.78 505.635 C 1251.15 484.813 1248.07 463.389 1245.66 442.132 C 1245.23 438.333 1244.81 434.575 1244.44 430.803 C 1243.8 424.954 1243.22 418.838 1242.68 412.735 C 1242.36 409.219 1242.06 405.708 1241.81 402.18 C 1241.35 396.709 1240.95 391.04 1240.61 385.352 C 1240.54 384.353 1240.45 383.221 1240.3 382.088 C 1237.24 358.465 1218.55 345.445 1201.37 342.971 C 1199.47 342.694 1197.68 342.538 1195.99 342.503 L 1193.8 342.557 C 1184.92 342.774 1176.62 345.518 1169.68 350.491 L 1165.29 354.019 Z  M 2016.91 2122.24 C 1797.6 2122.24 1580.82 2056.55 1396.32 1932.63 C 1179.1 1786.75 1019.93 1568.8 948.132 1318.92 C 944.929 1307.69 942.182 1297.6 939.726 1288.04 C 937.187 1278.14 934.721 1267.9 932.189 1256.74 C 930.339 1248.57 928.585 1240.39 926.928 1232.25 C 925.283 1224.04 923.71 1215.92 922.238 1207.76 C 920.822 1199.84 919.477 1191.91 918.231 1184.02 C 917.548 1179.75 916.907 1175.43 916.267 1171.1 C 915.805 1167.97 915.375 1164.88 914.943 1161.79 L 914.581 1159.2 C 914.008 1154.93 913.481 1150.78 912.973 1146.6 C 912.466 1142.53 911.967 1138.47 911.523 1134.38 C 911.076 1130.32 910.632 1126.25 910.234 1122.16 C 909.828 1118.19 909.432 1114.11 909.069 1110.04 C 908.678 1105.67 908.327 1101.72 908.037 1097.81 L 907.877 1095.76 C 907.614 1092.37 907.351 1088.99 907.145 1085.61 C 907.04 1084.29 906.938 1082.69 906.835 1081.09 L 906.288 1071.79 C 906.049 1067.87 905.862 1063.81 905.69 1059.72 C 904.809 1040.19 904.455 1020.43 904.641 1001.04 L 904.731 992.261 C 904.814 987.076 904.943 982.007 905.119 976.919 C 905.2 974.065 905.273 971.475 905.39 968.872 C 906.04 951.768 907.111 934.365 908.571 917.276 L 909.389 908.016 C 909.516 906.637 909.643 905.257 909.799 903.892 C 910.114 900.328 910.537 896.361 910.979 892.356 C 912.597 877.171 914.648 861.365 917.065 845.448 C 917.624 841.611 918.246 837.661 918.903 833.724 C 923.864 803.101 930.263 772.115 937.914 741.707 C 939.746 734.427 941.64 727.178 943.618 719.929 C 947.925 704.261 952.434 689.063 957.031 674.724 C 957.995 671.622 959.038 668.387 960.116 665.169 C 965.06 650.164 970.546 634.666 976.388 619.193 C 978.901 612.576 981.452 606.053 984.082 599.529 C 987.812 590.188 991.72 580.787 995.68 571.643 C 997.704 566.976 999.775 562.293 1001.86 557.664 C 1015.62 526.976 1031.01 496.465 1047.62 466.975 C 1053.3 456.9 1059.22 446.797 1065.2 436.939 C 1068.6 431.307 1072.1 425.65 1075.62 420.04 C 1079.38 414.029 1083.24 408.083 1087.14 402.119 C 1093.89 391.821 1101 381.384 1108.89 370.201 C 1113.84 363.202 1118.87 356.306 1123.95 349.446 C 1126.49 346.033 1129.06 342.616 1131.62 339.229 C 1133.32 336.968 1135.16 334.788 1137.06 332.774 C 1137.39 332.401 1137.87 331.873 1138.4 331.345 C 1139.16 330.54 1139.95 329.793 1140.75 329.043 C 1141.22 328.568 1141.72 328.111 1142.25 327.671 C 1142.67 327.298 1143.09 326.931 1143.51 326.57 L 1144.22 325.965 C 1145.21 325.12 1145.89 324.61 1146.57 324.107 L 1147.38 323.482 C 1147.9 323.074 1148.42 322.672 1148.94 322.286 L 1149.57 321.849 C 1162.15 312.898 1177.12 307.955 1192.85 307.569 C 1192.93 307.554 1193.39 307.532 1193.84 307.527 L 1195.98 307.498 L 1196.3 307.503 C 1199.57 307.552 1202.97 307.831 1206.41 308.335 C 1242.74 313.57 1270.32 341.363 1274.99 377.488 C 1275.24 379.26 1275.4 381.15 1275.53 383.075 C 1275.87 388.653 1276.25 394.058 1276.7 399.464 C 1276.95 402.979 1277.24 406.275 1277.55 409.618 C 1278.07 415.504 1278.61 421.36 1279.26 427.19 C 1279.63 431.007 1280.03 434.568 1280.44 438.179 C 1282.77 458.758 1285.75 479.483 1289.29 499.791 C 1289.88 503.38 1290.49 506.787 1291.13 510.21 C 1291.78 513.912 1292.46 517.44 1293.16 520.985 C 1294.89 529.825 1296.68 538.604 1298.61 547.417 L 1299.67 552.147 C 1300.36 555.225 1301.05 558.296 1301.78 561.37 L 1302.2 563.172 C 1303.15 567.188 1304.04 570.999 1305.01 574.81 C 1305.6 577.273 1306.16 579.5 1306.73 581.697 C 1307.6 585.169 1308.46 588.465 1309.34 591.776 C 1309.6 592.82 1309.76 593.475 1309.95 594.117 L 1310.12 594.735 C 1311.3 599.239 1312.54 603.699 1313.81 608.177 C 1315.22 613.26 1316.65 618.229 1318.11 623.135 C 1320.08 629.805 1322.14 636.372 1324.22 642.935 C 1325.3 646.346 1326.39 649.771 1327.51 653.184 L 1329.76 659.91 C 1380.79 811.88 1463.33 947.508 1575.07 1063.01 C 1757.04 1251.07 1999.96 1366.81 2259.08 1388.89 C 2319.71 1394.08 2381.22 1394.03 2441.92 1388.75 C 2444.35 1388.55 2446.7 1388.32 2449.06 1388.1 L 2452.58 1387.77 C 2454.35 1387.6 2456.18 1387.41 2458.02 1387.21 C 2462.15 1386.82 2466.03 1386.4 2469.88 1385.96 C 2472.29 1385.69 2474.64 1385.41 2476.98 1385.12 C 2483.65 1384.33 2490.15 1383.47 2496.68 1382.55 C 2505.08 1381.39 2513.43 1380.14 2521.78 1378.8 C 2526.59 1377.98 2531.57 1377.13 2536.57 1376.26 C 2541.76 1375.35 2546.92 1374.4 2552.1 1373.39 L 2553 1373.21 C 2558.1 1372.22 2563.22 1371.2 2568.32 1370.13 C 2573.17 1369.11 2578.06 1368.08 2582.97 1366.98 C 2609.36 1361.12 2635.99 1354.13 2662.13 1346.22 C 2666.51 1344.88 2670.76 1343.58 2674.99 1342.23 C 2679.38 1340.87 2683.62 1339.47 2687.87 1338.06 C 2692.01 1336.72 2696.06 1335.34 2700.06 1333.97 L 2700.61 1333.78 C 2779.38 1306.67 2854.96 1270.33 2925.23 1225.79 L 2928.47 1223.73 C 2931.03 1222.1 2933.59 1220.48 2936.12 1218.82 L 2944.84 1213.06 C 2949.4 1210.05 2953.91 1207.02 2958.37 1203.93 L 2969.24 1196.33 C 2978.6 1189.73 2989.03 1185.24 3000.04 1183.1 C 3001.83 1182.75 3003.65 1182.47 3005.48 1182.27 C 3008.83 1181.83 3012.28 1181.63 3015.99 1181.7 L 3020.55 1181.91 C 3025.94 1182.31 3031.29 1183.25 3036.51 1184.74 C 3047.61 1187.95 3058.14 1193.59 3066.99 1201.05 C 3079.01 1211.26 3087.67 1224.39 3092.08 1239.08 C 3095.47 1250.43 3096.22 1262.22 3094.33 1274.17 C 3094.2 1275.14 3093.95 1276.54 3093.68 1277.87 C 3093.35 1279.37 3093.09 1280.55 3092.78 1281.74 C 3090.5 1290.89 3087.91 1300.62 3084.92 1311.28 C 3083.53 1316.22 3082.11 1321.15 3080.66 1326.06 C 3076.4 1340.47 3071.7 1355.23 3066.7 1369.91 C 3063 1380.68 3059.62 1390.12 3056.35 1398.82 C 3040.49 1441.31 3021.94 1483.1 3001.2 1522.99 C 2999.02 1527.15 2996.87 1531.26 2994.7 1535.32 C 2992.19 1539.98 2989.7 1544.6 2987.16 1549.16 C 2984.89 1553.26 2982.56 1557.4 2980.23 1561.54 C 2974.11 1572.24 2968.67 1581.45 2963.54 1589.8 C 2952.92 1607.26 2941.63 1624.69 2930.02 1641.54 C 2929.29 1642.61 2928.59 1643.63 2927.85 1644.63 L 2924.26 1649.81 C 2923.12 1651.44 2921.97 1653.07 2920.81 1654.7 L 2920.43 1655.23 C 2920.23 1655.54 2919.94 1655.94 2919.59 1656.38 L 2917.81 1658.88 C 2916.6 1660.62 2915.39 1662.29 2914.17 1663.96 L 2911.37 1667.79 C 2910.66 1668.8 2909.9 1669.82 2909.14 1670.81 C 2907.84 1672.62 2906.49 1674.43 2905.15 1676.25 L 2904.74 1676.8 C 2903.8 1678.07 2902.85 1679.34 2901.86 1680.57 C 2900.6 1682.32 2899.29 1684.04 2897.99 1685.73 L 2894.69 1690 C 2893.93 1691.06 2893.14 1692.08 2892.31 1693.07 C 2891.87 1693.67 2891.42 1694.25 2890.97 1694.82 C 2888.34 1698.2 2885.69 1701.57 2883 1704.92 C 2882.68 1705.36 2882.26 1705.91 2881.72 1706.51 C 2880.05 1708.63 2878.36 1710.72 2876.66 1712.81 L 2875.91 1713.73 C 2874.81 1715.07 2873.71 1716.42 2872.6 1717.73 C 2869.68 1721.35 2866.46 1725.21 2863.19 1729.06 C 2862.67 1729.69 2862.39 1730.02 2862.09 1730.36 C 2861.53 1730.97 2861.11 1731.49 2860.69 1732 C 2859.34 1733.61 2858.02 1735.14 2856.69 1736.66 C 2855.42 1738.16 2854.01 1739.82 2852.53 1741.47 C 2851.87 1742.26 2851.18 1743.05 2850.5 1743.83 L 2848.89 1745.66 C 2846.93 1747.89 2845.01 1750.07 2843.06 1752.24 L 2841.39 1754.09 C 2839.16 1756.58 2836.75 1759.21 2834.37 1761.81 C 2833.52 1762.79 2832.64 1763.74 2831.77 1764.69 L 2830.74 1765.82 C 2828.69 1768.03 2826.79 1770.07 2824.86 1772.09 L 2824.64 1772.33 C 2823.8 1773.26 2822.93 1774.19 2822.06 1775.09 C 2820.61 1776.64 2818.91 1778.43 2817.2 1780.23 L 2814.89 1782.63 C 2813.2 1784.38 2811.49 1786.15 2809.78 1787.88 L 2807.39 1790.34 C 2804.62 1793.19 2801.81 1795.99 2798.99 1798.8 C 2798.49 1799.31 2798.01 1799.81 2797.47 1800.32 L 2790.51 1807.16 C 2789.91 1807.78 2789.06 1808.62 2788.17 1809.44 L 2782.6 1814.8 C 2780.44 1816.88 2778.28 1818.94 2776.1 1820.98 C 2773.71 1823.25 2771.22 1825.61 2768.69 1827.9 C 2767.65 1828.92 2766.58 1829.89 2765.49 1830.84 C 2762.69 1833.43 2759.87 1835.99 2757.01 1838.55 C 2756.04 1839.44 2754.85 1840.5 2753.66 1841.56 L 2752.87 1842.25 C 2752.26 1842.82 2751.4 1843.57 2750.51 1844.34 L 2750 1844.79 C 2749.09 1845.62 2747.97 1846.6 2746.8 1847.61 C 2745.32 1848.95 2743.49 1850.52 2741.64 1852.09 L 2741.11 1852.55 C 2740.75 1852.88 2740.38 1853.19 2740.02 1853.5 L 2739.15 1854.25 C 2736.1 1856.87 2733.06 1859.48 2729.96 1862.07 C 2729.06 1862.85 2727.87 1863.83 2726.7 1864.77 C 2724.23 1866.86 2721.47 1869.12 2718.71 1871.39 L 2716.99 1872.81 C 2716.41 1873.31 2715.83 1873.79 2715.24 1874.25 C 2714.4 1874.96 2713.53 1875.65 2712.67 1876.32 C 2710.12 1878.41 2707.56 1880.45 2704.98 1882.47 L 2704.77 1882.71 L 2700.96 1885.66 C 2698.78 1887.36 2696.62 1889.05 2694.41 1890.74 C 2693.52 1891.47 2692.35 1892.37 2691.11 1893.26 C 2687.78 1895.83 2684.61 1898.27 2681.39 1900.64 C 2679.65 1901.99 2677.65 1903.51 2675.6 1904.97 C 2673.72 1906.37 2671.72 1907.83 2669.68 1909.32 L 2669.65 1909.37 L 2655.96 1919.2 C 2655.5 1919.54 2654.73 1920.08 2653.96 1920.61 C 2651.53 1922.32 2649.02 1924.05 2646.5 1925.78 L 2643.98 1927.52 C 2637.48 1932.04 2630.46 1936.74 2621.93 1942.31 C 2612.04 1948.76 2602.92 1954.5 2594.06 1959.86 C 2591.03 1961.76 2587.75 1963.73 2584.46 1965.66 C 2583.91 1966.03 2583.35 1966.37 2582.79 1966.68 C 2581.04 1967.73 2579.27 1968.76 2577.49 1969.79 C 2575.82 1970.8 2573.92 1971.91 2572 1973 C 2569.5 1974.46 2566.8 1975.99 2564.09 1977.52 L 2561.9 1978.76 C 2558.52 1980.69 2555.08 1982.6 2551.65 1984.5 C 2550.99 1984.89 2550.19 1985.32 2549.4 1985.72 C 2546.65 1987.23 2543.89 1988.75 2541.07 1990.23 C 2538.13 1991.83 2534.97 1993.5 2531.77 1995.16 C 2529.53 1996.34 2527.43 1997.45 2525.3 1998.53 C 2524.49 1998.98 2523.69 1999.39 2522.87 1999.79 C 2521.95 2000.28 2521.02 2000.75 2520.09 2001.2 C 2517.73 2002.43 2515.36 2003.62 2512.98 2004.81 C 2508.74 2006.93 2504.43 2009.07 2500.1 2011.15 C 2493.74 2014.23 2487.28 2017.29 2480.8 2020.24 L 2466.94 2026.67 L 2466.79 2026.6 C 2466.04 2026.93 2465.29 2027.27 2464.54 2027.6 L 2454.44 2032.11 L 2454.31 2032.04 C 2452.07 2033.01 2449.85 2033.94 2447.63 2034.86 L 2443.2 2036.75 C 2441.07 2037.63 2439.15 2038.42 2437.25 2039.17 C 2436.51 2039.5 2435.76 2039.8 2434.98 2040.09 C 2433.68 2040.63 2432.36 2041.17 2431.03 2041.71 L 2428.63 2042.66 C 2426.97 2043.32 2425.29 2043.99 2423.61 2044.63 C 2423.23 2044.81 2422.76 2045 2422.27 2045.19 L 2419.57 2046.26 C 2417.07 2047.24 2414.87 2048.09 2412.65 2048.9 L 2411.94 2049.18 C 2411.15 2049.48 2410.36 2049.79 2409.56 2050.08 C 2409.27 2050.19 2408.98 2050.3 2408.67 2050.41 C 2407.18 2051 2405.67 2051.55 2404.12 2052.11 C 2402.87 2052.61 2401.59 2053.09 2400.33 2053.54 C 2399.63 2053.79 2398.85 2054.07 2398.07 2054.34 C 2397.43 2054.6 2396.77 2054.84 2396.11 2055.07 C 2395.1 2055.45 2394.1 2055.8 2393.08 2056.15 C 2391.3 2056.82 2389.48 2057.47 2387.64 2058.11 L 2381.34 2041.76 L 2387.1 2058.28 L 2383.06 2059.72 C 2382.05 2060.1 2381.02 2060.45 2379.96 2060.78 C 2377.97 2061.51 2375.94 2062.18 2373.86 2062.86 L 2369.19 2064.46 C 2366.29 2065.44 2363.29 2066.42 2360.29 2067.41 L 2351.14 2070.34 C 2348.13 2071.29 2345.1 2072.24 2342.07 2073.17 C 2337.61 2074.54 2333.16 2075.88 2328.7 2077.14 C 2327.93 2077.41 2327.18 2077.64 2326.42 2077.83 C 2324.79 2078.3 2323.15 2078.77 2321.52 2079.24 L 2321.45 2079.37 L 2306.45 2083.43 C 2303.23 2084.31 2299.94 2085.18 2296.65 2086.05 L 2290.09 2087.72 C 2288.37 2088.2 2286.42 2088.68 2284.43 2089.15 C 2283.18 2089.49 2281.96 2089.79 2280.7 2090.1 C 2278.44 2090.65 2276.24 2091.17 2274.1 2091.67 C 2272.95 2091.98 2271.86 2092.24 2270.76 2092.46 C 2269.04 2092.88 2267.34 2093.28 2265.64 2093.68 L 2264.8 2093.89 C 2262.7 2094.37 2260.6 2094.84 2258.46 2095.3 C 2256.74 2095.7 2254.72 2096.15 2252.7 2096.59 L 2250.34 2097.11 C 2248.7 2097.47 2247.04 2097.84 2245.38 2098.18 C 2244.16 2098.44 2242.93 2098.69 2241.69 2098.95 L 2241.48 2099.34 L 2232.74 2100.77 C 2229.5 2101.44 2226.3 2102.05 2223.1 2102.66 C 2220.97 2103.07 2219.07 2103.42 2217.18 2103.77 L 2214.93 2104.18 C 2212.11 2104.7 2209.22 2105.22 2206.38 2105.72 L 2205.14 2105.94 C 2204.53 2106.05 2203.92 2106.16 2203.3 2106.25 C 2199.55 2106.92 2195.41 2107.6 2191.29 2108.25 L 2188.52 2108.69 C 2185.32 2109.2 2182.14 2109.71 2178.96 2110.16 C 2176.4 2110.55 2173.69 2110.94 2170.98 2111.32 L 2154.63 2113.53 C 2150.52 2114.07 2146.43 2114.55 2142.34 2115.02 C 2139.49 2115.36 2136.63 2115.67 2133.77 2115.98 L 2130.19 2116.37 C 2092.46 2120.3 2054.65 2122.24 2016.91 2122.24 Z " fill="rgb(55,26,69)"/><path d=" M 1261.07 891.909 C 1264.42 862.192 1262.57 828.58 1254.62 793.721 C 1230.76 689.112 1161.08 612.884 1098.97 623.463 C 1036.86 634.04 1005.85 727.419 1029.71 832.027 C 1053.56 936.637 1123.25 1012.86 1185.36 1002.29 L 1261.07 891.909 Z " fill="rgb(255,218,34)"/><path d=" M 1083.48 632.24 C 1067.95 642.97 1056.59 658.679 1048.83 675.848 C 1041.06 693.104 1036.63 711.852 1034.09 730.787 C 1031.58 749.762 1031.18 769.054 1032.13 788.207 C 1032.64 797.778 1033.51 807.346 1034.93 816.725 C 1035.65 821.405 1036.45 826.063 1037.56 830.475 C 1039.02 835.048 1040.31 839.651 1041.81 844.188 C 1053.71 880.404 1069.99 915.267 1093.04 944.865 C 1098.72 952.292 1104.9 959.319 1111.58 965.747 C 1118.16 972.3 1125.33 978.177 1132.98 983.252 C 1140.6 988.373 1148.82 992.518 1157.5 995.425 C 1166.21 998.141 1175.39 999.6 1184.83 999.193 L 1184.9 999.191 C 1186.62 999.116 1188.07 1000.45 1188.15 1002.17 C 1188.21 1003.64 1187.23 1004.92 1185.87 1005.3 C 1175.94 1008.05 1165.19 1008.52 1154.81 1006.82 C 1144.4 1005.17 1134.44 1001.43 1125.14 996.7 C 1115.85 991.897 1107.31 985.875 1099.35 979.287 C 1091.49 972.562 1084.29 965.184 1077.61 957.404 C 1051.23 925.93 1034.07 887.983 1024.97 848.827 C 1023.74 843.945 1022.86 838.986 1021.97 834.043 C 1020.88 828.899 1020.13 823.866 1019.51 818.839 C 1018.26 808.793 1017.63 798.79 1017.37 788.774 C 1016.86 768.755 1018.13 748.702 1021.39 728.888 C 1024.7 709.11 1030.18 689.463 1039.33 671.285 C 1048.35 653.157 1061.8 636.616 1079.26 625.814 C 1081.07 624.694 1083.44 625.245 1084.56 627.047 C 1085.64 628.792 1085.14 631.079 1083.48 632.24 Z " fill="rgb(55,26,69)"/><path d=" M 1171.24 932.246 C 1168.81 932.246 1166.32 932.058 1163.78 931.675 C 1140.32 928.151 1117.47 908.538 1100.2 880.357 C 1085.49 856.321 1074.85 825.968 1071.38 793.985 C 1064.28 728.591 1089.73 679.593 1129.04 679.593 C 1131.47 679.593 1133.96 679.781 1136.49 680.164 C 1138.47 680.457 1140.46 680.871 1142.42 681.418 C 1183.72 692.411 1221.73 751.578 1228.9 817.854 C 1236 883.248 1210.55 932.249 1171.24 932.246 Z " fill="rgb(185,151,46)"/><path d=" M 1209.14 828.485 C 1182.01 779.309 1138.81 753.718 1112.66 771.326 C 1086.5 788.934 1087.29 843.073 1114.42 892.249 C 1141.55 941.425 1184.75 967.016 1210.9 949.407 C 1237.06 931.8 1236.27 877.66 1209.14 828.485 Z " fill="rgb(255,218,34)"/><path d=" M 1223.74 863.615 C 1224.55 841.499 1221.66 819.397 1215.35 798.396 C 1209.37 777.324 1200.15 757.286 1187.96 739.696 C 1181.67 731.08 1174.76 723.008 1166.96 716.285 C 1159.19 709.585 1150.43 704.288 1141.45 701.875 C 1132.52 699.348 1123.47 699.954 1115.65 703.767 C 1107.78 707.512 1101.23 714.584 1096.25 723.075 C 1091.27 731.61 1087.95 741.526 1085.83 751.753 C 1083.7 762.001 1082.73 772.659 1082.8 783.376 C 1082.6 788.732 1083.21 794.108 1083.43 799.486 C 1084.17 804.833 1084.48 810.243 1085.61 815.553 C 1087.29 826.267 1090.15 836.775 1093.33 847.159 C 1096.88 857.419 1101.04 867.482 1106.07 877.096 C 1111.19 886.646 1117.13 895.741 1124.01 904.038 C 1130.94 912.247 1138.99 919.489 1148.09 924.841 C 1157.16 930.117 1167.54 933.302 1178.12 932.306 L 1178.18 932.3 C 1179.88 932.139 1181.4 933.391 1181.56 935.095 C 1181.7 936.665 1180.66 938.07 1179.16 938.409 C 1167.22 941.127 1154.47 938.813 1143.54 933.73 C 1132.49 928.694 1122.91 921.16 1114.47 912.788 C 1106.16 904.254 1099.1 894.684 1092.81 884.675 C 1086.56 874.626 1081.66 863.867 1077.24 852.931 C 1073.27 841.848 1069.46 830.627 1067.36 818.984 C 1065.97 813.236 1065.41 807.317 1064.44 801.472 C 1063.99 795.549 1063.18 789.656 1063.19 783.673 C 1062.68 771.754 1063.64 759.692 1065.98 747.75 C 1068.32 735.825 1072.05 723.905 1078.36 712.75 C 1084.56 701.664 1094.03 691.257 1106.69 685.215 C 1119.28 679.072 1134.28 678.473 1147.05 682.301 C 1159.92 686.118 1170.69 693.412 1179.82 701.655 C 1188.97 709.968 1196.63 719.437 1203.15 729.482 C 1209.52 739.615 1214.86 750.24 1219.34 761.165 C 1223.41 772.235 1227.11 783.417 1229.38 794.918 C 1234.22 817.772 1235.43 841.532 1231.37 864.476 C 1231 866.57 1229 867.968 1226.91 867.596 C 1224.99 867.258 1223.66 865.555 1223.73 863.665 L 1223.74 863.615 Z " fill="rgb(55,26,69)"/><path d=" M 2057.17 2458.49 C 1979.03 2379.14 1931.33 2269.84 1932.76 2149.66 C 1932.78 2148.19 1932.81 2146.71 1932.84 2145.24 C 1943.15 2195.53 1962 2244.26 1989.11 2289.63 C 2013.71 2330.79 2043.98 2367.27 2078.81 2398.25 L 2071.44 2398.25 C 2067.09 2416.14 2062.26 2436.34 2057.17 2458.49 L 2057.17 2458.49 Z " fill="rgb(185,175,190)"/><path d=" M 2661.55 2470.12 L 2661.55 2470.12 C 2658.29 2455.83 2655.12 2442.26 2652.11 2429.51 C 2698.91 2396.47 2738.58 2355.58 2769.71 2308.76 C 2746.16 2370.61 2708.85 2425.63 2661.55 2470.12 Z " fill="rgb(185,175,190)"/><path d=" M 2365.37 2587.45 C 2363.6 2587.45 2361.84 2587.44 2360.08 2587.42 C 2265.92 2586.25 2179.13 2555.13 2108.75 2503.15 C 2090.38 2489.66 2073.14 2474.69 2057.17 2458.49 L 2057.17 2458.49 L 2057.17 2458.49 C 2062.26 2436.34 2067.09 2416.14 2071.44 2398.25 L 2078.81 2398.25 C 2133.54 2446.93 2199.54 2482.03 2272.59 2500.43 C 2310.22 2509.9 2348.29 2514.59 2386.12 2514.59 C 2468.46 2514.59 2549.58 2492.37 2622.1 2449.03 C 2632.4 2442.87 2642.41 2436.36 2652.11 2429.51 C 2655.12 2442.26 2658.29 2455.83 2661.55 2470.12 L 2661.55 2470.12 L 2661.55 2470.12 C 2644.31 2486.31 2625.73 2501.11 2606.01 2514.34 C 2537.12 2560.57 2454.33 2587.45 2365.37 2587.45 Z " fill="rgb(185,175,190)"/><path d=" M 2784.42 2265.24 C 2779.5 2264.36 2776.22 2259.67 2777.09 2254.75 L 2822.65 1998.12 C 2823.52 1993.2 2828.22 1989.92 2833.14 1990.79 C 2884.76 1999.95 2919.18 2049.23 2910.01 2100.85 L 2894.48 2188.36 C 2885.32 2239.98 2836.04 2274.4 2784.42 2265.24 Z " fill="rgb(255,255,255)"/><path d=" M 2784.97 2262.16 C 2809.11 2266.43 2833.48 2261.07 2853.58 2247.03 C 2873.68 2232.99 2887.11 2211.96 2891.4 2187.82 L 2906.94 2100.3 C 2911.22 2076.16 2905.85 2051.79 2891.81 2031.69 C 2877.77 2011.59 2856.74 1998.16 2832.59 1993.87 C 2829.37 1993.31 2826.3 1995.45 2825.73 1998.66 L 2780.17 2255.29 C 2779.6 2258.51 2781.75 2261.59 2784.97 2262.16 Z  M 2801.22 2269.85 C 2795.46 2269.85 2789.66 2269.34 2783.87 2268.32 C 2780.67 2267.75 2777.88 2265.97 2776.02 2263.3 C 2774.15 2260.63 2773.44 2257.4 2774.01 2254.2 L 2819.57 1997.57 C 2820.74 1990.96 2827.08 1986.52 2833.69 1987.71 C 2859.47 1992.29 2881.94 2006.64 2896.94 2028.11 C 2911.93 2049.58 2917.67 2075.61 2913.09 2101.4 L 2897.56 2188.91 C 2892.98 2214.7 2878.63 2237.16 2857.16 2252.16 C 2840.51 2263.79 2821.12 2269.85 2801.22 2269.85 Z " fill="rgb(55,26,69)"/><path d=" M 2803.12 2249.29 C 2811.22 2231.97 2818.28 2214.07 2824.24 2195.65 C 2844.75 2194.54 2863.97 2186.77 2879.32 2174.14 L 2877.34 2185.32 C 2873.72 2205.71 2862.38 2223.46 2845.4 2235.32 C 2832.78 2244.14 2818.17 2248.93 2803.12 2249.29 Z " fill="rgb(185,175,190)"/><path d=" M 2787.46 2248.09 L 2787.49 2248.1 L 2787.47 2248.09 L 2787.46 2248.09 Z  M 2795.77 2249.12 C 2813.39 2250.38 2830.73 2245.57 2845.4 2235.32 C 2862.38 2223.46 2873.72 2205.71 2877.34 2185.32 L 2892.87 2097.81 C 2896.49 2077.42 2891.96 2056.84 2880.1 2039.87 C 2869.85 2025.2 2855.2 2014.74 2838.25 2009.83 L 2795.77 2249.12 Z  M 2801.25 2284.14 C 2794.65 2284.14 2788.01 2283.56 2781.38 2282.38 L 2781.38 2282.38 C 2774.42 2281.15 2768.36 2277.27 2764.31 2271.48 C 2760.26 2265.68 2758.71 2258.66 2759.95 2251.7 L 2805.51 1995.07 C 2806.74 1988.12 2810.61 1982.05 2816.41 1978.01 C 2822.2 1973.96 2829.22 1972.41 2836.19 1973.65 C 2865.73 1978.89 2891.46 1995.33 2908.64 2019.93 C 2925.83 2044.53 2932.4 2074.35 2927.16 2103.89 L 2911.62 2191.4 C 2906.38 2220.95 2889.94 2246.68 2865.34 2263.87 C 2846.26 2277.19 2824.04 2284.14 2801.25 2284.14 Z " fill="rgb(55,26,69)"/><path d=" M 1986.08 1840.42 L 1986.08 1840.42 C 1991 1841.29 1994.28 1845.99 1993.4 1850.91 L 1947.85 2107.53 C 1946.97 2112.46 1942.28 2115.74 1937.36 2114.86 C 1885.74 2105.7 1851.32 2056.42 1860.48 2004.8 L 1876.02 1917.29 C 1885.18 1865.67 1934.46 1831.25 1986.08 1840.42 Z " fill="rgb(255,255,255)"/><path d=" M 1969.29 1842.06 C 1950.66 1842.06 1932.51 1847.74 1916.92 1858.63 C 1896.81 1872.67 1883.38 1893.7 1879.1 1917.84 L 1863.56 2005.35 C 1859.27 2029.49 1864.65 2053.86 1878.69 2073.96 C 1892.73 2094.07 1913.76 2107.5 1937.9 2111.78 C 1941.13 2112.35 1944.2 2110.2 1944.77 2106.99 L 1990.32 1850.36 C 1990.89 1847.15 1988.74 1844.07 1985.53 1843.5 C 1980.11 1842.54 1974.68 1842.06 1969.29 1842.06 Z  M 1938.94 2118.13 C 1938.24 2118.13 1937.53 2118.07 1936.81 2117.94 C 1883.57 2108.49 1847.95 2057.49 1857.4 2004.26 L 1872.94 1916.75 C 1877.51 1890.96 1891.86 1868.49 1913.33 1853.5 C 1934.8 1838.5 1960.83 1832.75 1986.62 1837.34 C 1993.23 1838.51 1997.66 1844.85 1996.48 1851.46 L 1950.93 2108.08 C 1949.88 2113.98 1944.73 2118.13 1938.94 2118.13 Z " fill="rgb(55,26,69)"/><path d=" M 1925.29 2093.43 C 1891.82 2080.12 1871.09 2044.66 1877.62 2007.85 L 1879.64 1996.52 C 1890.16 2012.56 1905.5 2025.41 1924.03 2032.75 C 1923.1 2053.05 1923.53 2073.31 1925.29 2093.43 Z " fill="rgb(185,175,190)"/><path d=" M 1969.32 1856.35 C 1953.59 1856.35 1938.26 1861.14 1925.09 1870.33 C 1908.12 1882.19 1896.78 1899.95 1893.16 1920.33 L 1877.62 2007.85 C 1870.65 2047.15 1894.75 2084.91 1932.24 2095.82 L 1974.72 1856.54 C 1972.92 1856.41 1971.11 1856.35 1969.32 1856.35 Z  M 1938.95 2132.42 C 1937.42 2132.42 1935.87 2132.28 1934.31 2132 C 1873.32 2121.18 1832.51 2062.75 1843.34 2001.76 L 1858.87 1914.25 C 1864.12 1884.71 1880.55 1858.97 1905.16 1841.79 C 1929.76 1824.6 1959.57 1818.03 1989.12 1823.27 L 1989.12 1823.27 C 2003.49 1825.83 2013.1 1839.59 2010.55 1853.95 L 1964.99 2110.58 C 1962.71 2123.39 1951.53 2132.42 1938.95 2132.42 Z " fill="rgb(55,26,69)"/><path d=" M 2816.01 2161.29 C 2756.11 2399.16 2514.72 2543.44 2276.84 2483.54 C 2038.97 2423.64 1894.7 2182.25 1954.6 1944.38 C 2014.5 1706.51 2255.89 1562.23 2493.76 1622.13 C 2731.63 1682.03 2875.9 1923.42 2816.01 2161.29 Z " fill="rgb(255,255,255)"/><path d=" M 2385.34 1611.76 C 2188.05 1611.76 2007.95 1745.33 1957.63 1945.14 C 1928.86 2059.38 1946.31 2177.98 2006.74 2279.09 C 2067.18 2380.21 2163.37 2451.74 2277.61 2480.51 C 2391.84 2509.27 2510.44 2491.83 2611.56 2431.39 C 2712.68 2370.96 2784.21 2274.76 2812.97 2160.53 C 2841.74 2046.29 2824.3 1927.69 2763.86 1826.58 C 2703.42 1725.46 2607.23 1653.93 2492.99 1625.16 C 2457 1616.1 2420.88 1611.76 2385.34 1611.76 Z  M 2386.09 2500.3 C 2349.44 2500.3 2312.55 2495.76 2276.08 2486.57 C 2160.23 2457.4 2062.67 2384.86 2001.37 2282.31 C 1940.08 2179.75 1922.39 2059.47 1951.56 1943.62 C 2011.79 1704.45 2255.35 1558.87 2494.52 1619.1 C 2610.38 1648.27 2707.94 1720.82 2769.23 1823.37 C 2830.52 1925.92 2848.21 2046.2 2819.04 2162.06 C 2789.86 2277.91 2717.32 2375.47 2614.77 2436.77 C 2544.5 2478.77 2465.88 2500.3 2386.09 2500.3 Z " fill="rgb(55,26,69)"/><path d=" M 2386.05 2479.75 C 2351.08 2479.74 2315.88 2475.41 2281.1 2466.66 C 2174.14 2439.72 2086.8 2374.35 2030.1 2289 C 2055.55 2313.77 2088.09 2339.88 2125.96 2363.49 C 2174.2 2393.58 2231.07 2419.59 2292.98 2433.59 C 2339.25 2444.05 2384.57 2448.41 2427.14 2448.4 C 2440.04 2448.4 2452.69 2448.01 2465.03 2447.26 C 2513.77 2444.3 2557.81 2435.88 2594.09 2425.02 C 2529.66 2461.22 2458.37 2479.75 2386.05 2479.75 Z " fill="rgb(185,175,190)"/><path d=" M 2385.34 1626.05 C 2194.44 1626.05 2020.17 1755.28 1971.48 1948.63 C 1914.02 2176.81 2052.92 2409.2 2281.1 2466.66 C 2391.63 2494.49 2506.39 2477.61 2604.23 2419.14 C 2702.07 2360.66 2771.29 2267.58 2799.12 2157.04 L 2799.12 2157.04 C 2826.96 2046.5 2810.08 1931.75 2751.6 1833.9 C 2693.12 1736.06 2600.04 1666.85 2489.51 1639.02 C 2454.67 1630.24 2419.73 1626.05 2385.34 1626.05 Z  M 2386.12 2514.59 C 2348.29 2514.59 2310.22 2509.9 2272.59 2500.43 C 2153.04 2470.32 2052.36 2395.46 1989.11 2289.63 C 1925.86 2183.81 1907.61 2059.68 1937.71 1940.13 C 1999.86 1693.33 2251.21 1543.09 2498.01 1605.25 C 2617.56 1635.35 2718.24 1710.21 2781.49 1816.04 C 2844.74 1921.87 2863 2045.99 2832.89 2165.55 C 2802.79 2285.1 2727.92 2385.77 2622.1 2449.03 C 2549.58 2492.37 2468.46 2514.59 2386.12 2514.59 Z " fill="rgb(55,26,69)"/><path d=" M 2811.84 2172.01 C 2791.89 2256.6 2745.92 2328.66 2683.63 2382.57 C 2636.93 2422.98 2472.09 2474.11 2292.99 2433.57 C 2126.93 2395.99 1996.98 2272.08 1973.26 2215.06 C 1941.62 2139.01 1932.68 2053.99 1952.63 1969.4 C 2005.42 1745.54 2219.63 1698.09 2456.91 1754.04 C 2694.18 1809.99 2864.63 1948.15 2811.84 2172.01 Z " fill="rgb(55,26,69)"/><path d=" M 2665.18 2184.26 C 2659.28 2184.26 2653.48 2183.12 2648 2180.73 C 2619.16 2168.17 2609.84 2125.72 2627.17 2085.93 C 2641.21 2053.69 2668.43 2033.09 2693.59 2033.09 C 2699.5 2033.09 2705.3 2034.22 2710.78 2036.61 C 2734.09 2046.76 2744.65 2076.43 2738.69 2108.45 C 2731.03 2126.39 2722.37 2143.75 2712.8 2160.47 C 2698.87 2175.5 2681.59 2184.26 2665.18 2184.26 Z " fill="rgb(155,141,162)"/><path d=" M 2571.32 2278.97 C 2566.28 2278.97 2561.33 2277.68 2556.91 2274.97 C 2542.32 2266.04 2538.94 2245.03 2549.34 2228.03 C 2556.59 2216.2 2568.61 2209.44 2580.17 2209.44 C 2585.21 2209.44 2590.16 2210.73 2594.59 2213.44 C 2609.17 2222.37 2612.55 2243.38 2602.15 2260.37 C 2594.9 2272.2 2582.88 2278.97 2571.32 2278.97 Z " fill="rgb(155,141,162)"/><path d=" M 2810.58 2015.03 C 2803.11 1989.47 2791.94 1965.63 2777.53 1943.5 C 2777.53 1943.49 2777.53 1943.48 2777.53 1943.46 C 2791.95 1965.6 2803.11 1989.45 2810.58 2015.01 C 2810.58 2015.01 2810.58 2015.02 2810.58 2015.03 Z " fill="rgb(172,175,180)"/><path d=" M 2427.14 2448.4 C 2384.57 2448.41 2339.25 2444.05 2292.98 2433.59 C 2231.07 2419.59 2174.2 2393.58 2125.96 2363.49 C 2174.2 2393.55 2231.08 2419.56 2292.99 2433.57 C 2339.28 2444.05 2384.6 2448.4 2427.18 2448.4 C 2440.07 2448.4 2452.7 2448 2465.03 2447.26 C 2452.69 2448.01 2440.04 2448.4 2427.14 2448.4 Z " fill="rgb(126,123,138)"/><path d=" M 2600.16 2423.15 C 2600.19 2423.15 2600.2 2423.14 2600.22 2423.13 C 2600.2 2423.14 2600.19 2423.15 2600.16 2423.15 Z  M 2600.23 2423.13 C 2638.78 2411 2667.91 2396.18 2683.63 2382.57 C 2693 2374.45 2702.01 2365.93 2710.61 2357.01 C 2702.01 2365.93 2693.01 2374.46 2683.64 2382.57 C 2667.91 2396.18 2638.78 2411 2600.23 2423.13 Z  M 2815.26 2033.44 C 2813.91 2027.2 2812.35 2021.07 2810.58 2015.03 C 2810.58 2015.02 2810.58 2015.01 2810.58 2015.01 C 2812.35 2021.06 2813.91 2027.2 2815.26 2033.44 Z " fill="rgb(42,26,59)"/><path d=" M 2427.18 2448.4 C 2384.6 2448.4 2339.28 2444.05 2292.99 2433.57 C 2231.08 2419.56 2174.2 2393.55 2125.96 2363.49 C 2124.93 2362.84 2123.89 2362.19 2122.87 2361.54 C 2176.19 2372.41 2228.34 2377 2277.59 2377 C 2432.67 2377.01 2559.03 2331.51 2602.98 2293.46 C 2646.57 2255.74 2683.87 2211.01 2712.8 2160.47 C 2720.24 2152.45 2726.72 2142.64 2731.61 2131.42 C 2734.93 2123.78 2737.28 2116.05 2738.69 2108.45 C 2749.88 2082.26 2758.95 2054.81 2765.69 2026.23 C 2772.47 1997.56 2776.3 1969.98 2777.53 1943.5 C 2791.94 1965.63 2803.11 1989.47 2810.58 2015.03 C 2812.35 2021.07 2813.91 2027.2 2815.26 2033.44 C 2824.29 2075.29 2823.75 2121.46 2811.84 2171.99 C 2794.89 2243.87 2759.15 2306.68 2710.61 2357.01 C 2702.01 2365.93 2693 2374.45 2683.63 2382.57 C 2667.91 2396.18 2638.78 2411 2600.23 2423.13 L 2600.22 2423.13 C 2600.2 2423.14 2600.19 2423.15 2600.16 2423.15 C 2562.77 2434.91 2516.52 2444.13 2465.03 2447.26 C 2452.7 2448 2440.07 2448.4 2427.18 2448.4 Z " fill="rgb(42,26,59)"/><path d=" M 2712.8 2160.47 C 2722.37 2143.75 2731.03 2126.39 2738.69 2108.45 C 2737.28 2116.05 2734.93 2123.78 2731.61 2131.42 C 2726.72 2142.64 2720.24 2152.45 2712.8 2160.47 Z " fill="rgb(107,101,119)"/><path d=" M 2821.15 1981.97 C 2816.67 1981.97 2812.25 1979.97 2809.3 1976.13 L 2808.07 1974.53 L 2807.26 1972.6 C 2758.97 1854.44 2633 1763.49 2461.66 1723.09 C 2289.39 1682.47 2135.78 1709.46 2040.21 1797.15 L 2038.74 1798.34 C 2032.2 1803.02 2023.07 1801.72 2018.12 1795.29 C 2013.23 1788.92 2014.23 1779.89 2020.27 1774.74 C 2123.29 1680.47 2286.65 1650.99 2468.55 1693.89 C 2649.29 1736.51 2782.79 1833.82 2834.89 1960.92 C 2837.59 1967.09 2835.89 1974.56 2830.31 1978.85 C 2827.57 1980.95 2824.35 1981.97 2821.15 1981.97 Z " fill="rgb(55,26,69)"/><path d=" M 2017.71 2125.32 C 2017.71 2125.32 2000.45 1888.14 2140.22 1828.2 C 2196.74 1803.96 2258.4 1796.18 2311.35 1796.18 C 2389.35 1796.18 2448.47 1813.05 2444.54 1819.03 C 2444.54 1819.03 2244.15 1820.22 2134.64 1952.59 C 2050.2 2054.67 2017.71 2125.32 2017.71 2125.32 Z " fill="rgb(155,141,162)"/><path d=" M 2129.46 1382.28 C 2150.89 1407.88 2169.69 1492.52 2117.62 1524.08 C 2043.67 1568.91 1814.6 1502.81 1804.2 1389.9 C 1797.37 1315.79 1845.37 1314.18 1889.42 1311.8 C 1933.48 1309.42 2076.92 1319.55 2129.46 1382.28 Z " fill="rgb(255,169,44)"/><path d=" M 2126.59 1361.93 C 2144.13 1388.63 2152.62 1471.15 2099.64 1495.37 C 2024.41 1529.78 1814.04 1441.6 1816.66 1333.14 C 1818.38 1261.96 1864.18 1265.75 1906.3 1268.36 C 1948.43 1270.98 2083.62 1296.5 2126.59 1361.93 Z " fill="rgb(255,255,255)"/><path d=" M 2056.75 1502.92 C 1971.26 1502.72 1834.06 1435.5 1817.46 1351.82 C 1817.8 1352.13 1818.14 1352.44 1818.48 1352.75 C 1835.83 1435.71 1971.52 1502.31 2056.75 1502.92 Z " fill="rgb(185,119,53)"/><path d=" M 2057.13 1502.92 C 2057.01 1502.92 2056.88 1502.92 2056.75 1502.92 C 1971.52 1502.31 1835.83 1435.71 1818.48 1352.75 C 1861.53 1391.39 1937.59 1411.26 2002.35 1411.26 C 2044.19 1411.26 2081.33 1402.96 2101.78 1386.08 C 2111.84 1377.76 2118.15 1367.45 2121.63 1356.17 C 2123.11 1358.04 2124.5 1359.96 2125.77 1361.92 C 2143.31 1388.64 2151.8 1471.13 2098.82 1495.38 C 2087.56 1500.52 2073.28 1502.92 2057.13 1502.92 Z " fill="rgb(185,175,190)"/><path d=" M 2581.19 1352.48 C 2565.59 1380.35 2562.96 1463.26 2617.52 1483.68 C 2695.01 1512.68 2898.6 1409.83 2888.31 1301.83 C 2881.56 1230.95 2836.15 1237.97 2794.31 1243.56 C 2752.48 1249.15 2619.43 1284.17 2581.19 1352.48 Z " fill="rgb(255,255,255)"/><path d=" M 2627.46 1486.55 C 2623.96 1485.8 2620.64 1484.85 2617.53 1483.68 C 2616.65 1483.36 2615.79 1483.01 2614.94 1482.65 C 2615.79 1483.01 2616.65 1483.35 2617.52 1483.68 C 2620.64 1484.85 2623.96 1485.8 2627.46 1486.55 Z  M 2763.36 1456.54 C 2763.37 1456.54 2763.38 1456.53 2763.39 1456.53 C 2763.38 1456.53 2763.37 1456.54 2763.36 1456.54 Z  M 2763.58 1456.43 C 2763.64 1456.4 2763.68 1456.38 2763.73 1456.35 C 2763.68 1456.38 2763.63 1456.4 2763.58 1456.43 Z  M 2763.85 1456.29 C 2763.92 1456.26 2764 1456.22 2764.07 1456.18 C 2764 1456.22 2763.92 1456.26 2763.85 1456.29 Z  M 2764.12 1456.15 C 2764.22 1456.1 2764.32 1456.06 2764.41 1456.01 C 2764.32 1456.05 2764.22 1456.11 2764.12 1456.15 Z  M 2764.42 1456 C 2819.54 1427.84 2869.84 1384.33 2884.45 1336.96 C 2884.45 1336.96 2884.46 1336.96 2884.46 1336.95 C 2869.85 1384.33 2819.53 1427.85 2764.42 1456 Z " fill="rgb(185,151,46)"/><path d=" M 2884.45 1336.96 C 2886.11 1331.55 2887.32 1326.09 2888.01 1320.6 C 2888.01 1320.59 2888.02 1320.58 2888.02 1320.58 C 2887.33 1326.08 2886.13 1331.54 2884.46 1336.95 C 2884.46 1336.96 2884.45 1336.96 2884.45 1336.96 Z " fill="rgb(185,163,118)"/><path d=" M 2581.31 1352.27 C 2581.83 1351.33 2582.38 1350.4 2582.95 1349.48 C 2582.38 1350.41 2581.84 1351.33 2581.31 1352.27 Z " fill="rgb(26,141,190)"/><path d=" M 2649.19 1488.64 C 2641.39 1488.64 2634.1 1487.96 2627.46 1486.55 C 2623.96 1485.8 2620.64 1484.85 2617.52 1483.68 C 2616.65 1483.35 2615.79 1483.01 2614.94 1482.65 C 2563.06 1460.6 2565.85 1379.92 2581.2 1352.47 C 2581.24 1352.4 2581.28 1352.34 2581.31 1352.27 C 2581.84 1351.33 2582.38 1350.41 2582.95 1349.48 C 2583.58 1348.46 2584.24 1347.45 2584.92 1346.44 C 2589.19 1357.44 2596.22 1367.29 2606.84 1374.87 C 2624.76 1387.64 2653.73 1393.71 2686.92 1393.71 C 2756.1 1393.71 2843.66 1367.37 2888.01 1320.6 C 2887.32 1326.09 2886.11 1331.55 2884.45 1336.96 C 2869.84 1384.33 2819.54 1427.84 2764.42 1456 C 2764.41 1456.01 2764.42 1456 2764.41 1456.01 C 2764.32 1456.06 2764.22 1456.1 2764.12 1456.15 C 2764.1 1456.16 2764.09 1456.17 2764.07 1456.18 C 2764 1456.22 2763.92 1456.26 2763.85 1456.29 C 2763.8 1456.32 2763.78 1456.33 2763.73 1456.35 C 2763.68 1456.38 2763.64 1456.4 2763.58 1456.43 C 2763.52 1456.46 2763.45 1456.5 2763.39 1456.53 C 2763.38 1456.53 2763.37 1456.54 2763.36 1456.54 C 2723.89 1476.54 2682.07 1488.64 2649.19 1488.64 Z " fill="rgb(185,175,190)"/><path d=" M 2581.2 1352.48 L 2581.24 1352.48 L 2581.2 1352.48 Z  M 2829.79 1257.69 C 2819.95 1257.69 2809 1259.16 2798.23 1260.6 L 2796.62 1260.82 C 2755.01 1266.38 2630.27 1300.44 2596.39 1360.99 C 2589.21 1373.81 2584.47 1407.8 2594.69 1435.69 C 2600.57 1451.73 2610.3 1462.39 2623.62 1467.37 C 2662.53 1481.93 2746.17 1455.32 2806.28 1409.27 C 2850.57 1375.33 2874.15 1336.77 2870.98 1303.48 C 2869.14 1284.08 2864.04 1270.95 2855.85 1264.44 C 2849.44 1259.35 2840.24 1257.69 2829.79 1257.69 Z  M 2649.22 1506.07 C 2635.38 1506.07 2622.58 1504.17 2611.42 1499.99 C 2588.48 1491.4 2571.39 1473.32 2562 1447.67 C 2548.62 1411.15 2553.52 1366.27 2566 1343.98 C 2609.94 1265.48 2755.45 1231.19 2792.01 1226.3 L 2793.61 1226.09 C 2821.66 1222.32 2853.46 1218.07 2877.51 1237.18 C 2893.63 1249.98 2902.83 1270.58 2905.65 1300.18 C 2910.04 1346.35 2882.28 1394.9 2827.46 1436.91 C 2777.74 1475 2705.07 1506.07 2649.22 1506.07 Z " fill="rgb(55,26,69)"/><path d=" M 1880.9 1284.68 C 1866.77 1284.68 1854.11 1286.47 1846.4 1293.55 C 1838.68 1300.62 1834.54 1314.08 1834.07 1333.56 C 1833.26 1366.99 1859.51 1403.78 1906.09 1434.5 C 1969.31 1476.19 2054.63 1496.81 2092.4 1479.54 C 2105.34 1473.62 2114.29 1462.3 2119.02 1445.89 C 2127.24 1417.34 2120.11 1383.78 2112.04 1371.49 C 2073.96 1313.5 1947.12 1288.35 1905.22 1285.74 L 1903.6 1285.64 C 1895.96 1285.16 1888.23 1284.68 1880.9 1284.68 Z  M 2058 1520.35 C 2003.85 1520.35 1935.66 1495.71 1886.92 1463.57 C 1829.27 1425.55 1798.13 1379.08 1799.25 1332.72 C 1799.97 1303 1807.69 1281.79 1822.86 1267.89 C 1845.5 1247.13 1877.52 1249.12 1905.77 1250.89 L 1907.38 1250.99 C 1944.2 1253.27 2091.77 1277.19 2141.15 1352.37 C 2155.17 1373.73 2163.24 1418.15 2152.48 1455.53 C 2144.92 1481.77 2129.16 1501.02 2106.89 1511.21 C 2093.07 1517.52 2076.34 1520.35 2058 1520.35 Z " fill="rgb(55,26,69)"/><path d=" M 2574.11 3303.49 C 2488.04 3303.49 2403.84 3269.56 2397.94 3267.14 C 2391.55 3264.52 2388.51 3257.22 2391.13 3250.83 C 2393.75 3244.45 2401.05 3241.4 2407.44 3244.01 C 2409.7 3244.94 2634.74 3335.49 2710.41 3217.49 C 2714.14 3211.69 2721.86 3209.99 2727.68 3213.72 C 2733.49 3217.44 2735.18 3225.18 2731.45 3230.99 C 2695.65 3286.82 2634.42 3303.49 2574.11 3303.49 Z " fill="rgb(55,26,69)"/><path d=" M 2142.06 3303.49 C 2081.75 3303.49 2020.53 3286.83 1984.72 3230.99 C 1981 3225.18 1982.69 3217.44 1988.5 3213.72 C 1994.31 3209.99 2002.04 3211.68 2005.77 3217.49 C 2081.44 3335.5 2306.48 3244.95 2308.74 3244.01 C 2315.13 3241.41 2322.43 3244.45 2325.05 3250.83 C 2327.67 3257.22 2324.62 3264.52 2318.24 3267.14 C 2312.34 3269.56 2228.12 3303.49 2142.06 3303.49 Z " fill="rgb(55,26,69)"/></g></svg>