<?xml version="1.0" encoding="UTF-8" standalone="no"?><!-- Generator: Gravit.io --><svg xmlns="http://www.w3.org/2000/svg" xmlns:xlink="http://www.w3.org/1999/xlink" style="isolation:isolate" viewBox="0 0 2720 2700" width="2720pt" height="2700pt"><clipPath id="_clipPath_xEkRFaDeZBhGxmRjvVZNtypfHNAquQcJ"><path d=" M -800 -616.667 L -800 3383.333 L 3200 3383.333 L 3200 -616.667 L -800 -616.667 L -800 -616.667 Z " fill="rgb(255,255,255)"/></clipPath><g clip-path="url(#_clipPath_xEkRFaDeZBhGxmRjvVZNtypfHNAquQcJ)"><g><g><path d=" M 1694.52 1487.343 L 1694.52 2178.003 C 1694.52 2294.163 1599.46 2389.163 1483.35 2389.163 L 785.09 2389.163 C 668.98 2389.163 573.93 2294.163 573.93 2178.003 L 573.93 1487.343 C 573.93 1418.953 606.87 1357.933 657.63 1319.293 C 693.13 1292.253 737.33 1276.183 785.09 1276.183 L 1483.35 1276.183 C 1535.59 1276.183 1583.54 1295.433 1620.52 1327.183 C 1665.76 1365.963 1694.52 1423.423 1694.52 1487.343 Z " fill="rgb(255,255,255)"/><path d=" M 1483.33 1240.363 L 785.11 1240.363 C 648.93 1240.363 538.14 1351.153 538.14 1487.333 L 538.14 2178.013 C 538.14 2314.193 648.93 2424.983 785.11 2424.983 L 1483.33 2424.983 C 1619.51 2424.983 1730.3 2314.193 1730.3 2178.013 L 1730.3 1487.333 C 1730.3 1351.153 1619.51 1240.363 1483.33 1240.363 Z  M 1483.33 1276.163 C 1599.47 1276.163 1694.5 1371.193 1694.5 1487.333 L 1694.5 2178.013 C 1694.5 2294.153 1599.47 2389.173 1483.33 2389.173 L 785.11 2389.173 C 668.97 2389.173 573.95 2294.153 573.95 2178.013 L 573.95 1487.333 C 573.95 1371.193 668.97 1276.163 785.11 1276.163 L 1483.33 1276.163 L 1483.33 1276.163 Z " fill="rgb(55,26,69)"/><path d=" M 1399.71 1251.463 C 1659.79 1340.773 1678.99 1546.723 1858.91 1666.283 C 1936.79 1718.023 2018.14 1705.393 2115.29 1679.323 C 2167.07 1665.433 2191.92 1716.763 2195.32 1804.643 C 2200.06 1927.063 2157.94 2013.683 1903.17 2018.653 C 1606.23 2024.453 1554.82 1672.923 1554.82 1672.923 L 1399.71 1251.463 L 1399.71 1251.463 Z " fill="rgb(255,255,255)"/><path d=" M 1895.31 2000.833 C 1820.26 2000.833 1755.99 1976.513 1703.27 1928.463 C 1703.33 1923.583 1702.99 1918.663 1702.26 1913.733 C 1696.58 1875.293 1668.21 1845.573 1632.13 1837.233 C 1627.79 1829.573 1623.74 1821.903 1619.97 1814.293 C 1619.57 1812.583 1619.17 1810.883 1618.76 1809.183 C 1605.17 1747.233 1587.64 1685.913 1560.61 1627.893 C 1559.63 1625.813 1557.51 1624.403 1555.13 1624.403 C 1554.93 1624.403 1554.73 1624.413 1554.53 1624.443 C 1554.16 1624.473 1553.81 1624.543 1553.47 1624.643 C 1552.19 1620.193 1550.89 1615.743 1549.57 1611.283 C 1645.32 1702.173 1647.29 1924.673 1894.91 1924.673 C 1897.65 1924.673 1900.37 1924.653 1903.17 1924.593 C 1960.02 1923.483 2006.28 1918.313 2043.8 1909.583 C 2051.18 1920.483 2059.65 1930.753 2069.16 1940.283 C 2078.63 1949.743 2088.85 1958.173 2099.68 1965.523 C 2055.46 1987.453 1990.4 1999.043 1902.82 2000.753 C 1900.3 2000.803 1897.8 2000.833 1895.31 2000.833 Z " fill="rgb(185,175,190)"/><path d=" M 1896.07 2036.633 C 1771.13 2036.633 1669.61 1974.603 1602.11 1856.863 C 1551.04 1767.783 1537.65 1679.243 1537.11 1675.513 C 1535.67 1665.733 1542.45 1656.643 1552.23 1655.203 C 1562 1653.803 1571.1 1660.553 1572.53 1670.333 C 1572.66 1671.173 1585.71 1756.703 1633.68 1839.943 C 1696.49 1948.913 1787.1 2003.223 1902.82 2000.753 C 2024.35 1998.383 2102.53 1976.983 2141.82 1935.323 C 2168.82 1906.703 2179.81 1866.613 2177.44 1805.343 C 2174.56 1731.093 2157.11 1707.463 2146.96 1699.993 C 2142.42 1696.653 2134.69 1692.663 2119.93 1696.623 C 2026.94 1721.573 1936.24 1739.153 1849.01 1681.193 C 1773.14 1630.783 1724.57 1565.143 1677.6 1501.663 C 1608.29 1408.003 1542.83 1319.543 1393.9 1268.393 C 1384.54 1265.183 1379.57 1255.003 1382.78 1245.653 C 1385.99 1236.303 1396.16 1231.323 1405.52 1234.533 C 1564.99 1289.293 1636.87 1386.423 1706.38 1480.363 C 1753.6 1544.163 1798.19 1604.433 1868.82 1651.363 C 1936.91 1696.613 2006.34 1690.013 2110.65 1662.043 C 2132.31 1656.233 2152.21 1659.373 2168.2 1671.163 C 2195.43 1691.233 2210.58 1735.903 2213.21 1803.953 C 2215.08 1852.203 2211.61 1913.523 2167.87 1959.893 C 2120.98 2009.583 2036.98 2033.943 1903.51 2036.553 C 1901.03 2036.603 1898.54 2036.633 1896.07 2036.633 Z " fill="rgb(55,26,69)"/><path d=" M 867.78 1251.463 C 607.7 1340.773 570.1 1553.853 393.05 1677.623 C 340.21 1714.563 267.45 1734.813 152.296 1716.793 C 99.329 1708.503 36.356 1701.123 25.457 1788.393 C 16.599 1859.313 139.24 2019.153 364.33 2018.653 C 661.32 2017.993 712.67 1672.923 712.67 1672.923 L 867.78 1251.463 L 867.78 1251.463 Z " fill="rgb(255,255,255)"/><path d=" M 364.29 2000.753 C 363.93 2000.753 363.6 2000.753 363.24 2000.753 C 205.96 2000.753 118.478 1921.133 88.136 1886.843 C 72.842 1869.553 62.108 1853.203 54.95 1838.663 C 106.465 1913.653 218.89 1957.503 368.33 1957.503 C 368.87 1957.503 369.41 1957.503 369.95 1957.503 C 536.9 1957.143 584.13 1855.703 627.86 1760.543 C 634.59 1780.653 639.18 1802.053 640.59 1824.493 C 638.34 1828.653 635.98 1832.843 633.54 1837.013 C 596.94 1845.023 568.1 1874.913 562.36 1913.743 C 561.7 1918.213 561.36 1922.673 561.35 1927.103 C 513.56 1969.793 449.55 2000.563 364.29 2000.753 Z  M 657.47 1771.933 C 653.61 1756.833 648.6 1742.363 642.76 1728.603 C 658.85 1695.153 676.21 1664.133 700.35 1640.613 C 695.95 1649.683 692 1658.893 688.27 1668.183 C 682.17 1683.033 676.83 1698.133 672.61 1713.503 C 668.22 1728.843 664.01 1744.233 660.27 1759.733 C 659.27 1763.783 658.35 1767.853 657.47 1771.933 Z " fill="rgb(185,175,190)"/><path d=" M 363.24 2036.563 C 191.375 2036.563 94.881 1948.493 61.319 1910.563 C 23.367 1867.673 3.322 1821.173 7.693 1786.173 C 11.966 1751.963 24.329 1726.933 44.441 1711.783 C 77.395 1686.953 122.286 1693.973 155.061 1699.113 C 253.2 1714.453 325.55 1702.973 382.8 1662.953 C 450.6 1615.553 496.92 1555.063 545.96 1491.013 C 621.55 1392.313 699.71 1290.253 861.97 1234.533 C 871.31 1231.323 881.5 1236.303 884.71 1245.653 C 887.92 1255.003 882.95 1265.183 873.59 1268.393 C 721.56 1320.603 646.75 1418.303 574.39 1512.783 C 525.85 1576.173 475.66 1641.723 403.31 1692.293 C 338.9 1737.323 255.9 1751.133 149.527 1734.483 C 116.495 1729.313 85.243 1725.883 65.988 1740.383 C 53.736 1749.613 46.29 1766.043 43.221 1790.603 C 40.926 1808.993 51.31 1845.223 88.136 1886.843 C 118.478 1921.133 205.96 2000.753 363.24 2000.753 C 363.6 2000.753 363.93 2000.753 364.29 2000.753 C 642.66 2000.133 694.47 1673.583 694.96 1670.283 C 696.42 1660.503 705.52 1653.713 715.31 1655.213 C 725.09 1656.673 731.83 1665.783 730.38 1675.563 C 729.83 1679.213 716.45 1766.213 665.37 1854.503 C 596.62 1973.313 492.54 2036.273 364.37 2036.553 C 364 2036.563 363.61 2036.563 363.24 2036.563 Z " fill="rgb(55,26,69)"/><path d=" M 653.55 1851.553 C 646.65 1851.553 641.05 1845.953 641.05 1839.053 C 641.05 1690.703 497.91 1584.323 496.47 1583.263 C 490.89 1579.193 489.68 1571.373 493.74 1565.803 C 497.81 1560.233 505.62 1559.003 511.2 1563.073 C 517.52 1567.683 666.05 1677.843 666.05 1839.053 C 666.05 1845.953 660.46 1851.553 653.55 1851.553 Z " fill="rgb(55,26,69)"/><path d=" M 172.144 1734.543 C 125.139 1680.233 175.064 1646.273 225.25 1675.013 C 270.85 1701.123 311.58 1732.603 363.29 1717.643 C 363.29 1717.643 359.37 1750.483 317.85 1786.513 C 276.33 1822.553 172.144 1734.543 172.144 1734.543 Z " fill="rgb(255,255,255)"/><path d=" M 158.607 1746.263 C 149.189 1736.573 140.233 1725.003 135.724 1708.663 C 133.578 1700.573 132.657 1690.943 135.546 1681.073 C 136.796 1676.163 139.219 1671.423 142.066 1667.143 C 145.041 1662.923 148.716 1659.313 152.646 1656.443 C 160.561 1650.683 169.247 1647.803 177.482 1646.563 C 185.777 1645.393 193.684 1645.943 201.14 1647.333 C 208.6 1648.723 215.59 1651.183 222.05 1654.293 C 225.26 1655.883 228.43 1657.523 231.4 1659.393 C 232.99 1660.323 234.31 1661.183 235.53 1662.013 L 239.32 1664.533 C 259.44 1677.973 277.82 1692.153 297.65 1702.483 C 307.53 1707.703 317.82 1711.723 328.68 1714.063 C 339.52 1716.343 350.95 1716.723 362.57 1715.193 L 362.61 1715.183 C 364.02 1715.003 365.32 1715.993 365.51 1717.403 C 365.66 1718.563 365.01 1719.653 364 1720.103 C 352.79 1725.083 340.23 1727.943 327.44 1728.083 C 314.63 1728.353 301.82 1725.913 289.71 1722.273 C 265.45 1714.733 243.88 1702.783 223.03 1692.393 L 219.13 1690.433 C 217.79 1689.743 216.53 1689.133 215.49 1688.703 C 213.29 1687.673 211.04 1686.863 208.82 1686.073 C 204.35 1684.573 199.85 1683.723 195.59 1683.273 C 187.053 1682.353 179.224 1684.633 176.027 1687.453 C 174.481 1688.933 173.774 1689.943 173.339 1691.603 C 172.854 1693.173 172.827 1695.823 173.54 1699.173 C 174.326 1702.493 175.806 1706.443 177.93 1710.453 C 180.054 1714.493 182.805 1718.623 185.68 1722.833 L 186.252 1723.673 C 191.834 1731.843 189.732 1742.993 181.562 1748.573 C 174.254 1753.563 164.565 1752.403 158.607 1746.263 Z " fill="rgb(55,26,69)"/><path d=" M 385.22 1912.063 C 376.9 1912.873 367.98 1912.253 359.6 1909.023 C 351.23 1905.803 343.78 1900.413 337.56 1894.393 C 331.21 1888.403 325.92 1881.833 320.84 1875.363 L 305.97 1856.243 C 296.22 1843.723 285.92 1832.163 274.79 1821.693 C 263.67 1811.113 251.56 1802.113 238.72 1793.643 C 225.18 1784.613 212.11 1776.263 198.727 1768.803 C 185.357 1761.363 171.719 1754.933 157.832 1749.723 C 130.039 1739.033 101.063 1735.043 71.629 1735.803 L 71.152 1735.813 C 61.259 1736.063 53.032 1728.253 52.778 1718.363 C 52.543 1709.203 59.214 1701.483 68.045 1700.173 C 102.943 1694.963 139.672 1700.143 171.913 1713.533 C 204.43 1726.433 232.65 1747.163 257.63 1767.483 C 270.99 1777.893 283.57 1789.963 294.6 1802.923 C 305.81 1815.803 315.11 1830.073 323.57 1844.213 C 331.97 1858.403 339.19 1872.863 347.99 1885.073 C 352.43 1891.163 357.55 1896.393 363.79 1900.173 C 370.06 1903.833 377.41 1906.093 385.22 1906.943 L 385.25 1906.953 C 386.66 1907.103 387.68 1908.373 387.53 1909.783 C 387.39 1911.013 386.41 1911.943 385.22 1912.063 Z " fill="rgb(55,26,69)"/><path d=" M 1664.07 2375.963 L 604.36 2375.963 C 604.36 2375.963 603.2 2257.553 624.06 2081.703 C 627.78 2050.153 632.23 2016.713 637.57 1981.763 C 660.95 1827.663 700.71 1644.383 768.41 1462.223 C 778.59 1434.813 789.42 1407.453 800.88 1380.203 C 810.02 1358.563 819.54 1337.043 829.56 1315.633 C 836.84 1299.953 844.39 1284.353 852.17 1268.833 L 1416.3 1268.833 C 1424.08 1284.353 1431.63 1299.953 1438.91 1315.633 C 1449.05 1337.273 1458.68 1359.103 1467.9 1380.973 C 1481.02 1412.173 1493.29 1443.523 1504.75 1474.883 C 1569.58 1652.853 1608.06 1831.223 1630.86 1981.723 C 1636.2 2016.793 1640.65 2050.353 1644.41 2082.013 C 1665.23 2257.703 1664.07 2375.963 1664.07 2375.963 Z " fill="rgb(255,255,255)"/><path d=" M 1169.24 2138.373 C 1144.41 2133.633 1121.35 2128.863 1099.8 2124.063 L 1226.85 2124.063 C 1208.88 2128.873 1189.74 2133.643 1169.24 2138.373 Z  M 1422.48 2056.053 C 1425.21 2047.153 1426.68 2037.703 1426.68 2027.913 L 1426.68 2019.023 C 1448.29 2022.943 1471.37 2024.973 1494.7 2025.673 C 1469.57 2036.123 1446 2046.233 1422.48 2056.053 Z  M 807.02 2027.563 C 805.58 2026.953 804.14 2026.343 802.7 2025.733 C 801.39 2025.183 800.08 2024.623 798.77 2024.073 C 801.53 2023.843 804.28 2023.593 807.02 2023.313 L 807.02 2027.563 L 807.02 2027.563 Z  M 703.06 1836.603 C 695.94 1836.433 688.95 1836.233 682.11 1835.993 C 683.71 1828.753 685.37 1821.543 687.09 1814.333 L 689.46 1804.093 C 693.59 1815.113 698.13 1825.963 703.06 1836.603 Z  M 1566.24 1836.483 C 1570.96 1826.303 1575.32 1815.913 1579.31 1805.373 C 1580.06 1809.263 1580.81 1813.153 1581.54 1817.053 C 1582.84 1823.323 1584.11 1829.603 1585.36 1835.893 C 1579.11 1836.113 1572.73 1836.313 1566.24 1836.483 Z " fill="rgb(185,175,190)"/><path d=" M 1560.61 1627.893 C 1587.64 1685.913 1605.17 1747.233 1618.76 1809.183 C 1626.18 1840.053 1631.43 1871.363 1637.04 1902.583 C 1639.7 1918.213 1641.9 1933.923 1644.35 1949.593 L 1648.02 1973.083 L 1651.26 1996.643 L 1657.63 2043.773 L 1663.45 2090.963 C 1666.9 2122.473 1670.22 2154.003 1672.81 2185.603 C 1678.07 2248.913 1681.72 2311.893 1681.97 2376.123 L 1682.04 2393.853 L 1664.07 2393.853 L 1125.2 2393.853 L 1125.2 2358.043 L 1143.24 2358.043 L 1143.24 2393.853 L 604.38 2393.853 L 586.41 2393.853 L 586.47 2376.123 C 586.72 2311.583 590.4 2248.313 595.71 2184.693 C 601.06 2121.213 608.25 2057.883 617.66 1994.873 L 621.07 1971.223 L 624.96 1947.653 C 627.61 1931.943 630.02 1916.203 632.88 1900.523 C 638.9 1869.233 644.36 1837.843 650.63 1806.583 C 653.75 1790.953 656.45 1775.223 660.27 1759.733 C 664.01 1744.233 668.22 1728.843 672.61 1713.503 C 676.83 1698.133 682.17 1683.033 688.27 1668.183 C 694.24 1653.303 700.8 1638.603 708.84 1624.403 C 710.51 1621.453 714.26 1620.423 717.2 1622.093 C 719.23 1623.243 720.35 1625.363 720.31 1627.533 L 720.31 1627.713 C 719.69 1660.403 713.46 1691.243 707.69 1722.233 C 704.64 1737.683 701.41 1753.073 697.71 1768.353 L 687.09 1814.333 C 672.47 1875.563 662.47 1937.813 653.08 2000.063 C 643.78 2062.343 636.68 2124.953 631.39 2187.693 C 626.14 2250.313 622.52 2313.613 622.28 2375.773 L 604.38 2358.043 L 1143.24 2358.043 L 1143.24 2393.853 L 1125.2 2393.853 L 1125.2 2358.043 L 1664.07 2358.043 L 1646.16 2375.773 C 1645.93 2313.913 1642.33 2250.913 1637.13 2188.593 C 1631.79 2126.173 1625.06 2063.803 1615.41 2001.873 L 1611.92 1978.633 L 1607.93 1955.473 C 1605.15 1940.063 1602.62 1924.603 1599.63 1909.223 C 1593.47 1878.513 1587.9 1847.703 1581.54 1817.053 C 1569.95 1755.433 1555.53 1694.713 1549.13 1631.193 L 1549.12 1631.053 C 1548.78 1627.733 1551.21 1624.773 1554.53 1624.443 C 1557.15 1624.173 1559.55 1625.643 1560.61 1627.893 Z " fill="rgb(55,26,69)"/><path d=" M 881.21 1988.483 C 815.55 2015.063 713.94 2009.503 644.67 2001.123 C 603.12 1996.093 573.95 1957.753 580.07 1916.353 L 580.07 1916.353 C 585.66 1878.573 618.91 1851.103 657.06 1852.883 C 721.86 1855.923 819.05 1857.343 880.6 1843.693 L 881.21 1988.483 L 881.21 1988.483 Z " fill="rgb(255,255,255)"/><path d=" M 750.13 1990.093 C 738.55 1990.093 726.51 1989.793 714.05 1989.173 C 709.14 1987.243 704.15 1985.293 699.07 1983.333 C 675.07 1974.063 650.16 1969.623 625.34 1969.623 C 622.37 1969.623 619.41 1969.683 616.44 1969.813 C 613.65 1967.363 611.08 1964.603 608.77 1961.573 C 599.43 1949.343 595.53 1934.203 597.78 1918.963 C 598.25 1915.793 598.97 1912.713 599.93 1909.743 C 611.38 1921.713 626.89 1929.953 644.67 1932.113 C 675.64 1935.873 713.09 1939.063 750.9 1939.063 C 769.77 1939.063 788.73 1938.263 807.02 1936.353 L 807.02 1987.243 C 789.64 1989.143 770.61 1990.093 750.13 1990.093 Z " fill="rgb(185,175,190)"/><path d=" M 881.21 1988.493 L 881.26 1988.493 L 881.21 1988.493 L 881.21 1988.493 Z  M 653.52 1870.703 C 625.62 1870.703 601.91 1891.033 597.78 1918.963 C 595.53 1934.203 599.43 1949.343 608.77 1961.573 C 618.08 1973.773 631.59 1981.503 646.81 1983.343 C 745.8 1995.333 826.65 1991.263 874.49 1971.893 C 888.27 1966.313 892.39 1943.953 893.52 1934.603 C 897.57 1901.103 887.48 1869.783 881.03 1861.913 C 818.58 1874.973 724.63 1873.973 656.22 1870.773 C 655.32 1870.733 654.42 1870.703 653.52 1870.703 Z  M 750.68 2025.953 C 712.66 2025.953 674.87 2022.813 642.52 2018.893 C 617.62 2015.883 595.52 2003.243 580.3 1983.293 C 565.06 1963.313 558.68 1938.613 562.36 1913.743 C 569.33 1866.623 610.3 1832.663 657.9 1835.003 C 725.41 1838.163 818.17 1839.193 876.72 1826.213 C 886.02 1824.153 909.15 1824.063 922.73 1867.723 C 936.46 1911.873 934.89 1986.063 887.93 2005.083 L 887.93 2005.083 C 849.36 2020.693 799.83 2025.953 750.68 2025.953 Z " fill="rgb(55,26,69)"/><path d=" M 1619.96 2001.113 C 1587.46 2005.053 1547.79 2008.373 1508.07 2008.003 C 1505.34 2008.003 1502.64 2007.953 1499.91 2007.873 C 1497.05 2007.833 1494.15 2007.753 1491.28 2007.623 C 1489.34 2007.583 1487.43 2007.503 1485.56 2007.423 C 1483.28 2007.293 1481.05 2007.173 1478.81 2007.043 C 1475.95 2006.883 1473.09 2006.673 1470.27 2006.463 L 1470.06 2006.463 C 1467.24 2006.263 1464.38 2006.013 1461.56 2005.723 C 1459.7 2005.553 1457.83 2005.343 1456.01 2005.143 C 1454.43 2005.013 1452.86 2004.803 1451.32 2004.643 C 1448.88 2004.353 1446.43 2004.023 1444.07 2003.683 C 1441.79 2003.353 1439.55 2003.023 1437.35 2002.653 C 1436.9 2002.613 1436.44 2002.573 1436.03 2002.443 C 1433.42 2002.073 1430.85 2001.613 1428.32 2001.113 C 1425.75 2000.663 1423.22 2000.163 1420.73 1999.623 C 1420.52 1999.583 1420.32 1999.543 1420.11 1999.503 C 1418.7 1999.173 1417.29 1998.883 1415.92 1998.543 C 1414.39 1998.213 1412.86 1997.843 1411.32 1997.433 L 1411.28 1997.433 C 1406.6 1996.263 1401.99 1994.943 1397.52 1993.533 C 1395.11 1992.783 1392.71 1991.953 1390.35 1991.123 C 1387.98 1990.303 1385.66 1989.383 1383.42 1988.473 L 1383.71 1918.963 L 1384.05 1843.683 C 1399.8 1847.203 1417.91 1849.693 1437.19 1851.433 C 1493.23 1856.533 1559.35 1855.123 1607.56 1852.883 C 1608.72 1852.843 1609.88 1852.803 1611.08 1852.803 C 1647.73 1852.803 1679.15 1879.743 1684.54 1916.343 C 1690.67 1957.763 1661.49 1996.103 1619.96 2001.113 Z " fill="rgb(255,255,255)"/><path d=" M 1514.49 1990.093 C 1481.07 1990.093 1451.48 1987.553 1426.68 1982.513 L 1426.68 1926.163 C 1427.22 1926.263 1427.77 1926.363 1428.32 1926.463 C 1430.85 1926.953 1433.42 1927.413 1436.03 1927.783 C 1436.45 1927.913 1436.9 1927.953 1437.36 1927.993 C 1439.56 1928.363 1441.79 1928.703 1444.07 1929.033 C 1446.44 1929.363 1448.88 1929.693 1451.33 1929.983 C 1452.86 1930.153 1454.44 1930.353 1456.01 1930.483 C 1457.84 1930.683 1459.7 1930.893 1461.57 1931.063 C 1464.39 1931.353 1467.25 1931.603 1470.06 1931.803 L 1470.27 1931.803 C 1473.09 1932.013 1475.95 1932.223 1478.81 1932.393 C 1481.05 1932.513 1483.29 1932.633 1485.57 1932.763 C 1487.43 1932.843 1489.34 1932.923 1491.29 1932.973 C 1494.15 1933.093 1497.05 1933.173 1499.91 1933.213 C 1502.65 1933.303 1505.34 1933.343 1508.08 1933.343 C 1510.13 1933.363 1512.18 1933.373 1514.23 1933.373 C 1551.87 1933.373 1589.14 1930.193 1619.96 1926.463 C 1636.96 1924.413 1651.9 1916.773 1663.19 1905.623 C 1664.91 1909.813 1666.15 1914.283 1666.84 1918.973 C 1669.1 1934.213 1665.2 1949.343 1655.86 1961.573 C 1646.55 1973.773 1633.03 1981.503 1617.81 1983.343 C 1580.53 1987.863 1545.83 1990.093 1514.49 1990.093 Z " fill="rgb(185,175,190)"/><path d=" M 1390.13 1971.893 C 1437.97 1991.263 1518.82 1995.333 1617.81 1983.343 C 1633.03 1981.503 1646.55 1973.773 1655.86 1961.573 C 1665.2 1949.343 1669.1 1934.213 1666.84 1918.973 C 1662.58 1890.133 1637.52 1869.523 1608.4 1870.773 C 1539.99 1873.973 1446.05 1874.983 1383.6 1861.903 C 1377.14 1869.783 1367.06 1901.103 1371.1 1934.603 C 1372.23 1943.953 1376.35 1966.313 1390.13 1971.893 Z  M 1513.95 2025.953 C 1464.79 2025.953 1415.27 2020.703 1376.7 2005.083 L 1376.7 2005.083 C 1329.73 1986.063 1328.17 1911.873 1341.9 1867.723 C 1355.47 1824.053 1378.59 1824.123 1387.9 1826.213 C 1446.45 1839.203 1539.22 1838.153 1606.73 1835.003 C 1654.27 1832.613 1695.3 1866.623 1702.26 1913.733 C 1705.94 1938.613 1699.57 1963.323 1684.32 1983.303 C 1669.1 2003.243 1647.01 2015.883 1622.11 2018.893 C 1589.76 2022.813 1551.96 2025.953 1513.95 2025.953 Z " fill="rgb(55,26,69)"/><path d=" M 1408.79 1795.843 L 1408.79 2027.883 C 1408.79 2070.933 1373.55 2106.173 1330.5 2106.173 L 903.16 2106.173 C 860.16 2106.173 824.92 2070.933 824.92 2027.883 L 824.92 1795.843 C 824.92 1752.783 860.16 1717.603 903.16 1717.603 L 1330.5 1717.603 C 1355.84 1717.603 1378.47 1729.813 1392.82 1748.623 C 1402.83 1761.753 1408.79 1778.133 1408.79 1795.843 Z " fill="rgb(255,255,255)"/><path d=" M 1330.53 2088.263 L 965.78 2088.263 C 920.67 2073.863 882.47 2058.983 844.85 2043.423 C 843.53 2038.473 842.83 2033.273 842.83 2027.913 L 842.83 1967.363 C 894.06 2026.503 1000.52 2054.763 1101.64 2054.763 C 1119.46 2054.763 1137.09 2053.883 1154.24 2052.143 C 1182.82 2049.253 1203.27 2022.093 1196.45 1994.183 C 1194.41 1985.843 1193.32 1977.023 1193.32 1967.873 C 1193.32 1952.363 1196.47 1937.753 1202.03 1924.953 C 1208.12 1955.963 1235.45 1979.353 1268.24 1979.353 C 1301.04 1979.353 1328.38 1955.953 1334.46 1924.933 C 1339.44 1936.373 1342.49 1949.263 1343.09 1962.943 C 1371.79 1925.423 1385.3 1880.793 1390.87 1838.673 L 1390.87 2027.913 C 1390.87 2052.173 1376.48 2073.133 1355.79 2082.713 C 1352.95 2083.783 1350.09 2084.853 1347.2 2085.913 C 1341.9 2087.443 1336.31 2088.263 1330.53 2088.263 Z " fill="rgb(185,175,190)"/><path d=" M 903.18 1735.483 C 869.9 1735.483 842.83 1762.563 842.83 1795.833 L 842.83 2027.913 C 842.83 2061.193 869.9 2088.263 903.18 2088.263 L 1330.53 2088.263 C 1363.8 2088.263 1390.87 2061.193 1390.87 2027.913 L 1390.87 1795.833 C 1390.87 1762.563 1363.8 1735.483 1330.53 1735.483 L 903.18 1735.483 L 903.18 1735.483 Z  M 1330.53 2124.063 L 903.18 2124.063 C 850.15 2124.063 807.02 2080.933 807.02 2027.913 L 807.02 1795.833 C 807.02 1742.823 850.15 1699.683 903.18 1699.683 L 1330.53 1699.683 C 1383.54 1699.683 1426.68 1742.823 1426.68 1795.833 L 1426.68 2027.913 C 1426.68 2080.933 1383.54 2124.063 1330.53 2124.063 Z " fill="rgb(55,26,69)"/><path d=" M 1335.73 1911.873 C 1335.73 1949.143 1305.51 1979.353 1268.24 1979.353 C 1230.97 1979.353 1200.76 1949.143 1200.76 1911.873 C 1200.76 1874.603 1230.97 1844.393 1268.24 1844.393 C 1305.51 1844.393 1335.73 1874.603 1335.73 1911.873 Z " fill="rgb(34,167,240)"/><path d=" M 1335.74 1911.893 C 1335.74 1915.553 1335.46 1919.143 1334.86 1922.643 C 1329.72 1890.473 1301.85 1865.903 1268.24 1865.903 C 1234.63 1865.903 1206.76 1890.473 1201.62 1922.643 C 1201.02 1919.143 1200.74 1915.553 1200.74 1911.893 C 1200.74 1874.623 1230.97 1844.393 1268.24 1844.393 C 1305.51 1844.393 1335.74 1874.623 1335.74 1911.893 Z " fill="rgb(255,255,255)"/><path d=" M 1268.23 1979.333 C 1234.59 1979.333 1206.71 1954.723 1201.6 1922.523 C 1201.61 1922.563 1201.61 1922.603 1201.62 1922.643 C 1203.03 1913.783 1206.17 1905.503 1210.68 1898.153 C 1222.49 1917.523 1243.85 1930.433 1268.23 1930.433 C 1292.62 1930.433 1313.99 1917.513 1325.8 1898.143 C 1330.3 1905.493 1333.44 1913.763 1334.85 1922.613 C 1329.71 1954.763 1301.84 1979.333 1268.23 1979.333 Z " fill="rgb(41,118,180)"/><path d=" M 1201.62 1922.643 C 1201.61 1922.603 1201.61 1922.563 1201.6 1922.523 C 1201.05 1919.043 1200.76 1915.483 1200.76 1911.863 C 1200.76 1903.243 1202.38 1895.023 1205.39 1887.443 C 1206.84 1891.183 1208.61 1894.773 1210.68 1898.153 C 1206.17 1905.503 1203.03 1913.783 1201.62 1922.643 Z  M 1334.85 1922.613 C 1333.44 1913.763 1330.3 1905.493 1325.8 1898.143 C 1327.86 1894.763 1329.63 1891.183 1331.08 1887.443 C 1334.09 1895.023 1335.71 1903.243 1335.71 1911.863 C 1335.71 1915.523 1335.42 1919.113 1334.85 1922.613 Z " fill="rgb(185,175,190)"/><path d=" M 1268.24 1857.823 C 1238.44 1857.823 1214.19 1882.063 1214.19 1911.873 C 1214.19 1941.683 1238.44 1965.933 1268.24 1965.933 C 1298.05 1965.933 1322.3 1941.683 1322.3 1911.873 C 1322.3 1882.063 1298.05 1857.823 1268.24 1857.823 Z  M 1268.24 1992.783 C 1223.63 1992.783 1187.33 1956.483 1187.33 1911.873 C 1187.33 1867.263 1223.63 1830.963 1268.24 1830.963 C 1312.86 1830.963 1349.15 1867.263 1349.15 1911.873 C 1349.15 1956.483 1312.86 1992.783 1268.24 1992.783 Z " fill="rgb(55,26,69)"/><path d=" M 1077 2121.163 C 1068.72 2121.163 1062 2114.443 1062 2106.163 L 1062 1994.183 C 1062 1965.383 1048.26 1937.833 1025.25 1920.503 C 994.75 1897.543 976.54 1861.043 976.54 1822.863 L 976.54 1717.583 C 976.54 1709.303 983.25 1702.583 991.54 1702.583 C 999.82 1702.583 1006.54 1709.303 1006.54 1717.583 L 1006.54 1822.863 C 1006.54 1851.673 1020.28 1879.213 1043.29 1896.543 C 1073.79 1919.503 1092 1956.003 1092 1994.183 L 1092 2106.163 C 1092 2114.443 1085.29 2121.163 1077 2121.163 Z " fill="rgb(55,26,69)"/><path d=" M 1599.66 1352.173 C 1594.69 1347.353 1589.58 1342.593 1584.33 1337.893 C 1592.79 1331.503 1601.11 1324.923 1609.27 1318.173 C 1613.12 1321.043 1616.88 1324.053 1620.52 1327.183 C 1613.74 1335.703 1606.79 1344.033 1599.66 1352.173 Z  M 676.21 1342.383 C 669.87 1334.843 663.67 1327.133 657.63 1319.293 C 663.5 1314.823 669.61 1310.643 675.94 1306.793 C 682.9 1312.853 690.01 1318.813 697.2 1324.603 C 689.98 1330.423 683 1336.343 676.21 1342.383 Z " fill="rgb(185,175,190)"/><path d=" M 1495.04 1448.843 C 1489.46 1434.153 1483.7 1419.473 1477.75 1404.823 C 1504.33 1391.193 1529.99 1375.963 1554.59 1359.233 C 1561.81 1365.493 1568.75 1371.893 1575.46 1378.413 C 1550.39 1404.213 1523.5 1427.773 1495.04 1448.843 Z " fill="rgb(185,175,190)"/><path d=" M 1575.46 1378.413 C 1568.75 1371.893 1561.81 1365.493 1554.59 1359.233 C 1564.69 1352.363 1574.6 1345.263 1584.33 1337.893 C 1589.58 1342.593 1594.69 1347.353 1599.66 1352.173 C 1591.81 1361.153 1583.73 1369.913 1575.46 1378.413 Z " fill="rgb(55,26,69)"/><path d=" M 776.94 1439.653 C 749.67 1418.413 723.99 1394.893 700.11 1369.333 C 708.63 1361.763 717.49 1354.363 726.73 1347.173 C 748.94 1363.263 772.07 1378.103 796.11 1391.633 C 789.51 1407.613 783.11 1423.623 776.94 1439.653 Z " fill="rgb(185,175,190)"/><path d=" M 700.11 1369.333 C 691.93 1360.583 683.96 1351.593 676.21 1342.383 C 683 1336.343 689.98 1330.423 697.2 1324.603 C 706.84 1332.373 716.69 1339.903 726.73 1347.173 C 717.49 1354.363 708.63 1361.763 700.11 1369.333 Z " fill="rgb(55,26,69)"/><path d=" M 1142.72 1567.463 C 1128.67 1567.463 1114.56 1566.953 1100.34 1565.913 C 979.8 1557.103 869.27 1511.533 776.94 1439.653 C 783.11 1423.623 789.51 1407.613 796.11 1391.633 C 887.28 1442.953 991.01 1475.163 1102.19 1482.443 C 1118.17 1483.493 1134.05 1484.003 1149.85 1484.003 C 1267.19 1484.003 1378.85 1455.543 1477.75 1404.823 C 1483.7 1419.473 1489.46 1434.153 1495.04 1448.843 C 1393.51 1524.013 1272.08 1567.463 1142.72 1567.463 Z " fill="rgb(185,175,190)"/><path d=" M 1831.78 978.693 C 1823.86 978.743 1817.41 972.363 1817.37 964.443 L 1815.05 551.653 C 1815 543.743 1821.38 537.283 1829.3 537.243 C 1912.33 536.773 1980.02 603.713 1980.49 686.743 L 1981.28 827.503 C 1981.75 910.533 1914.81 978.223 1831.78 978.693 Z " fill="rgb(255,255,255)"/><path d=" M 1830.17 540.613 C 1829.89 540.613 1829.6 540.613 1829.32 540.613 C 1826.39 540.623 1823.64 541.783 1821.58 543.863 C 1819.52 545.943 1818.4 548.703 1818.42 551.633 L 1820.74 964.423 C 1820.75 967.353 1821.91 970.103 1823.99 972.153 C 1826.06 974.203 1828.79 975.323 1831.7 975.323 L 1831.76 975.323 C 1871.02 975.103 1907.84 959.613 1935.45 931.693 C 1963.05 903.773 1978.13 866.783 1977.91 827.523 L 1977.12 686.763 C 1976.9 647.503 1961.4 610.683 1933.49 583.073 C 1905.77 555.673 1869.11 540.613 1830.17 540.613 Z  M 1831.7 982.063 C 1827.01 982.063 1822.59 980.253 1819.26 976.953 C 1815.89 973.623 1814.03 969.193 1814 964.463 L 1811.68 551.673 C 1811.65 546.943 1813.47 542.493 1816.79 539.133 C 1820.12 535.763 1824.55 533.903 1829.28 533.873 C 1870.25 533.633 1909.03 549.413 1938.22 578.283 C 1967.42 607.153 1983.62 645.663 1983.86 686.723 L 1984.65 827.483 C 1984.88 868.543 1969.11 907.233 1940.24 936.433 C 1911.37 965.623 1872.86 981.833 1831.8 982.063 L 1831.7 982.063 L 1831.7 982.063 Z " fill="rgb(55,26,69)"/><path d=" M 1846.05 959.093 C 1852.5 934.683 1857.5 909.873 1861.05 884.723 C 1862.41 876.803 1863.65 868.823 1864.75 860.813 C 1905.13 853.773 1939.96 830.613 1962.36 798.223 L 1962.53 827.613 C 1962.73 862.763 1949.23 895.883 1924.51 920.883 C 1903.2 942.433 1875.75 955.713 1846.05 959.093 Z " fill="rgb(185,175,190)"/><path d=" M 1833.82 556.033 L 1836.09 959.853 C 1869.58 958.563 1900.83 944.823 1924.51 920.883 C 1949.23 895.883 1962.73 862.763 1962.53 827.613 L 1961.74 686.843 C 1961.54 651.693 1947.67 618.723 1922.67 594.013 C 1898.73 570.333 1867.32 556.943 1833.82 556.033 Z  M 1831.7 997.443 C 1822.93 997.443 1814.68 994.053 1808.44 987.883 C 1802.16 981.673 1798.67 973.383 1798.62 964.543 L 1796.3 551.753 C 1796.25 542.923 1799.64 534.593 1805.86 528.313 C 1812.07 522.033 1820.36 518.543 1829.19 518.493 C 1874.51 518.133 1916.92 535.593 1949.04 567.343 C 1981.15 599.103 1998.98 641.473 1999.23 686.633 L 2000.03 827.403 C 2000.28 872.563 1982.93 915.123 1951.17 947.243 C 1919.42 979.363 1877.05 997.183 1831.89 997.443 L 1831.7 997.443 L 1831.7 997.443 Z " fill="rgb(55,26,69)"/><path d=" M 466.77 544.903 C 474.69 544.863 481.14 551.243 481.18 559.153 L 483.51 971.943 C 483.55 979.863 477.17 986.313 469.26 986.353 C 386.22 986.823 318.53 919.893 318.07 836.853 L 317.27 696.093 C 316.81 613.063 383.74 545.373 466.77 544.903 Z " fill="rgb(255,255,255)"/><path d=" M 466.79 548.273 C 385.75 548.723 320.19 615.033 320.64 696.073 L 321.43 836.833 C 321.89 917.593 387.74 982.983 468.4 982.983 C 468.68 982.983 468.96 982.983 469.24 982.983 C 472.17 982.973 474.91 981.813 476.97 979.733 C 479.03 977.653 480.15 974.893 480.14 971.963 L 477.82 559.173 C 477.8 556.243 476.64 553.493 474.56 551.433 C 472.48 549.383 469.68 548.103 466.79 548.273 Z  M 468.4 989.723 C 384.04 989.733 315.17 921.343 314.69 836.873 L 313.9 696.113 C 313.43 611.353 382 542.013 466.75 541.533 C 471.66 541.643 475.94 543.323 479.3 546.643 C 482.66 549.973 484.53 554.403 484.55 559.133 L 486.88 971.923 C 486.9 976.653 485.08 981.113 481.76 984.463 C 478.44 987.833 474 989.693 469.28 989.723 C 468.99 989.723 468.69 989.723 468.4 989.723 Z " fill="rgb(55,26,69)"/><path d=" M 456.93 967.113 C 390.04 961.303 337.2 905.193 336.81 836.753 L 336.65 808.283 C 360.27 837.973 394.92 858.513 434.33 863.773 C 439.35 899.053 446.94 933.553 456.93 967.113 Z " fill="rgb(185,175,190)"/><path d=" M 462.46 563.743 C 391.95 566.483 335.62 624.903 336.02 695.993 L 336.81 836.753 C 337.21 907.833 394.2 965.613 464.73 967.563 L 462.46 563.743 L 462.46 563.743 Z  M 468.39 1005.103 C 375.59 1005.113 299.84 929.883 299.32 836.963 L 298.53 696.203 C 298 602.963 373.43 526.683 466.67 526.153 C 475.53 526.123 483.83 529.503 490.11 535.713 C 496.39 541.923 499.88 550.213 499.93 559.043 L 502.25 971.843 C 502.3 980.673 498.91 989.003 492.7 995.283 C 486.48 1001.563 478.2 1005.053 469.36 1005.103 C 469.04 1005.103 468.71 1005.103 468.39 1005.103 Z " fill="rgb(55,26,69)"/><path d=" M 1851.3 807.743 C 1825.92 1195.413 1491.08 1489.113 1103.41 1463.733 C 715.74 1438.363 422.05 1103.523 447.42 715.853 C 472.8 328.18 807.64 34.484 1195.31 59.861 C 1582.98 85.238 1876.68 420.073 1851.3 807.743 Z " fill="rgb(255,255,255)"/><path d=" M 1148.89 61.709 C 783.52 61.709 474.99 346.342 450.79 716.073 C 425.57 1101.263 718.44 1435.163 1103.63 1460.373 C 1119.1 1461.393 1134.54 1461.883 1149.83 1461.893 C 1515.21 1461.913 1823.74 1177.253 1847.94 807.523 C 1873.15 422.333 1580.29 88.437 1195.09 63.222 C 1179.62 62.209 1164.18 61.709 1148.89 61.709 Z  M 1150.37 1468.643 C 1134.69 1468.643 1118.98 1468.133 1103.19 1467.093 C 714.29 1441.633 418.61 1104.533 444.06 715.633 C 469.52 326.729 806.57 31.062 1195.53 56.499 C 1584.43 81.958 1880.12 419.063 1854.66 807.963 C 1842.33 996.353 1757.37 1168.673 1615.44 1293.163 C 1485.4 1407.233 1321.76 1468.643 1150.37 1468.643 Z " fill="rgb(55,26,69)"/><path d=" M 1149.82 1446.513 L 1149.82 1446.513 C 1134.87 1446.513 1119.77 1446.013 1104.64 1445.033 C 946.42 1434.673 804.14 1371.083 694.13 1272.873 C 801.58 1336.323 950.91 1393.303 1113.52 1400.013 C 1127.2 1400.583 1140.7 1400.853 1154.1 1400.853 C 1308.98 1400.853 1444.84 1364.293 1546.4 1319.303 C 1433.84 1399.613 1296.5 1446.513 1149.82 1446.513 Z " fill="rgb(185,175,190)"/><path d=" M 1148.9 77.087 C 791.56 77.087 489.8 355.471 466.13 717.073 C 441.47 1093.803 727.91 1420.363 1104.64 1445.033 C 1119.77 1446.013 1134.87 1446.513 1149.82 1446.513 C 1507.17 1446.533 1808.92 1168.123 1832.59 806.523 C 1857.25 429.793 1570.82 103.232 1194.08 78.569 C 1178.96 77.578 1163.85 77.087 1148.9 77.087 Z  M 1149.85 1484.003 C 1134.05 1484.003 1118.17 1483.493 1102.19 1482.443 C 704.82 1456.423 402.71 1111.983 428.72 714.623 C 454.73 317.261 799.08 15.146 1196.54 41.152 C 1593.9 67.165 1896.02 411.613 1870.01 808.973 C 1845.04 1190.353 1526.73 1484.003 1149.85 1484.003 Z " fill="rgb(55,26,69)"/><path d=" M 1847.87 825.633 C 1840.96 963.103 1789.91 1088.493 1708.27 1190.263 C 1647.07 1266.553 1404.88 1393.283 1114.3 1381.283 C 844.86 1370.153 607.05 1214.243 553.81 1132.193 C 482.8 1022.743 444.59 892.863 451.51 755.383 C 469.81 391.583 789.96 256.482 1175.58 275.88 C 1561.19 295.277 1866.18 461.823 1847.87 825.633 Z " fill="rgb(41,20,51)"/><path d=" M 1847.87 825.633 L 1847.93 825.633 L 1847.87 825.633 L 1847.87 825.633 Z  M 1108.71 292.947 C 882.64 292.947 490.58 351.8 470.23 756.333 C 463.74 885.403 498.08 1011.853 569.54 1121.983 C 620.27 1200.173 852.34 1351.703 1115.07 1362.553 C 1406.33 1374.613 1639.12 1246.513 1693.65 1178.533 C 1775.8 1076.123 1822.66 953.763 1829.15 824.683 C 1837.46 659.443 1777.9 528.913 1652.11 436.723 C 1538.93 353.767 1373.82 304.622 1174.64 294.602 C 1154.98 293.616 1132.77 292.947 1108.71 292.947 Z  M 1154.1 1400.853 C 1140.7 1400.853 1127.2 1400.583 1113.52 1400.013 C 834.19 1388.483 594.04 1228.633 538.08 1142.393 C 462.3 1025.603 425.89 891.453 432.78 754.443 C 441.77 575.813 520.33 441.683 666.29 355.774 C 793.56 280.869 969.97 246.74 1176.52 257.155 C 1383.05 267.543 1555.17 319.179 1674.27 406.473 C 1810.88 506.603 1875.58 647.943 1866.6 826.573 C 1859.71 963.583 1810.02 1093.403 1722.9 1201.993 C 1665.15 1273.983 1442.66 1400.853 1154.1 1400.853 Z " fill="rgb(55,26,69)"/><path d=" M 1610.29 887.763 C 1605.23 887.753 1600.16 887.193 1595.13 886.013 C 1546.61 874.683 1519.97 811.223 1535.61 744.273 C 1549.63 684.263 1592.85 641.823 1636.6 641.823 C 1641.66 641.823 1646.74 642.393 1651.77 643.573 C 1690.97 652.733 1715.9 695.933 1715.76 747.513 C 1708.95 777.653 1700.42 807.163 1690.29 835.943 C 1670.03 867.813 1640.28 887.763 1610.29 887.763 Z " fill="rgb(155,141,162)"/><path d=" M 1495.56 1061.693 C 1490.36 1061.693 1485.16 1060.773 1480.13 1058.833 C 1454.87 1049.093 1443.59 1017.323 1454.95 987.883 C 1464.04 964.293 1484.91 949.353 1505.83 949.353 C 1511.03 949.353 1516.23 950.273 1521.26 952.213 C 1546.52 961.963 1557.8 993.733 1546.44 1023.173 C 1537.35 1046.753 1516.48 1061.693 1495.56 1061.693 Z " fill="rgb(155,141,162)"/><path d=" M 1153.55 1363.343 C 1140.85 1363.343 1128.01 1363.083 1115.07 1362.553 C 1032.78 1359.153 953.5 1341.953 881.85 1317.533 C 1215.22 1309.363 1485.08 1164.393 1557.19 1074.483 C 1614.32 1003.273 1659.65 922.933 1690.29 835.943 C 1699.58 821.313 1706.88 804.183 1711.29 785.313 C 1714.29 772.473 1715.73 759.753 1715.76 747.513 C 1725.71 703.513 1732.01 658.163 1734.34 611.713 C 1736.12 576.883 1735.5 543.483 1732.72 511.463 C 1803.04 595.063 1835.42 699.993 1829.15 824.683 C 1822.66 953.763 1775.8 1076.123 1693.65 1178.533 C 1641.54 1243.493 1426.68 1363.353 1153.55 1363.343 Z " fill="rgb(31,19,42)"/><path d=" M 1152.78 1382.093 C 1140.04 1382.093 1127.23 1381.843 1114.28 1381.303 C 1011.68 1377.093 913.69 1351.853 828.7 1317.653 C 836.6 1317.813 844.53 1317.893 852.37 1317.893 C 862.24 1317.893 872.09 1317.773 881.85 1317.533 C 953.5 1341.953 1032.78 1359.153 1115.07 1362.553 C 1128.01 1363.083 1140.85 1363.343 1153.55 1363.343 C 1426.68 1363.353 1641.54 1243.493 1693.65 1178.533 C 1775.8 1076.123 1822.66 953.763 1829.15 824.683 C 1835.42 699.993 1803.04 595.063 1732.72 511.463 C 1731.78 500.613 1730.58 489.923 1729.15 479.393 C 1810.41 565.133 1855.2 679.483 1847.87 825.603 C 1840.95 963.113 1789.88 1088.493 1708.29 1190.263 C 1649.8 1263.153 1426.04 1382.083 1152.78 1382.093 Z " fill="rgb(42,26,59)"/><path d=" M 1690.29 835.943 C 1700.42 807.163 1708.95 777.653 1715.76 747.513 C 1715.73 759.753 1714.29 772.473 1711.29 785.313 C 1706.88 804.183 1699.58 821.313 1690.29 835.943 Z " fill="rgb(107,101,119)"/><path d=" M 1803.88 521.903 C 1799.35 521.903 1794.82 520.233 1791.28 516.873 L 1789.41 515.203 L 1788.35 513.363 C 1678.42 341.585 1454.65 234.975 1174.41 220.874 C 892.64 206.728 659.35 293.412 534.42 458.763 L 533.1 460.323 C 526.36 467.863 514.9 468.363 507.36 461.613 C 500.02 455.053 499.34 443.773 505.51 436.223 C 637.96 261.321 882.38 169.472 1176.26 184.267 C 1468.01 198.947 1702.08 311.362 1818.66 492.743 C 1823.81 499.753 1823.38 509.643 1817.18 516.183 C 1813.58 519.983 1808.73 521.903 1803.88 521.903 Z " fill="rgb(55,26,69)"/><path d=" M 597.42 979.703 C 597.42 979.703 502.79 615.133 703.41 481.843 C 838.22 392.273 1008.11 369.474 1102.8 369.474 C 1149.01 369.474 1177.3 374.902 1174.87 380.649 C 1174.87 380.649 863.05 439.733 730.25 677.223 C 627.85 860.353 597.42 979.703 597.42 979.703 Z " fill="rgb(155,141,162)"/><path d=" M 1168.52 2559.713 C 1168.52 2559.713 727.85 2609.653 531.98 2441.353 C 264.37 2211.423 493.83 1923.273 692.63 2000.033 C 865.7 2066.863 936.87 2119.413 1244.29 2169.803 C 1501.89 2212.013 1723.15 2476.473 1538.31 2629.973 C 1407.81 2738.343 1168.52 2559.713 1168.52 2559.713 Z " fill="rgb(255,255,255)"/><path d=" M 1433.72 2647.023 C 1433.72 2647.023 1433.7 2647.023 1433.69 2647.023 C 1351.01 2647.013 1258.2 2596.333 1210.8 2566.533 C 1217.19 2566.613 1223.75 2566.653 1230.47 2566.653 C 1332.99 2566.653 1471.37 2556.993 1587.31 2514.883 C 1582.03 2552.953 1561.7 2587.283 1526.88 2616.203 C 1500.12 2638.423 1467.8 2647.023 1433.72 2647.023 Z  M 644.55 2488.153 C 606.82 2472.293 572.39 2452.473 543.65 2427.773 C 479.57 2372.713 446.35 2315.413 434.16 2261.893 C 441.61 2269.233 449.54 2276.533 457.97 2283.763 C 515.83 2333.483 595.06 2364.153 677.96 2382.703 C 657.83 2417.153 645.9 2453.013 644.55 2488.153 Z " fill="rgb(185,175,190)"/><path d=" M 1173.54 2541.133 L 1179.23 2545.373 C 1180.99 2546.683 1317.36 2647.013 1433.69 2647.023 C 1467.77 2647.033 1500.12 2638.423 1526.88 2616.203 C 1580.7 2571.503 1599.91 2513.853 1582.42 2449.483 C 1549.55 2328.513 1399.76 2213.423 1241.39 2187.463 C 999.55 2147.833 901.86 2106.533 788.76 2058.713 C 756.93 2045.253 724.02 2031.343 686.18 2016.733 C 603.79 1984.923 507.94 2022.123 458.24 2105.193 C 410.64 2184.763 408.08 2311.283 543.65 2427.773 C 731.42 2589.113 1162.18 2542.423 1166.51 2541.933 L 1173.54 2541.133 L 1173.54 2541.133 Z  M 1433.82 2682.903 C 1317.87 2682.913 1192.33 2598.683 1163.57 2578.243 C 1104.04 2584.183 708.53 2616.653 520.31 2454.933 C 367.87 2323.953 372.43 2178.893 427.52 2086.813 C 486.19 1988.743 600.4 1945.223 699.07 1983.333 C 737.44 1998.143 770.62 2012.173 802.7 2025.733 C 913.69 2072.663 1009.56 2113.183 1247.18 2152.133 C 1418.29 2180.183 1580.72 2306.663 1616.97 2440.093 C 1638.1 2517.883 1614.23 2590.203 1549.75 2643.743 C 1515.59 2672.113 1475.31 2682.903 1433.82 2682.903 Z " fill="rgb(55,26,69)"/><path d=" M 756.91 2553.863 C 752.44 2553.863 748.12 2551.453 745.87 2547.243 C 742.62 2541.143 744.92 2533.573 751.02 2530.333 C 935.96 2431.753 883.99 2088.313 883.45 2084.863 C 882.37 2078.043 887.02 2071.643 893.84 2070.563 C 900.66 2069.493 907.06 2074.143 908.14 2080.953 C 910.48 2095.793 963.26 2445.523 762.78 2552.393 C 760.9 2553.393 758.89 2553.863 756.91 2553.863 Z " fill="rgb(55,26,69)"/><path d=" M 1082.53 2559.713 C 1082.53 2559.713 1523.2 2609.653 1719.08 2441.353 C 1986.68 2211.423 1757.22 1923.273 1558.43 2000.033 C 1385.36 2066.863 1314.18 2119.413 1006.77 2169.803 C 749.17 2212.013 527.9 2476.473 712.74 2629.973 C 843.24 2738.343 1082.53 2559.713 1082.53 2559.713 Z " fill="rgb(255,255,255)"/><path d=" M 817.15 2664.873 C 779.37 2664.883 743.11 2655.203 712.73 2629.973 C 696.22 2616.263 682.96 2601.663 672.67 2586.423 C 682.96 2601.673 696.23 2616.263 712.74 2629.973 C 743.11 2655.193 779.39 2664.873 817.15 2664.873 C 902.27 2664.873 995.01 2615.743 1045.19 2584.643 C 1045.2 2584.643 1045.21 2584.643 1045.23 2584.643 C 995.05 2615.733 902.27 2664.873 817.15 2664.873 Z  M 1624.39 2499.903 L 1624.39 2499.903 C 1659.5 2484.163 1691.67 2464.903 1719.08 2441.353 C 1723.35 2437.673 1727.53 2433.963 1731.56 2430.263 C 1727.52 2433.983 1723.36 2437.673 1719.06 2441.363 C 1691.67 2464.903 1659.49 2484.173 1624.39 2499.903 Z " fill="rgb(179,137,130)"/><path d=" M 1230.47 2566.653 C 1223.75 2566.653 1217.19 2566.613 1210.8 2566.533 C 1210.79 2566.533 1210.79 2566.533 1210.78 2566.523 C 1217.18 2566.603 1223.75 2566.643 1230.48 2566.643 C 1333.01 2566.643 1471.37 2556.993 1587.31 2514.883 L 1587.31 2514.883 C 1471.37 2556.993 1332.99 2566.653 1230.47 2566.653 Z " fill="rgb(140,123,148)"/><path d=" M 1045.19 2584.643 C 1068.42 2570.253 1082.53 2559.713 1082.53 2559.713 C 1082.53 2559.713 1134.57 2565.613 1210.78 2566.523 C 1210.79 2566.533 1210.79 2566.533 1210.8 2566.533 C 1134.56 2565.623 1082.55 2559.733 1082.55 2559.733 C 1082.55 2559.733 1068.45 2570.253 1045.23 2584.643 C 1045.21 2584.643 1045.2 2584.643 1045.19 2584.643 Z  M 1587.31 2514.883 L 1587.31 2514.883 C 1599.96 2510.283 1612.35 2505.303 1624.39 2499.903 L 1624.39 2499.903 C 1612.35 2505.303 1599.96 2510.293 1587.31 2514.883 Z " fill="rgb(55,26,69)"/><path d=" M 672.65 2586.393 C 672.6 2586.323 672.55 2586.253 672.5 2586.173 C 672.55 2586.253 672.6 2586.323 672.65 2586.393 Z  M 672.43 2586.063 C 672.41 2586.033 672.39 2586.013 672.37 2585.983 C 672.39 2586.013 672.41 2586.033 672.43 2586.063 Z  M 1731.59 2430.223 C 1731.67 2430.153 1731.76 2430.073 1731.83 2430.003 C 1731.75 2430.083 1731.67 2430.153 1731.59 2430.223 Z  M 1732 2429.853 C 1732.03 2429.823 1732.07 2429.783 1732.1 2429.753 C 1732.07 2429.793 1732.03 2429.823 1732 2429.853 Z  M 1732.34 2429.543 C 1732.35 2429.523 1732.35 2429.523 1732.37 2429.513 C 1732.36 2429.523 1732.35 2429.533 1732.34 2429.543 Z " fill="rgb(179,137,130)"/><path d=" M 817.15 2664.873 C 779.39 2664.873 743.11 2655.193 712.74 2629.973 C 696.23 2616.263 682.96 2601.673 672.67 2586.423 C 672.66 2586.413 672.65 2586.403 672.65 2586.393 C 672.6 2586.323 672.55 2586.253 672.5 2586.173 C 672.48 2586.143 672.45 2586.103 672.43 2586.063 C 672.41 2586.033 672.39 2586.013 672.37 2585.983 C 643.39 2542.773 638.25 2494.393 651.02 2446.253 C 660.46 2478.153 669.72 2527.213 702.96 2553.013 C 744.55 2585.293 787.96 2598.463 829.53 2598.463 C 889.26 2598.463 945.22 2571.293 986.64 2534.543 C 1039.96 2487.253 1031.26 2448.513 1065.49 2429.273 C 1070.04 2426.713 1074.82 2425.573 1079.9 2425.573 C 1117.71 2425.573 1172.56 2488.233 1278.24 2493.733 C 1295.7 2494.643 1312.75 2495.083 1329.34 2495.083 C 1527.12 2495.083 1663.24 2432.913 1730.19 2364.513 C 1793.31 2300.033 1823.4 2225.353 1835.63 2165.993 C 1852.55 2245.683 1827.81 2341.283 1732.37 2429.513 C 1732.35 2429.523 1732.35 2429.523 1732.34 2429.543 C 1732.26 2429.613 1732.18 2429.683 1732.1 2429.753 C 1732.07 2429.783 1732.03 2429.823 1732 2429.853 C 1731.94 2429.903 1731.89 2429.953 1731.83 2430.003 C 1731.76 2430.073 1731.67 2430.153 1731.59 2430.223 C 1731.58 2430.233 1731.57 2430.253 1731.56 2430.263 C 1727.53 2433.963 1723.35 2437.673 1719.08 2441.353 C 1691.67 2464.903 1659.5 2484.163 1624.39 2499.903 C 1612.35 2505.303 1599.96 2510.283 1587.31 2514.883 C 1471.37 2556.993 1333.01 2566.643 1230.48 2566.643 C 1223.75 2566.643 1217.18 2566.603 1210.78 2566.523 C 1134.57 2565.613 1082.53 2559.713 1082.53 2559.713 C 1082.53 2559.713 1068.42 2570.253 1045.19 2584.643 C 995.01 2615.743 902.27 2664.873 817.15 2664.873 Z " fill="rgb(185,175,190)"/><path d=" M 1625.73 2005.433 C 1605.21 2005.433 1584.66 2009.093 1564.88 2016.733 C 1527.04 2031.343 1494.13 2045.253 1462.31 2058.713 C 1349.2 2106.533 1251.51 2147.833 1009.67 2187.463 C 851.3 2213.423 701.5 2328.513 668.64 2449.483 C 651.15 2513.853 670.35 2571.503 724.18 2616.203 C 842.3 2714.293 1069.55 2547.063 1071.83 2545.373 L 1077.5 2541.143 L 1084.54 2541.933 C 1088.88 2542.423 1519.77 2589.003 1707.41 2427.773 C 1842.98 2311.283 1840.42 2184.763 1792.81 2105.193 C 1755.05 2042.073 1690.62 2005.433 1625.73 2005.433 Z  M 817.24 2682.903 C 775.73 2682.903 735.47 2672.123 701.3 2643.743 C 636.82 2590.203 612.95 2517.883 634.08 2440.093 C 670.33 2306.663 832.77 2180.183 1003.88 2152.133 C 1241.5 2113.183 1337.36 2072.663 1448.36 2025.733 C 1480.45 2012.173 1513.62 1998.143 1551.98 1983.333 C 1650.66 1945.213 1764.86 1988.743 1823.54 2086.813 C 1878.63 2178.893 1883.18 2323.953 1730.74 2454.933 C 1542.53 2616.653 1147.01 2584.183 1087.48 2578.243 C 1058.73 2598.683 933.18 2682.903 817.24 2682.903 Z " fill="rgb(55,26,69)"/><path d=" M 1494.15 2553.863 C 1492.17 2553.863 1490.15 2553.393 1488.28 2552.393 C 1287.79 2445.523 1340.57 2095.793 1342.92 2080.953 C 1344 2074.143 1350.4 2069.453 1357.21 2070.563 C 1364.03 2071.643 1368.68 2078.043 1367.61 2084.853 C 1367.07 2088.313 1315.26 2431.843 1500.04 2530.333 C 1506.13 2533.573 1508.44 2541.143 1505.19 2547.243 C 1502.94 2551.453 1498.62 2553.863 1494.15 2553.863 Z " fill="rgb(55,26,69)"/><path d=" M 2081.89 1793.433 C 2081.89 1730.073 2152.67 1678.713 2215.98 1678.713 L 2269.79 1678.713 L 2309 1908.163 L 2215.98 1908.163 C 2184.33 1908.163 2155.67 1895.303 2134.87 1874.553 C 2114.11 1853.803 2081.89 1825.143 2081.89 1793.433 Z  M 2026.25 1793.433 C 2026.25 1845.843 2047.5 1893.253 2081.81 1927.613 C 2116.16 1961.923 2163.57 1983.173 2215.98 1983.173 L 2397.92 1983.173 L 2333.06 1603.703 L 2215.98 1603.703 C 2111.21 1603.703 2026.25 1688.663 2026.25 1793.433 Z " fill="rgb(0,193,14)"/><path d=" M 2302.5 1965.273 L 2215.98 1965.273 C 2190.48 1965.273 2165.81 1959.743 2143.35 1949.263 C 2148.45 1946.603 2153.51 1943.163 2158.54 1938.883 C 2176.66 1944.633 2195.95 1947.733 2215.97 1947.733 L 2294.91 1947.733 C 2297.35 1953.613 2299.89 1959.463 2302.5 1965.273 Z  M 2207.59 1661.023 C 2207.56 1660.723 2207.54 1660.423 2207.51 1660.123 C 2207.51 1660.123 2203.45 1653.483 2195.96 1644.513 C 2202.23 1643.673 2208.88 1643.253 2215.97 1643.253 L 2245.54 1643.253 L 2245.12 1649.813 C 2244.89 1653.483 2244.69 1657.153 2244.52 1660.813 L 2215.98 1660.813 C 2213.19 1660.813 2210.39 1660.883 2207.59 1661.023 Z " fill="rgb(19,135,33)"/><path d=" M 2215.98 1696.623 C 2159.66 1696.623 2099.8 1730.553 2099.8 1793.443 C 2099.8 1889.153 2214.82 1890.263 2215.98 1890.263 L 2287.78 1890.263 L 2254.69 1696.623 L 2215.98 1696.623 L 2215.98 1696.623 Z  M 2330.22 1926.063 L 2215.98 1926.063 C 2154.89 1926.063 2063.99 1890.743 2063.99 1793.443 C 2063.99 1710.423 2141.27 1660.813 2215.98 1660.813 L 2284.9 1660.813 L 2330.22 1926.063 L 2330.22 1926.063 Z  M 2215.98 1621.603 C 2121.24 1621.603 2044.15 1698.693 2044.15 1793.443 C 2044.15 1839.313 2062.02 1882.473 2094.48 1914.963 C 2126.96 1947.403 2170.12 1965.273 2215.98 1965.273 L 2376.7 1965.273 L 2317.95 1621.603 L 2215.98 1621.603 L 2215.98 1621.603 Z  M 2419.14 2001.073 L 2215.98 2001.073 C 2160.56 2001.073 2108.42 1979.493 2069.16 1940.283 C 2029.94 1901.003 2008.35 1848.863 2008.35 1793.443 C 2008.35 1678.943 2101.49 1585.803 2215.98 1585.803 L 2348.16 1585.803 L 2419.14 2001.073 L 2419.14 2001.073 Z " fill="rgb(55,26,69)"/><path d=" M 2307.82 1976.793 C 2325.47 2014.063 2360.63 2040.353 2401.52 2045.683 C 2424.07 2048.623 2446.75 2050.093 2469.41 2050.093 C 2492.12 2050.093 2514.81 2048.623 2537.35 2045.683 C 2578.43 2040.323 2613.58 2013.763 2631.27 1976.313 C 2673.21 1887.533 2695 1790.503 2695 1692.153 C 2695 1678.033 2694.6 1663.963 2693.68 1649.833 L 2686.96 1543.383 C 2686.96 1566.063 2589.58 1584.443 2469.41 1584.443 C 2349.29 1584.443 2251.91 1566.063 2251.91 1543.383 L 2245.13 1649.833 C 2237.99 1762.723 2259.73 1875.193 2307.82 1976.793 Z " fill="rgb(0,193,14)"/><path d=" M 2528.75 1828.953 C 2520.89 1813.223 2509.09 1800.663 2496.85 1788.313 C 2490.41 1781.843 2484.75 1775.013 2479.99 1767.743 C 2473.52 1757.843 2468.73 1747.153 2466.1 1735.503 C 2465.43 1732.593 2464.89 1729.603 2464.52 1726.563 C 2463.99 1722.523 2463.72 1718.403 2463.7 1714.163 C 2463.69 1709.713 2464.97 1707.733 2469.39 1706.783 C 2477.54 1705.033 2485.38 1705.143 2492.89 1706.923 L 2492.9 1706.933 C 2498.42 1708.223 2503.75 1710.443 2508.91 1713.463 C 2546.72 1735.633 2569.53 1786.223 2561.08 1829.273 C 2558.05 1844.763 2551.95 1858.803 2538.2 1869.173 C 2538.36 1854.533 2534.98 1841.403 2528.75 1828.953 Z " fill="rgb(252,247,251)"/><path d=" M 2445.82 1718.213 C 2446.22 1738.873 2451.79 1756.693 2461.1 1772.533 C 2468.46 1785.073 2478.16 1796.363 2489.47 1806.863 C 2495.31 1812.273 2500.28 1818.553 2504.77 1825.183 C 2514.57 1839.663 2520.82 1855.273 2520.44 1873.173 C 2520.33 1877.943 2518.57 1880.023 2514.03 1881.003 C 2499.65 1884.113 2486.23 1881.393 2473.83 1874.153 C 2448.57 1859.373 2430.4 1831.643 2423.64 1801.973 C 2420.3 1787.393 2419.72 1772.333 2422.43 1758.103 C 2422.44 1757.973 2422.45 1757.853 2422.49 1757.723 C 2423.08 1754.623 2423.84 1751.573 2424.75 1748.573 C 2428.38 1736.683 2434.54 1726.153 2445.82 1718.213 Z " fill="rgb(252,247,251)"/><path d=" M 2694.07 1656.453 C 2693.95 1654.243 2693.82 1652.043 2693.68 1649.833 L 2686.97 1543.563 C 2686.97 1543.503 2686.98 1543.433 2686.98 1543.363 L 2693.69 1649.843 C 2693.83 1652.043 2693.96 1654.253 2694.07 1656.453 Z  M 2649.95 1566.303 C 2666.62 1561.633 2678.34 1556.283 2683.7 1550.513 C 2678.35 1556.283 2666.63 1561.633 2649.95 1566.303 Z  M 2683.72 1550.493 C 2683.73 1550.483 2683.73 1550.473 2683.74 1550.463 C 2683.74 1550.473 2683.73 1550.483 2683.72 1550.493 Z " fill="rgb(252,237,227)"/><path d=" M 2615.28 1986.123 C 2646.05 1908.353 2661.96 1825.313 2661.96 1741.323 C 2661.96 1727.183 2661.55 1713.123 2660.66 1699.023 L 2656.94 1640.663 C 2655.89 1623.583 2641.63 1610.723 2625.3 1610.723 C 2622.97 1610.723 2620.61 1610.983 2618.23 1611.533 C 2590.92 1617.843 2551.42 1621.683 2512.38 1621.683 C 2487.77 1621.683 2463.35 1620.153 2442.25 1616.763 C 2390.56 1608.443 2341.55 1590.363 2298.63 1568.833 C 2338.51 1578.323 2400.18 1584.453 2469.42 1584.453 C 2544.6 1584.453 2610.88 1577.253 2649.95 1566.303 C 2666.63 1561.633 2678.35 1556.283 2683.7 1550.513 C 2683.7 1550.503 2683.71 1550.493 2683.72 1550.493 C 2683.73 1550.483 2683.74 1550.473 2683.74 1550.463 C 2685.81 1548.223 2686.91 1545.913 2686.97 1543.563 L 2693.68 1649.833 C 2693.82 1652.043 2693.95 1654.243 2694.07 1656.453 C 2694.7 1668.363 2694.99 1680.233 2694.99 1692.133 C 2694.99 1790.503 2673.19 1887.543 2631.25 1976.333 C 2630.18 1978.613 2629.04 1980.853 2627.83 1983.043 C 2623.66 1984.123 2619.47 1985.153 2615.28 1986.123 Z " fill="rgb(178,236,182)"/><path d=" M 2538.56 2045.523 C 2576.61 2040.163 2609.46 2016.573 2627.84 1983.043 C 2627.85 1983.043 2627.86 1983.043 2627.87 1983.033 C 2628.24 1982.433 2628.61 1981.793 2628.94 1981.193 C 2628.85 1981.363 2628.76 1981.543 2628.68 1981.723 C 2611.97 2016.313 2578.66 2040.053 2540.6 2045.253 C 2539.92 2045.343 2539.24 2045.433 2538.56 2045.523 Z  M 2400.24 2045.513 C 2399.59 2045.423 2398.94 2045.343 2398.29 2045.253 C 2367.84 2041.093 2340.8 2024.913 2322.37 2001.073 L 2322.97 2001.073 C 2342.01 2024.913 2369.46 2041.163 2400.24 2045.513 Z  M 2274.03 1890.263 L 2274.03 1890.263 C 2254.52 1827.743 2244.28 1762.503 2243.81 1696.623 L 2243.82 1696.623 C 2244.28 1762.503 2254.52 1827.743 2274.03 1890.263 Z  M 2249.21 1585.803 L 2249.21 1585.803 L 2249.45 1582.023 L 2249.21 1585.803 L 2249.21 1585.803 Z  M 2274.55 1561.643 C 2260.12 1556.173 2251.98 1550.003 2251.91 1543.473 L 2251.91 1543.363 C 2251.91 1549.923 2260.05 1556.113 2274.55 1561.613 L 2274.55 1561.643 L 2274.55 1561.643 Z " fill="rgb(179,137,130)"/><path d=" M 2294.91 1947.733 L 2294.91 1947.733 C 2291.92 1940.563 2289.06 1933.323 2286.33 1926.063 L 2286.33 1926.063 C 2289.06 1933.323 2291.92 1940.563 2294.91 1947.733 Z  M 2245.55 1643.253 L 2245.54 1643.253 L 2246.92 1621.603 L 2246.93 1621.603 L 2245.55 1643.253 L 2245.55 1643.253 Z " fill="rgb(19,135,33)"/><path d=" M 2302.5 1965.273 L 2302.5 1965.273 C 2299.89 1959.463 2297.35 1953.613 2294.91 1947.733 L 2294.91 1947.733 C 2297.35 1953.613 2299.89 1959.463 2302.5 1965.273 Z  M 2244.53 1660.813 L 2244.52 1660.813 C 2244.69 1657.153 2244.89 1653.483 2245.12 1649.813 L 2245.54 1643.253 L 2245.55 1643.253 L 2245.13 1649.833 C 2244.9 1653.493 2244.7 1657.163 2244.53 1660.813 Z " fill="rgb(32,97,46)"/><path d=" M 2322.97 2001.073 L 2322.37 2001.073 C 2317.31 1994.523 2312.89 1987.383 2309.24 1979.763 C 2306.93 1974.953 2304.69 1970.133 2302.5 1965.273 L 2302.5 1965.273 C 2304.24 1969.133 2306.01 1972.973 2307.82 1976.793 C 2311.96 1985.533 2317.06 1993.673 2322.97 2001.073 Z  M 2286.33 1926.063 L 2286.33 1926.063 C 2281.89 1914.243 2277.79 1902.303 2274.03 1890.263 L 2274.03 1890.263 C 2277.79 1902.303 2281.89 1914.243 2286.33 1926.063 Z  M 2243.82 1696.623 L 2243.81 1696.623 C 2243.72 1684.703 2243.96 1672.763 2244.52 1660.813 L 2244.53 1660.813 C 2243.97 1672.763 2243.73 1684.693 2243.82 1696.623 Z  M 2246.93 1621.603 L 2246.92 1621.603 L 2249.21 1585.803 L 2249.21 1585.803 L 2246.93 1621.603 L 2246.93 1621.603 Z " fill="rgb(55,26,69)"/><path d=" M 2469.39 2050.083 C 2446.32 2050.083 2423.21 2048.563 2400.24 2045.513 C 2369.46 2041.163 2342.01 2024.913 2322.97 2001.073 C 2317.06 1993.673 2311.96 1985.533 2307.82 1976.793 C 2306.01 1972.973 2304.24 1969.133 2302.5 1965.273 C 2299.89 1959.463 2297.35 1953.613 2294.91 1947.733 C 2291.92 1940.563 2289.06 1933.323 2286.33 1926.063 C 2281.89 1914.243 2277.79 1902.303 2274.03 1890.263 C 2254.52 1827.743 2244.28 1762.503 2243.82 1696.623 C 2243.73 1684.693 2243.97 1672.763 2244.53 1660.813 C 2244.7 1657.163 2244.9 1653.493 2245.13 1649.833 L 2245.55 1643.253 L 2246.93 1621.603 L 2249.21 1585.803 L 2249.45 1582.023 L 2251.91 1543.473 C 2251.98 1550.003 2260.12 1556.173 2274.55 1561.643 L 2272.15 1599.503 C 2266.33 1691.923 2279.83 1784.063 2311.31 1870.183 C 2339.52 1947.363 2412.98 1999.553 2495.15 1999.763 C 2495.59 1999.763 2496.03 1999.763 2496.47 1999.763 C 2536.35 1999.763 2576.19 1995.203 2615.28 1986.123 C 2611.5 1995.673 2607.5 2005.133 2603.28 2014.513 C 2613.03 2005.523 2621.34 1994.913 2627.83 1983.043 C 2627.84 1983.043 2627.84 1983.043 2627.84 1983.043 C 2609.46 2016.573 2576.61 2040.163 2538.56 2045.523 C 2515.62 2048.563 2492.52 2050.083 2469.39 2050.083 Z " fill="rgb(19,135,33)"/><path d=" M 2603.28 2014.513 C 2607.5 2005.133 2611.5 1995.673 2615.28 1986.123 C 2619.47 1985.153 2623.66 1984.123 2627.83 1983.043 C 2621.34 1994.913 2613.03 2005.523 2603.28 2014.513 Z " fill="rgb(135,163,143)"/><path d=" M 2251.91 1543.383 C 2251.91 1566.063 2349.29 1584.443 2469.41 1584.443 C 2589.58 1584.443 2686.96 1566.063 2686.96 1543.383 C 2686.96 1520.703 2589.58 1502.273 2469.41 1502.273 C 2349.29 1502.273 2251.91 1520.703 2251.91 1543.383 Z " fill="rgb(255,255,255)"/><path d=" M 2251.9 1543.363 C 2251.9 1550.863 2262.5 1557.863 2281.01 1563.913 C 2318.62 1576.173 2388.88 1584.423 2469.39 1584.423 C 2549.91 1584.423 2620.22 1576.173 2657.88 1563.913 C 2676.38 1557.863 2686.99 1550.863 2686.99 1543.363 C 2686.99 1520.713 2589.57 1502.253 2469.39 1502.253 C 2349.27 1502.253 2251.9 1520.713 2251.9 1543.363 Z " fill="rgb(255,255,255)"/><path d=" M 2284.06 1563.893 C 2321.67 1576.143 2391.93 1584.393 2472.45 1584.393 C 2552.96 1584.393 2623.28 1576.143 2660.94 1563.893 C 2623.28 1551.593 2552.96 1543.333 2472.45 1543.333 C 2391.93 1543.333 2321.67 1551.593 2284.06 1563.893 Z " fill="rgb(147,96,62)"/><path d=" M 2267.63 1578.163 L 2263 1650.973 C 2256.02 1761.183 2277.54 1872.063 2325.2 1971.643 C 2339.82 2002.193 2368.19 2023.103 2401.1 2027.573 C 2446.27 2033.723 2492.63 2033.703 2537.81 2027.563 C 2570.57 2023.103 2598.59 2002.893 2612.78 1973.503 C 2654.86 1886.293 2677.1 1789.003 2677.1 1692.153 C 2677.1 1677.743 2676.68 1664.283 2675.82 1651.003 L 2671.22 1578.163 C 2659.58 1582.673 2644.77 1586.573 2626.57 1590.013 C 2584.42 1597.963 2528.61 1602.343 2469.41 1602.343 C 2410.23 1602.343 2354.43 1597.963 2312.29 1590.013 C 2294.08 1586.573 2279.28 1582.673 2267.63 1578.163 Z  M 2469.41 2068.003 C 2445.04 2068.003 2420.44 2066.333 2396.28 2063.053 C 2351.39 2056.953 2312.75 2028.553 2292.91 1987.103 C 2242.6 1882.023 2219.91 1765.003 2227.26 1648.703 L 2234.04 1542.253 L 2269.81 1543.383 C 2269.81 1540.643 2268.69 1538.773 2268.29 1538.333 C 2276.82 1547.863 2346.64 1566.543 2469.41 1566.543 C 2592.21 1566.543 2662.05 1547.863 2670.57 1538.333 C 2670.18 1538.773 2669.06 1540.643 2669.06 1543.383 L 2704.83 1542.263 L 2711.55 1648.713 C 2712.46 1662.743 2712.9 1676.963 2712.9 1692.153 C 2712.9 1794.363 2689.43 1897.033 2645.03 1989.063 C 2625.61 2029.303 2587.33 2056.963 2542.63 2063.043 C 2518.44 2066.333 2493.8 2068.003 2469.41 2068.003 Z " fill="rgb(55,26,69)"/><path d=" M 2276.78 1543.383 C 2299.99 1553.253 2365.87 1566.543 2469.41 1566.543 C 2572.98 1566.543 2638.87 1553.253 2662.09 1543.383 C 2638.87 1533.483 2572.97 1520.173 2469.41 1520.173 C 2365.87 1520.173 2299.99 1533.483 2276.78 1543.383 Z  M 2469.41 1602.343 C 2410.23 1602.343 2354.43 1597.963 2312.29 1590.013 C 2258.15 1579.793 2234 1565.413 2234 1543.383 C 2234 1521.363 2258.15 1506.973 2312.28 1496.733 C 2354.44 1488.763 2410.24 1484.373 2469.41 1484.373 C 2528.59 1484.373 2584.41 1488.763 2626.58 1496.733 C 2680.72 1506.973 2704.86 1521.363 2704.86 1543.383 C 2704.86 1565.413 2680.72 1579.793 2626.57 1590.013 C 2584.42 1597.963 2528.61 1602.343 2469.41 1602.343 Z " fill="rgb(55,26,69)"/><path d=" M 1946.12 1669.973 C 1930.43 1723.603 1947.7 1774.243 1978.68 1787.283 C 2043.86 1814.723 2091.01 1687.553 2091.01 1687.553 C 2091.01 1687.553 2069.11 1595.653 2026.16 1597.173 C 1995.68 1598.253 1960.33 1621.453 1946.12 1669.973 Z " fill="rgb(255,255,255)"/><path d=" M 1997.18 1772.223 C 1993.49 1772.223 1989.81 1771.423 1986.03 1769.833 C 1965.88 1761.353 1952.07 1722.633 1963.14 1679.493 C 1969.38 1700.503 1981.46 1716.433 1996.97 1722.953 C 2001.33 1724.793 2005.62 1725.943 2009.82 1726.473 C 2008.43 1741.543 2008.03 1756.363 2008.23 1769.923 C 2004.45 1771.453 2000.81 1772.223 1997.18 1772.223 Z " fill="rgb(185,175,190)"/><path d=" M 1964.3 1675.293 C 1951.18 1720.103 1965.23 1761.073 1986.03 1769.833 C 1993.78 1773.093 2001.07 1773.023 2008.99 1769.603 C 2037.13 1757.443 2061.59 1709.573 2071.15 1686.333 C 2062.67 1655.463 2043.53 1615.403 2026.83 1616.103 C 2004.09 1616.903 1975.94 1635.523 1964.3 1675.293 Z  M 1997.17 1810.063 C 1988.46 1810.063 1979.77 1808.293 1971.33 1804.743 C 1929.21 1787.003 1910.15 1725.473 1927.95 1664.663 C 1946.06 1602.793 1991.81 1579.443 2025.49 1578.253 C 2081.1 1576.453 2105.18 1665.293 2109.43 1683.163 L 2110.76 1688.743 L 2108.77 1694.133 C 2105.45 1703.103 2074.82 1782.363 2024.07 1804.343 C 2015.26 1808.153 2006.2 1810.063 1997.17 1810.063 Z " fill="rgb(55,26,69)"/><path d=" M 2207.51 1660.123 C 2207.51 1660.123 2147.39 1561.663 2062.46 1610.983 C 1996.44 1649.323 2006.29 1792.403 2013.03 1824.803 C 2037.15 1940.803 2121.34 2007.883 2185.33 1906.913 C 2188.39 1902.083 2219.9 1784.923 2207.51 1660.123 Z " fill="rgb(255,255,255)"/><path d=" M 2115.82 1956.303 C 2070.79 1956.303 2028.91 1901.163 2013.01 1824.823 C 2012.2 1820.923 2011.34 1815.403 2010.58 1808.663 C 2010.59 1808.663 2010.59 1808.653 2010.6 1808.653 C 2011.36 1815.393 2012.22 1820.903 2013.03 1824.803 C 2028.9 1901.143 2070.8 1956.303 2115.84 1956.303 C 2116.15 1956.303 2116.47 1956.303 2116.79 1956.293 C 2116.46 1956.303 2116.15 1956.303 2115.82 1956.303 Z " fill="rgb(55,26,69)"/><path d=" M 2190.96 1887.543 L 2190.96 1887.543 C 2196.08 1866.463 2203.31 1829.843 2207.35 1785.373 C 2203.32 1829.853 2196.09 1866.463 2190.96 1887.543 Z " fill="rgb(55,26,69)"/><path d=" M 2187.42 1900.933 C 2188.38 1897.663 2189.59 1893.153 2190.96 1887.543 L 2190.96 1887.543 C 2189.6 1893.153 2188.38 1897.663 2187.42 1900.933 Z " fill="rgb(55,26,69)"/><path d=" M 2010.58 1808.663 C 2009.63 1800.243 2008.83 1789.893 2008.44 1778.373 C 2008.83 1789.903 2009.64 1800.233 2010.6 1808.653 C 2010.59 1808.653 2010.59 1808.663 2010.58 1808.663 Z " fill="rgb(55,26,69)"/><path d=" M 2115.84 1956.303 C 2070.8 1956.303 2028.9 1901.143 2013.03 1824.803 C 2012.22 1820.903 2011.36 1815.393 2010.6 1808.653 C 2009.64 1800.233 2008.83 1789.903 2008.44 1778.373 C 2007.87 1761.523 2008.19 1742.143 2010.22 1722.523 C 2011.07 1730.903 2012.07 1737.673 2013.01 1742.213 C 2028.74 1817.803 2068.6 1848.233 2113.04 1848.233 C 2136.82 1848.233 2161.91 1839.523 2185.33 1824.353 C 2188.75 1822.133 2204.26 1759.923 2209.09 1679.733 C 2211.51 1717.113 2210.26 1753.293 2207.35 1785.373 C 2203.31 1829.843 2196.08 1866.463 2190.96 1887.543 C 2189.59 1893.153 2188.38 1897.663 2187.42 1900.933 C 2186.42 1904.303 2185.68 1906.353 2185.33 1906.913 C 2163.75 1940.943 2139.87 1955.893 2116.79 1956.293 C 2116.47 1956.303 2116.15 1956.303 2115.84 1956.303 Z " fill="rgb(185,175,190)"/><path d=" M 2169.34 1896.783 C 2169.27 1896.893 2169.19 1897.023 2169.09 1897.183 C 2169.17 1897.043 2169.26 1896.913 2169.34 1896.783 Z  M 2110.04 1616.373 C 2098.22 1616.373 2085.45 1619.533 2071.97 1627.363 C 2018 1658.703 2024.88 1788.813 2031.57 1820.953 C 2044.51 1883.183 2076.41 1930.803 2109.15 1936.763 C 2134.45 1941.363 2155.23 1918.623 2168.48 1898.123 C 2173.54 1883.353 2199.2 1778.113 2189.1 1666.593 C 2180.82 1654.603 2151.18 1616.373 2110.04 1616.373 Z  M 2115.52 1975.193 C 2110.59 1975.193 2106.16 1974.713 2102.38 1974.023 C 2053.35 1965.103 2011 1908.043 1994.49 1828.663 C 1988.38 1799.293 1973.98 1640.463 2052.95 1594.603 C 2132.8 1548.233 2199.53 1610.733 2223.67 1650.253 L 2225.92 1653.943 L 2226.35 1658.253 C 2238.63 1781.853 2208.47 1905.783 2201.33 1917.053 C 2170.93 1965.013 2137.99 1975.193 2115.52 1975.193 Z " fill="rgb(55,26,69)"/><path d=" M 1724.48 1980.263 C 1718.36 1980.263 1713.01 1975.773 1712.12 1969.543 C 1676.04 1717.613 1804.64 1628.043 1810.13 1624.353 C 1815.87 1620.503 1823.63 1622.033 1827.48 1627.753 C 1831.32 1633.473 1829.81 1641.223 1824.11 1645.073 C 1822.77 1645.993 1703.17 1730.753 1736.87 1965.993 C 1737.84 1972.833 1733.1 1979.163 1726.27 1980.143 C 1725.67 1980.223 1725.07 1980.263 1724.48 1980.263 Z " fill="rgb(55,26,69)"/><path d=" M 2446.32 1427.383 L 2443.86 1387.933 C 2443.78 1386.663 2444.75 1385.573 2446.02 1385.493 L 2446.04 1385.493 L 2446.32 1385.473 L 2464.05 1384.553 C 2466.95 1384.383 2470.06 1384.293 2472.81 1384.043 C 2475.45 1383.803 2478.06 1383.333 2480.53 1382.453 C 2490.45 1379.173 2498.4 1371.063 2501.14 1361.523 C 2504.09 1352.043 2501.83 1341.433 2495.79 1334.223 C 2490.18 1327.273 2481.77 1323.303 2473 1323.303 C 2472.41 1323.303 2471.82 1323.323 2471.22 1323.353 C 2447.59 1324.093 2423.95 1325.093 2400.32 1325.563 L 2364.87 1326.423 L 2347.14 1326.853 C 2345.06 1326.883 2343.31 1326.983 2341.05 1326.983 C 2339.97 1326.983 2338.76 1326.963 2337.34 1326.893 C 2333.41 1326.683 2329.5 1325.963 2325.7 1324.823 C 2310.43 1320.293 2297.84 1307.783 2293.07 1292.293 C 2290.7 1284.553 2290.23 1276.323 2291.67 1268.343 C 2293.16 1260.353 2296.71 1252.783 2301.72 1246.413 C 2306.76 1240.063 2313.39 1235.003 2320.81 1231.643 C 2324.55 1230.023 2328.46 1228.753 2332.48 1228.063 C 2334.49 1227.703 2336.51 1227.413 2338.54 1227.343 L 2341.47 1227.193 L 2343.68 1227.163 L 2379.14 1226.743 C 2418.61 1226.413 2458.09 1226.233 2497.57 1226.233 C 2505.36 1226.233 2513.15 1226.233 2520.95 1226.253 L 2591.85 1226.533 L 2596.29 1226.573 L 2598.5 1226.583 C 2598.81 1226.593 2599.11 1226.593 2599.39 1226.593 C 2599.81 1226.593 2600.17 1226.583 2600.39 1226.563 C 2602.26 1226.513 2604.14 1226.353 2605.93 1225.883 C 2609.54 1225.023 2612.97 1223.383 2615.91 1221.053 C 2621.69 1216.293 2625.51 1209.163 2625.41 1201.523 C 2625.43 1193.983 2621.98 1186.393 2615.77 1181.593 C 2612.72 1179.173 2609.15 1177.423 2605.34 1176.513 L 2602.43 1175.993 L 2599.27 1175.803 L 2590.41 1175.673 C 2566.78 1175.433 2543.14 1174.653 2519.51 1174.143 C 2495.87 1173.533 2472.23 1173.123 2448.6 1172.223 L 2413.15 1171.043 C 2399.51 1170.863 2385.41 1165.243 2375.94 1155.363 C 2366.26 1145.653 2360.8 1132.083 2361.07 1118.743 C 2361.16 1105.403 2366.9 1092.393 2376.34 1083.603 C 2385.31 1075.033 2397.44 1070.213 2409.4 1070.213 C 2409.87 1070.213 2410.34 1070.223 2410.8 1070.233 C 2422.75 1070.833 2434.47 1071.563 2446.32 1072.383 L 2410.93 1074.663 C 2399.69 1075.573 2389.19 1081.003 2382.22 1089.243 C 2375.2 1097.443 2371.7 1108.143 2372.5 1118.453 C 2373.19 1128.783 2378.23 1138.413 2385.85 1144.843 C 2392.97 1150.833 2401.74 1154.103 2410.96 1154.103 C 2411.69 1154.103 2412.42 1154.083 2413.15 1154.043 L 2448.6 1152.853 C 2472.23 1151.953 2495.87 1151.553 2519.51 1150.933 C 2543.14 1150.433 2566.78 1149.643 2590.41 1149.413 L 2599.27 1149.283 C 2599.32 1149.283 2599.36 1149.283 2599.4 1149.283 C 2600.99 1149.283 2603.14 1149.383 2604.97 1149.473 C 2606.92 1149.693 2608.88 1149.953 2610.82 1150.293 C 2618.57 1151.853 2625.97 1155.163 2632.33 1159.893 C 2645.18 1169.203 2653.33 1184.913 2653.74 1201.003 C 2654.4 1217.103 2646.93 1233.383 2634.49 1243.663 C 2628.27 1248.813 2620.87 1252.553 2613.02 1254.533 C 2609.11 1255.583 2605.07 1256.063 2601.04 1256.203 C 2599.93 1256.273 2599.22 1256.263 2598.5 1256.273 L 2596.29 1256.283 L 2591.85 1256.323 L 2520.95 1256.603 C 2513.19 1256.623 2505.44 1256.623 2497.69 1256.623 C 2458.17 1256.623 2418.65 1256.453 2379.14 1256.113 L 2343.68 1255.693 L 2341.47 1255.663 L 2339.97 1255.703 C 2339.87 1255.703 2339.78 1255.703 2339.68 1255.703 C 2338.85 1255.703 2338.04 1255.813 2337.23 1255.933 C 2335.41 1256.163 2333.65 1256.693 2331.94 1257.343 C 2328.57 1258.763 2325.44 1260.933 2323.04 1263.763 C 2320.68 1266.613 2318.93 1269.963 2318.12 1273.583 C 2317.36 1277.213 2317.45 1281.093 2318.4 1284.703 C 2320.34 1291.973 2326.21 1298.163 2333.51 1300.853 C 2337.33 1302.313 2340.4 1302.383 2347.14 1302.503 L 2364.87 1302.943 L 2400.32 1303.803 C 2423.95 1304.263 2447.59 1305.273 2471.22 1306.013 C 2485.48 1306.113 2499.95 1313.563 2507.79 1325.433 C 2515.9 1337.173 2517.53 1352.763 2512.28 1365.503 C 2507.25 1378.333 2495.75 1388.053 2482.78 1390.753 C 2479.82 1391.463 2476.78 1391.733 2473.78 1391.733 C 2473.52 1391.733 2473.27 1391.733 2473.01 1391.723 C 2469.85 1391.673 2467.05 1391.443 2464.05 1391.313 L 2448.62 1390.513 L 2446.32 1427.383 L 2446.32 1427.383 Z " fill="rgb(23,23,23)"/></g></g></g></svg>