<?xml version="1.0" encoding="UTF-8" standalone="no"?><!-- Generator: Gravit.io --><svg xmlns="http://www.w3.org/2000/svg" xmlns:xlink="http://www.w3.org/1999/xlink" style="isolation:isolate" viewBox="0 0 4000 4000" width="4000pt" height="4000pt"><clipPath id="_clipPath_AuEfAy9fSApSzzY9L58KlOdQL0frU3Bi"><path d=" M 0 0 L 0 4000 L 4000 4000 L 4000 0 L 0 0 Z " fill="rgb(255,255,255)"/></clipPath><g clip-path="url(#_clipPath_AuEfAy9fSApSzzY9L58KlOdQL0frU3Bi)"><path d=" M 2419.52 1978.58 C 2414 1978.58 2409.52 1974.11 2409.52 1968.58 L 2409.52 1541.35 C 2409.52 1535.83 2414 1531.35 2419.52 1531.35 C 2425.04 1531.35 2429.52 1535.83 2429.52 1541.35 L 2429.52 1968.58 C 2429.52 1974.11 2425.04 1978.58 2419.52 1978.58 Z " fill="rgb(55,26,69)"/><path d=" M 2378.97 1960.77 C 2374.17 1960.77 2369.93 1957.29 2369.12 1952.39 L 2266.4 1329.4 C 2265.5 1323.95 2269.19 1318.81 2274.64 1317.91 C 2280.12 1316.97 2285.23 1320.7 2286.14 1326.15 L 2388.85 1949.14 C 2389.75 1954.59 2386.06 1959.74 2380.61 1960.63 C 2380.06 1960.73 2379.51 1960.77 2378.97 1960.77 Z " fill="rgb(55,26,69)"/><path d=" M 2446.8 2004.62 C 2446.19 2004.62 2445.58 2004.57 2444.96 2004.45 C 2439.53 2003.44 2435.94 1998.22 2436.96 1992.79 L 2577.86 1236.74 C 2578.87 1231.31 2584.07 1227.72 2589.52 1228.74 C 2594.95 1229.76 2598.54 1234.98 2597.52 1240.41 L 2456.62 1996.45 C 2455.72 2001.26 2451.52 2004.62 2446.8 2004.62 Z " fill="rgb(55,26,69)"/><path d=" M 1615.13 2495.33 L 1612.03 2560.37 L 1610.46 2593.51 L 1583.25 3164.86 C 1583.25 3164.86 1544.4 3160.79 1492.74 3151.15 C 1482.63 3149.26 1472.04 3147.17 1461.15 3144.85 C 1379.99 3127.6 1282.5 3097.9 1249.75 3051.17 C 1200.79 2981.31 1228.38 2672.23 1293.54 2556.19 C 1323.39 2502.99 1443.84 2492.74 1528.54 2492.4 C 1538.01 2492.34 1547.04 2492.42 1555.43 2492.6 C 1590.83 2493.27 1615.13 2495.33 1615.13 2495.33 Z " fill="rgb(255,255,255)"/><path d=" M 1339.29 3092.55 C 1304.71 3078.41 1276.6 3061.59 1262.86 3041.99 C 1254.29 3029.76 1248.33 3007.35 1244.85 2978.44 C 1248.92 2989.55 1254.33 2999.09 1261.41 3006.32 C 1280.22 3025.53 1307.57 3035.68 1334.39 3035.68 C 1343.45 3035.68 1352.45 3034.52 1361.04 3032.16 C 1358.6 3039.68 1356.05 3047.18 1353.41 3054.65 C 1348.95 3067.35 1344.23 3079.98 1339.29 3092.55 Z  M 1408.07 2832.65 C 1404.98 2830.49 1401.55 2828.76 1397.86 2827.58 C 1402.19 2825.49 1406.4 2823.56 1410.49 2821.77 C 1409.68 2825.4 1408.87 2829.02 1408.07 2832.65 Z " fill="rgb(185,175,190)"/><path d=" M 1533.7 2508.22 C 1446.09 2508.22 1332.86 2518.84 1307.49 2564.02 C 1241.24 2681.98 1221.17 2982.49 1262.86 3041.99 C 1305.18 3102.38 1483.91 3136.34 1568.09 3146.99 L 1598.4 2510.17 C 1580.44 2509.04 1558.05 2508.22 1533.7 2508.22 Z  M 1598.45 3182.55 L 1581.6 3180.79 C 1570.11 3179.59 1299.68 3150.33 1236.64 3060.37 C 1199.49 3007.35 1209.07 2862.67 1212.9 2819.58 C 1220.66 2732.02 1242.26 2614.77 1279.57 2548.34 C 1330.43 2457.77 1587.36 2476.9 1616.49 2479.39 L 1631.86 2480.7 L 1598.45 3182.55 Z " fill="rgb(55,26,69)"/><path d=" M 1279.02 2823.23 L 1389.9 2842.08 C 1399.8 2843.76 1407.33 2851.9 1408.18 2861.9 C 1411.32 2898.54 1414.18 2983.53 1376.54 3007.97 C 1345.3 3028.27 1298.33 3021.14 1272.85 2995.12 C 1244.36 2966.02 1249.06 2883.37 1253.38 2842.64 C 1254.73 2829.97 1266.47 2821.09 1279.02 2823.23 Z " fill="rgb(255,255,255)"/><path d=" M 1334.57 3003.57 C 1316.05 3003.57 1296.81 2996.7 1284.29 2983.92 C 1277.74 2977.23 1272.88 2964.84 1269.85 2948.04 C 1286.48 2967.09 1302.76 2973.5 1317.13 2973.5 C 1346.67 2973.5 1368.17 2946.42 1368.17 2946.42 C 1368.17 2946.42 1373.89 2962.49 1379.57 2964.15 C 1379.22 2965.79 1378.87 2967.43 1378.52 2969.06 C 1376.98 2975.92 1375.31 2982.77 1373.52 2989.63 C 1371.73 2991.59 1369.83 2993.24 1367.82 2994.55 C 1358.42 3000.65 1346.65 3003.57 1334.57 3003.57 Z " fill="rgb(185,175,190)"/><path d=" M 1275.29 2838.92 C 1273.57 2838.92 1272.31 2839.66 1271.66 2840.15 C 1270.88 2840.74 1269.55 2842.06 1269.31 2844.33 C 1261.96 2913.49 1267.7 2966.98 1284.29 2983.92 C 1304.98 3005.04 1344.01 3010.01 1367.82 2994.55 C 1388.66 2981.01 1398.01 2930.71 1392.23 2863.27 C 1392 2860.55 1389.94 2858.32 1387.22 2857.86 L 1276.34 2839.01 L 1276.34 2839.01 C 1275.98 2838.95 1275.63 2838.92 1275.29 2838.92 Z  M 1334.39 3035.68 C 1307.57 3035.68 1280.22 3025.53 1261.41 3006.32 C 1230.46 2974.71 1231.3 2898.94 1237.46 2840.95 C 1238.56 2830.54 1243.99 2820.95 1252.32 2814.63 C 1260.67 2808.3 1271.38 2805.69 1281.7 2807.44 L 1281.71 2807.44 L 1392.59 2826.29 C 1409.68 2829.2 1422.65 2843.28 1424.14 2860.53 C 1428.25 2908.51 1428.66 2993.21 1385.26 3021.4 C 1370.43 3031.03 1352.53 3035.68 1334.39 3035.68 Z " fill="rgb(55,26,69)"/><path d=" M 1316.07 3009.15 C 1316.55 3009.05 1318.07 3008.42 1319.16 3007.9 C 1320.35 3007.32 1321.56 3006.71 1322.75 3005.99 C 1325.15 3004.62 1327.51 3003.02 1329.77 3001.26 C 1334.26 2997.72 1338.61 2993.73 1342.31 2989.1 C 1349.96 2980.02 1355.95 2969.19 1360.22 2957.56 C 1364.47 2945.93 1367.15 2933.54 1369.19 2920.92 C 1371.07 2908.35 1372.74 2895.56 1371.28 2882.79 C 1374.4 2895.33 1374.41 2908.47 1374.17 2921.38 C 1373.77 2934.28 1372.71 2947.4 1369.8 2960.42 C 1366.86 2973.4 1361.93 2986.21 1354.47 2997.9 C 1350.86 3003.81 1346.37 3009.25 1341.4 3014.34 C 1338.9 3016.87 1336.21 3019.26 1333.3 3021.49 C 1331.88 3022.62 1330.35 3023.69 1328.77 3024.72 C 1327.08 3025.79 1325.75 3026.66 1323.28 3027.81 L 1322.43 3028.2 C 1317.37 3030.56 1311.36 3028.37 1309 3023.31 C 1306.64 3018.25 1308.84 3012.24 1313.9 3009.88 C 1314.59 3009.56 1315.35 3009.31 1316.07 3009.15 Z " fill="rgb(55,26,69)"/><path d=" M 1461.52 2571.5 C 1448.11 2569.5 1434.43 2567.82 1420.86 2566.36 C 1407.27 2564.9 1393.66 2563.67 1380.1 2562.83 C 1366.54 2562 1352.99 2561.39 1339.62 2561.51 C 1326.3 2561.63 1312.99 2562.19 1300.7 2564.14 L 1300.65 2564.15 C 1291.91 2565.54 1283.69 2559.58 1282.3 2550.83 C 1280.91 2542.09 1286.88 2533.88 1295.62 2532.49 C 1296.12 2532.41 1296.64 2532.35 1297.14 2532.32 C 1312.3 2531.38 1326.63 2532.2 1340.83 2533.4 C 1355.03 2534.6 1368.95 2536.55 1382.79 2538.72 C 1396.63 2540.89 1410.34 2543.44 1423.99 2546.21 C 1437.66 2549.01 1451.17 2551.96 1464.81 2555.32 C 1469.24 2556.42 1471.94 2560.89 1470.85 2565.32 C 1469.82 2569.48 1465.81 2572.12 1461.65 2571.52 L 1461.52 2571.5 Z " fill="rgb(55,26,69)"/><path d=" M 2507.6 678.193 C 2507.13 679.235 2506.77 680.325 2506.51 681.464 L 2507.6 678.193 Z " fill="rgb(214,107,9)"/><path d=" M 2527.74 1028.92 L 2572.09 1083.35 C 2584.77 1098.9 2575.86 1122.34 2556.05 1125.54 L 2486.73 1136.74 C 2466.93 1139.94 2451.09 1120.5 2458.22 1101.75 L 2483.17 1036.12 C 2490.31 1017.37 2515.06 1013.37 2527.74 1028.92 Z " fill="rgb(226,90,90)"/><path d=" M 2507.58 1036.61 C 2506.99 1036.61 2506.49 1036.66 2506.13 1036.72 C 2504.63 1036.96 2500.96 1037.99 2499.33 1042.26 L 2474.38 1107.89 C 2472.75 1112.17 2474.81 1115.37 2475.77 1116.56 C 2476.73 1117.74 2479.43 1120.42 2483.97 1119.67 L 2553.29 1108.47 C 2557.81 1107.74 2559.56 1104.35 2560.1 1102.93 C 2560.64 1101.51 2561.59 1097.81 2558.7 1094.27 L 2514.34 1039.84 C 2512.14 1037.15 2509.42 1036.61 2507.58 1036.61 Z  M 2482.38 1154.38 C 2469.48 1154.38 2457.35 1148.67 2448.97 1138.4 C 2439.07 1126.25 2436.49 1110.25 2442.06 1095.6 L 2467.02 1029.97 C 2472.58 1015.33 2485.15 1005.09 2500.62 1002.59 C 2516.1 1000.1 2531.24 1005.85 2541.13 1018 L 2585.49 1072.43 C 2595.4 1084.57 2597.98 1100.57 2592.41 1115.22 C 2586.84 1129.87 2574.28 1140.1 2558.8 1142.6 L 2489.49 1153.8 C 2487.11 1154.19 2484.73 1154.38 2482.38 1154.38 Z " fill="rgb(55,26,69)"/><path d=" M 2101.14 679.055 C 2142.87 875.376 2386.78 1078.06 2510.85 1051.69 C 2634.91 1025.31 2775.29 740.938 2733.55 544.618 C 2691.82 348.296 2516.42 219.241 2341.78 256.366 C 2167.14 293.489 2059.4 482.734 2101.14 679.055 Z " fill="rgb(0,215,237)"/><path d=" M 2116.25 523.461 C 2140.27 399.286 2226.45 298.553 2345.37 273.274 C 2364.3 269.25 2383.24 267.312 2402.02 267.312 C 2512.33 267.312 2616.64 334.297 2675.67 439.182 C 2611.54 349.11 2513.04 293.399 2409.21 293.399 C 2389.21 293.399 2368.98 295.471 2348.79 299.762 C 2235.84 323.769 2150.88 411.427 2116.25 523.461 Z " fill="rgb(178,243,250)"/><path d=" M 2402.02 267.312 C 2383.24 267.312 2364.3 269.25 2345.37 273.274 C 2180.34 308.356 2078.36 488.776 2118.05 675.461 C 2155.49 851.596 2367.57 1036.79 2486.92 1036.8 C 2494.06 1036.8 2500.84 1036.14 2507.26 1034.78 C 2620.98 1010.6 2756.33 734.873 2716.65 548.21 C 2681.51 382.936 2546.94 267.312 2402.02 267.312 Z  M 2488.33 1071.2 C 2425.67 1071.2 2342.51 1031.22 2263.7 961.858 C 2171.17 880.417 2104.08 776.04 2084.23 682.648 C 2040.58 477.318 2154.5 278.505 2338.18 239.46 C 2521.85 200.412 2706.81 335.692 2750.46 541.022 C 2770.32 634.413 2751.48 757.058 2700.09 869.091 C 2649.91 978.476 2578.77 1054.92 2514.44 1068.6 C 2506.24 1070.34 2497.5 1071.2 2488.33 1071.2 Z " fill="rgb(55,26,69)"/><path d=" M 2210.48 560.127 C 2169.41 560.125 2153.54 512.014 2190.41 454.035 C 2227.7 395.401 2282.71 360.055 2368.8 352.345 C 2373.2 351.951 2377.36 351.762 2381.3 351.762 C 2438.21 351.762 2446.28 391.242 2381.7 422.605 C 2274.85 474.495 2267.68 551.617 2219.83 559.348 C 2216.59 559.872 2213.47 560.127 2210.48 560.127 Z " fill="rgb(128,235,246)"/><path d=" M 2261.43 1006.43 C 2260.95 1007.47 2260.59 1008.56 2260.33 1009.7 L 2261.43 1006.43 Z " fill="rgb(214,107,9)"/><path d=" M 1854.96 1007.29 C 1896.69 1203.61 2140.61 1406.3 2264.67 1379.92 C 2388.74 1353.55 2529.11 1069.17 2487.38 872.852 C 2445.64 676.531 2270.24 547.477 2095.6 584.6 C 1920.97 621.724 1813.23 810.969 1854.96 1007.29 Z " fill="rgb(255,34,34)"/><path d=" M 1869.6 853.248 C 1876.8 814.995 1890.05 778.366 1909.17 744.799 C 1952.14 669.311 2019.63 618.425 2099.2 601.508 C 2118.14 597.482 2137.23 595.495 2156.28 595.495 C 2217.27 595.495 2277.77 615.883 2331.08 655.107 C 2350.53 669.414 2368.38 685.753 2384.44 703.807 C 2383.14 706.326 2381.87 708.863 2380.62 711.421 C 2320.17 654.838 2243.19 621.634 2163.04 621.634 C 2143.03 621.634 2122.81 623.706 2102.62 627.997 C 1989.14 652.115 1903.92 740.468 1869.6 853.248 Z  M 2383.8 714.438 C 2383.17 713.832 2382.52 713.211 2381.88 712.61 C 2382.78 709.748 2383.72 706.908 2384.7 704.1 C 2385.78 705.325 2386.86 706.556 2387.93 707.797 C 2386.53 709.995 2385.16 712.209 2383.8 714.438 Z " fill="rgb(255,188,188)"/><path d=" M 2098.43 1286.64 C 2007.53 1226.69 1916.54 1125.59 1875.87 1020.19 C 1874.37 1014.68 1873.04 1009.19 1871.87 1003.7 C 1867.26 982.009 1864.51 960.263 1863.58 938.677 C 1895.17 1023.07 1975.5 1103.55 2060.39 1153.74 C 2065.33 1196.12 2078.44 1241.42 2098.43 1286.64 Z " fill="rgb(185,31,46)"/><path d=" M 2156.28 595.495 C 2137.23 595.495 2118.14 597.482 2099.2 601.508 C 2019.63 618.425 1952.14 669.311 1909.17 744.799 C 1865.81 820.949 1852.57 912.892 1871.87 1003.7 C 1909.31 1179.83 2121.39 1365.02 2240.75 1365.04 C 2247.88 1365.04 2254.66 1364.38 2261.08 1363.02 C 2374.8 1338.84 2510.15 1063.11 2470.47 876.445 C 2451.17 785.644 2401.67 707.038 2331.08 655.107 C 2277.77 615.883 2217.27 595.495 2156.28 595.495 Z  M 2242.15 1399.43 C 2179.5 1399.43 2096.33 1359.46 2017.52 1290.09 C 1925 1208.65 1857.91 1104.27 1838.05 1010.88 C 1816.99 911.787 1831.57 811.215 1879.12 727.695 C 1927.05 643.513 2002.66 586.689 2092.01 567.695 C 2181.37 548.703 2273.55 569.855 2351.57 627.26 C 2428.98 684.218 2483.22 770.161 2504.29 869.257 C 2524.14 962.649 2505.31 1085.29 2453.91 1197.33 C 2403.73 1306.71 2332.6 1383.16 2268.27 1396.83 C 2260.06 1398.58 2251.32 1399.43 2242.15 1399.43 Z " fill="rgb(55,26,69)"/><path d=" M 1964.3 878.363 C 1923.23 878.361 1907.37 830.249 1944.24 772.269 C 1981.52 713.636 2036.53 678.291 2122.62 670.579 C 2127.02 670.185 2131.19 669.996 2135.13 669.996 C 2192.03 669.996 2200.11 709.477 2135.52 740.84 C 2028.67 792.73 2021.5 869.852 1973.66 877.583 C 1970.41 878.108 1967.29 878.363 1964.3 878.363 Z " fill="rgb(255,145,145)"/><path d=" M 2713.39 1012.58 C 2712.48 1013.26 2711.63 1014.04 2710.86 1014.92 L 2713.39 1012.58 Z " fill="rgb(214,107,9)"/><path d=" M 2562.34 1329.75 L 2575.05 1398.8 C 2578.68 1418.53 2559.59 1434.79 2540.69 1428.07 L 2474.53 1404.55 C 2455.63 1397.83 2451.09 1373.17 2466.36 1360.16 L 2519.81 1314.62 C 2535.08 1301.61 2558.71 1310.01 2562.34 1329.75 Z " fill="rgb(59,216,224)"/><path d=" M 2536.6 1325.67 C 2534.96 1325.67 2532.95 1326.13 2531.02 1327.78 L 2477.57 1373.31 C 2474.09 1376.28 2474.35 1380.09 2474.62 1381.58 C 2474.9 1383.08 2476.01 1386.73 2480.32 1388.27 L 2546.48 1411.79 C 2550.78 1413.32 2553.95 1411.19 2555.11 1410.2 C 2556.26 1409.21 2558.88 1406.43 2558.05 1401.93 L 2545.34 1332.87 C 2544.51 1328.38 2541.08 1326.7 2539.65 1326.19 C 2539.01 1325.97 2537.92 1325.67 2536.6 1325.67 Z  M 2549.58 1446.92 C 2544.68 1446.92 2539.73 1446.08 2534.9 1444.36 L 2468.74 1420.84 C 2453.97 1415.59 2443.46 1403.25 2440.63 1387.84 C 2437.79 1372.43 2443.22 1357.16 2455.15 1347 L 2508.59 1301.47 C 2520.53 1291.3 2536.47 1288.38 2551.23 1293.62 C 2565.99 1298.87 2576.5 1311.2 2579.34 1326.62 L 2592.05 1395.67 C 2594.88 1411.09 2589.45 1426.36 2577.52 1436.52 C 2569.5 1443.35 2559.65 1446.92 2549.58 1446.92 Z " fill="rgb(55,26,69)"/><path d=" M 2356.62 817.816 C 2298.78 1010.01 2415.12 1305.03 2536.58 1341.59 C 2658.04 1378.14 2917.89 1196.35 2975.74 1004.15 C 3033.58 811.963 2941.88 614.448 2770.92 562.993 C 2599.96 511.536 2414.47 625.625 2356.62 817.816 Z " fill="rgb(6,143,255)"/><path d=" M 2975.85 885.191 C 2960.87 753.65 2878.96 641.371 2756.19 604.412 C 2728.43 596.054 2700.29 592.064 2672.37 592.064 C 2588.57 592.064 2506.79 628.039 2443.53 689.832 C 2468.24 659.748 2497.5 634.001 2530.41 613.759 C 2579.78 583.398 2633.44 567.883 2686.83 567.883 C 2713.46 567.883 2740.02 571.743 2765.94 579.545 C 2843.83 602.988 2906.88 659.291 2943.45 738.078 C 2964.69 783.813 2975.55 833.938 2975.85 885.191 Z " fill="rgb(180,221,255)"/><path d=" M 2369.87 735.398 C 2373.22 727.231 2376.8 719.234 2380.62 711.421 C 2381.04 711.819 2381.46 712.209 2381.88 712.61 C 2381.58 713.585 2381.28 714.562 2380.98 715.542 C 2380.29 717.848 2379.64 720.165 2379.01 722.51 C 2376.59 726.704 2374.24 730.942 2371.96 735.235 C 2371.26 735.287 2370.57 735.341 2369.87 735.398 Z " fill="rgb(185,31,46)"/><path d=" M 2381.88 712.61 C 2381.46 712.209 2381.04 711.819 2380.62 711.421 C 2381.87 708.863 2383.14 706.326 2384.44 703.807 C 2384.53 703.907 2384.61 704 2384.7 704.1 C 2383.72 706.908 2382.78 709.748 2381.88 712.61 Z " fill="rgb(185,131,146)"/><path d=" M 2384.7 704.1 C 2384.61 704 2384.53 703.907 2384.44 703.807 C 2384.81 703.086 2385.18 702.367 2385.56 701.649 C 2385.27 702.463 2384.98 703.28 2384.7 704.1 Z " fill="rgb(55,26,69)"/><path d=" M 2714.44 1256.13 C 2726.57 1219.2 2734.47 1182.66 2737.65 1147.99 C 2824.42 1114.32 2915.25 1048.28 2966.5 971.269 C 2964.41 980.599 2961.97 989.905 2959.18 999.171 C 2958.05 1002.95 2956.82 1006.74 2955.52 1010.51 C 2906.75 1111.2 2809.15 1203.62 2714.44 1256.13 Z " fill="rgb(23,102,190)"/><path d=" M 2373.17 822.797 C 2318.17 1005.54 2430.23 1291.52 2541.56 1325.03 C 2652.92 1358.53 2904.18 1181.91 2959.18 999.171 C 2985.94 910.283 2980.35 817.556 2943.45 738.078 C 2906.88 659.291 2843.83 602.988 2765.94 579.545 C 2688.04 556.098 2604.4 568.256 2530.41 613.759 C 2455.77 659.668 2399.93 733.905 2373.17 822.8 L 2373.17 822.797 Z  M 2570.57 1363.42 C 2556.48 1363.42 2543.41 1361.69 2531.6 1358.14 C 2468.62 1339.18 2404.06 1257.11 2363.11 1143.95 C 2321.17 1028.04 2312.55 904.261 2340.07 812.836 L 2340.07 812.833 C 2369.27 715.822 2430.44 634.665 2512.3 584.313 C 2594.81 533.564 2688.43 520.114 2775.9 546.44 C 2863.37 572.768 2934.02 635.656 2974.81 723.519 C 3015.28 810.691 3021.49 912.126 2992.29 1009.14 C 2964.77 1100.56 2889.27 1199.03 2790.32 1272.53 C 2711.83 1330.83 2631.65 1363.42 2570.57 1363.42 Z " fill="rgb(55,26,69)"/><path d=" M 2538.57 763.837 C 2533.36 763.837 2528.23 763.029 2523.08 761.196 C 2477.42 744.961 2483.34 690.22 2547.94 654.714 C 2580.14 637.016 2613.55 627.411 2649.6 627.411 C 2681.72 627.411 2715.94 635.041 2753.25 651.366 C 2813.2 677.6 2808 719.406 2739.81 719.403 C 2736.91 719.403 2733.89 719.327 2730.76 719.171 C 2725.51 718.91 2720.42 718.786 2715.45 718.786 C 2668.2 718.786 2633.7 730.049 2606.15 741.311 C 2578.6 752.574 2558.01 763.837 2538.57 763.837 Z " fill="rgb(131,199,255)"/><path d=" M 2395.12 2252.83 C 2362.86 2259.38 2339.12 2255.14 2339.12 2255.14 C 2338.27 2256.67 2337.37 2258.23 2336.48 2259.75 C 2230.67 2447.42 2139.03 2555.31 2072.21 2616.81 C 2061.94 2626.26 2049.85 2633.11 2036.61 2637.84 C 1955.57 2667 1832.5 2618.34 1832.5 2618.34 L 1846.9 2551.97 L 1881.94 2390.23 C 1881.94 2390.23 1900.06 2380.67 1931.09 2358.24 C 1934.37 2355.82 1937.83 2353.29 1941.4 2350.61 C 1968.63 2330.26 2003.9 2301.28 2044.49 2261.95 C 2108.79 2199.63 2186.47 2111.31 2266.68 1990.02 C 2266.68 1990.02 2299.91 1930.67 2378.97 1950.76 C 2421.12 1961.48 2443.04 1979.15 2450.11 2003.22 C 2450.11 2003.22 2489.88 1998.83 2491 2055.2 C 2492 2103.08 2471.13 2237.43 2395.12 2252.83 Z " fill="rgb(255,255,255)"/><path d=" M 2072.04 2616.97 C 2072.1 2616.92 2072.16 2616.87 2072.21 2616.81 C 2072.47 2616.57 2072.73 2616.33 2073 2616.09 C 2072.73 2616.33 2072.47 2616.57 2072.21 2616.81 C 2072.15 2616.87 2072.1 2616.92 2072.04 2616.97 Z  M 2073.37 2615.74 C 2073.89 2615.26 2074.41 2614.79 2074.93 2614.3 C 2074.41 2614.79 2073.89 2615.26 2073.37 2615.74 Z  M 2075.02 2614.21 C 2075.26 2613.99 2075.49 2613.77 2075.73 2613.55 C 2075.49 2613.77 2075.26 2613.99 2075.02 2614.21 Z  M 2076.66 2612.69 C 2098.77 2591.99 2123.49 2566.3 2150.45 2534.45 C 2123.49 2566.3 2098.78 2591.99 2076.66 2612.69 Z  M 2150.51 2534.38 C 2150.57 2534.31 2150.63 2534.23 2150.69 2534.16 C 2150.63 2534.23 2150.57 2534.31 2150.51 2534.38 Z  M 2150.76 2534.08 C 2150.82 2534.01 2150.88 2533.95 2150.94 2533.88 C 2150.88 2533.94 2150.82 2534.02 2150.76 2534.08 Z  M 2151.04 2533.75 C 2151.09 2533.7 2151.13 2533.65 2151.18 2533.59 C 2151.13 2533.64 2151.09 2533.7 2151.04 2533.75 Z  M 2151.32 2533.42 C 2151.35 2533.38 2151.38 2533.35 2151.42 2533.31 C 2151.39 2533.34 2151.35 2533.39 2151.32 2533.42 Z  M 2151.64 2533.05 C 2151.64 2533.04 2151.65 2533.03 2151.66 2533.02 C 2151.65 2533.03 2151.64 2533.04 2151.64 2533.05 Z  M 2254.98 2393.62 C 2255 2393.58 2255.04 2393.53 2255.06 2393.5 C 2255.03 2393.54 2255.01 2393.57 2254.98 2393.62 Z  M 2255.2 2393.28 C 2255.25 2393.21 2255.3 2393.14 2255.35 2393.06 C 2255.3 2393.14 2255.25 2393.21 2255.2 2393.28 Z  M 2255.47 2392.88 C 2255.53 2392.79 2255.59 2392.7 2255.64 2392.61 C 2255.59 2392.7 2255.53 2392.79 2255.47 2392.88 Z  M 2255.66 2392.59 C 2281.46 2353.5 2308.46 2309.45 2336.44 2259.83 C 2336.44 2259.83 2336.44 2259.83 2336.44 2259.83 C 2308.45 2309.46 2281.47 2353.5 2255.66 2392.59 Z " fill="rgb(103,124,190)"/><path d=" M 2052.03 2631.04 C 2051.68 2628.77 2051.33 2626.51 2050.98 2624.25 C 2047.56 2602.93 2043.84 2581.68 2039.34 2560.58 C 2035.52 2542.33 2031.41 2524.19 2026.53 2506.1 C 2027.21 2505.8 2027.88 2505.5 2028.55 2505.2 C 2245.81 2407.35 2264.25 2259.65 2277.29 2185.79 C 2278.96 2209.12 2291.24 2239.14 2336.44 2259.83 C 2308.46 2309.45 2281.46 2353.5 2255.66 2392.59 L 2255.64 2392.61 C 2255.59 2392.7 2255.53 2392.79 2255.47 2392.88 C 2255.43 2392.94 2255.39 2393 2255.35 2393.06 C 2255.3 2393.14 2255.25 2393.21 2255.2 2393.28 C 2255.16 2393.35 2255.11 2393.42 2255.06 2393.5 C 2255.04 2393.53 2255 2393.58 2254.98 2393.62 C 2217.88 2449.74 2183.24 2495.59 2151.66 2533.02 C 2151.65 2533.03 2151.64 2533.04 2151.64 2533.05 C 2151.56 2533.14 2151.49 2533.22 2151.42 2533.31 C 2151.38 2533.35 2151.35 2533.38 2151.32 2533.42 C 2151.27 2533.48 2151.23 2533.53 2151.18 2533.59 C 2151.13 2533.65 2151.09 2533.7 2151.04 2533.75 C 2151.01 2533.79 2150.97 2533.84 2150.94 2533.88 C 2150.88 2533.95 2150.82 2534.01 2150.76 2534.08 C 2150.74 2534.11 2150.72 2534.13 2150.69 2534.16 C 2150.63 2534.23 2150.57 2534.31 2150.51 2534.38 C 2150.5 2534.4 2150.47 2534.43 2150.45 2534.45 C 2123.49 2566.3 2098.77 2591.99 2076.66 2612.69 C 2076.35 2612.98 2076.04 2613.27 2075.73 2613.55 C 2075.49 2613.77 2075.26 2613.99 2075.02 2614.21 C 2074.99 2614.24 2074.96 2614.27 2074.93 2614.3 C 2074.41 2614.79 2073.89 2615.26 2073.37 2615.74 C 2073.25 2615.86 2073.12 2615.97 2073 2616.09 C 2072.73 2616.33 2072.47 2616.57 2072.21 2616.81 C 2072.16 2616.87 2072.1 2616.92 2072.04 2616.97 C 2065.96 2622.53 2059.24 2627.19 2052.03 2631.04 Z " fill="rgb(185,175,190)"/><path d=" M 2361.93 2256.48 C 2361.71 2256.48 2361.47 2256.48 2361.21 2256.48 C 2362.08 2256.47 2362.97 2256.45 2363.88 2256.42 C 2363.84 2256.43 2363.15 2256.48 2361.93 2256.48 Z  M 2366.62 2256.46 C 2365.71 2256.46 2364.8 2256.45 2363.89 2256.42 C 2370.84 2256.23 2378.98 2255.59 2387.93 2254.14 C 2381.32 2255.64 2374.22 2256.46 2366.62 2256.46 Z " fill="rgb(103,124,190)"/><path d=" M 2361.21 2256.48 C 2348.56 2256.26 2294.81 2249.91 2280.91 2158.83 C 2280.91 2158.83 2301.26 2176.91 2360.06 2189.58 C 2367.32 2191.15 2374.52 2191.83 2381.54 2191.83 C 2431.01 2191.83 2472.29 2157.89 2472.29 2157.89 C 2472.29 2157.89 2453.79 2239.28 2387.93 2254.14 C 2378.98 2255.59 2370.84 2256.23 2363.89 2256.42 C 2363.89 2256.42 2363.89 2256.42 2363.89 2256.42 C 2363.89 2256.42 2363.89 2256.42 2363.88 2256.42 C 2362.97 2256.45 2362.08 2256.47 2361.21 2256.48 Z " fill="rgb(185,175,190)"/><path d=" M 1894.45 2393.24 C 1888.54 2393.24 1882.85 2389.95 1880.06 2384.28 C 1876.17 2376.35 1879.44 2366.77 1887.36 2362.87 C 1889.05 2362.03 2058.15 2276.08 2253.01 1981.67 C 2266.94 1957.36 2311.49 1917.12 2382.92 1935.25 C 2423.31 1945.5 2448.83 1962.45 2460.93 1987.07 C 2473.59 2012.81 2470.88 2044.7 2452.4 2087.41 C 2434.33 2129.19 2396.87 2151.83 2365.18 2140 C 2336.05 2129.14 2314.19 2088.16 2340.21 2005.73 C 2342.88 1997.3 2351.86 1992.62 2360.3 1995.28 C 2368.73 1997.95 2373.41 2006.94 2370.75 2015.37 C 2352.79 2072.25 2361.07 2104.3 2376.37 2110 C 2389.36 2114.87 2410.89 2102.73 2423.02 2074.69 C 2437.29 2041.7 2440.29 2017.66 2432.19 2001.19 C 2424.48 1985.51 2405.79 1974.09 2375.04 1966.29 C 2308.64 1949.43 2280.9 1997.38 2280.64 1997.87 L 2280.02 1998.88 C 2079.64 2301.82 1908.67 2388.08 1901.49 2391.6 C 1899.22 2392.71 1896.82 2393.24 1894.45 2393.24 Z " fill="rgb(55,26,69)"/><path d=" M 1955.44 2711.89 C 1948.38 2711.89 1941.91 2707.18 1939.99 2700.03 C 1937.69 2691.49 1942.75 2682.71 1951.29 2680.41 C 1952.73 2680 2109.46 2631.48 2325.15 2247.31 L 2330.72 2237.39 L 2341.92 2239.38 C 2342.07 2239.41 2363.4 2242.93 2391.91 2237.15 C 2457.04 2223.94 2475.86 2097.6 2475.02 2055.55 C 2474.71 2040.69 2471.28 2029.83 2465.07 2024.16 C 2459.15 2018.74 2451.83 2019.14 2451.53 2019.18 C 2442.7 2020.13 2434.99 2013.8 2434.01 2005.02 C 2433.03 1996.23 2439.52 1988.3 2448.31 1987.33 C 2450.44 1987.09 2469.49 1985.44 2485.9 1999.83 C 2499.42 2011.69 2506.53 2030.22 2507.03 2054.9 C 2508.23 2114.67 2482.51 2251.44 2398.28 2268.52 C 2376.97 2272.85 2358.95 2272.84 2347.9 2272.15 C 2126.64 2662.58 1966.37 2709.51 1959.61 2711.33 C 1958.22 2711.71 1956.82 2711.89 1955.44 2711.89 Z " fill="rgb(55,26,69)"/><path d=" M 2339.13 2271.16 C 2338.39 2271.16 2337.66 2271.11 2336.91 2271.01 C 2308.66 2267.1 2288.11 2254.57 2275.81 2233.76 C 2256.11 2200.42 2259.59 2148.36 2286.16 2079.03 C 2311.98 2011.66 2345.77 2009.12 2352.14 2009.3 L 2351.28 2041.31 C 2351.29 2041.31 2351.7 2041.38 2352.43 2041.28 C 2352.25 2041.3 2333.78 2044.25 2316.06 2090.49 C 2293.8 2148.55 2289.3 2193.65 2303.38 2217.48 C 2310.55 2229.61 2322.95 2236.75 2341.3 2239.29 C 2350.06 2240.5 2356.18 2248.58 2354.97 2257.34 C 2353.86 2265.36 2347 2271.16 2339.13 2271.16 Z " fill="rgb(55,26,69)"/><path d=" M 2037.31 3087.16 C 2020.76 3172.14 1981.95 3371.23 1864.98 3485.63 C 1864.98 3485.63 1874.17 3638.44 1810.77 3693.43 C 1767.5 3730.97 1641.52 3704.21 1614.85 3618.49 C 1591.82 3544.57 1625.49 3430.61 1644.46 3396.56 C 1686.91 3320.48 1717.27 3224.04 1717.01 3180.55 L 1665.41 3178.09 C 1634.01 3259.87 1555.43 3381.01 1493.52 3436.19 C 1493.52 3436.19 1490.51 3573.33 1402.55 3628.65 C 1338.75 3668.79 1215.37 3645.8 1191.23 3539.21 C 1174.34 3464.65 1219.39 3359.66 1245.14 3319.4 C 1285.91 3255.74 1360.47 3105.84 1390.2 2993.7 C 1392.25 2986 1394.07 2978.45 1395.67 2971.12 C 1402.37 2940.46 1408.99 2909.21 1415.43 2878.44 C 1421.3 2850.24 1427.07 2822.45 1432.54 2795.77 C 1448.13 2719.95 1461.67 2653.57 1470.86 2615.07 C 1470.86 2615.07 1474.99 2587.57 1482.06 2550.25 C 1487.57 2521.31 1494.86 2486.45 1503.45 2453.93 C 1518.15 2398.23 1536.6 2349.53 1556.14 2349.53 L 1881.94 2349.53 C 1900.81 2349.53 1917.07 2352.73 1931.09 2358.24 C 1960.11 2369.51 1979.61 2390.46 1992.63 2412.82 C 2016.29 2453.26 2018.86 2498.17 2018.86 2498.17 C 2023.47 2537.57 2030.21 2585.12 2036.61 2637.84 C 2052.75 2771.03 2066.59 2937.11 2037.31 3087.16 Z " fill="rgb(255,255,255)"/><path d=" M 1755.42 3693.95 C 1753.48 3693.95 1751.53 3693.9 1749.57 3693.81 C 1732.57 3692.98 1715.29 3689.1 1699.3 3682.5 C 1683.33 3675.92 1668.43 3666.79 1656.34 3655.18 C 1644.29 3643.55 1635.15 3629.52 1630.23 3614.03 C 1625.21 3597.93 1623.31 3580.12 1623.18 3562.19 C 1623.07 3544.21 1624.72 3525.96 1627.55 3507.82 C 1630.36 3489.67 1634.45 3471.61 1639.57 3453.94 C 1644.67 3436.41 1650.93 3418.57 1658.7 3403.92 C 1677.67 3369.54 1693.39 3333.82 1706.56 3297.1 C 1713.07 3278.69 1718.92 3260.03 1723.75 3240.9 C 1728.5 3221.67 1732.62 3202.41 1733.04 3180.47 L 1733.32 3165.3 L 1717.79 3164.56 L 1666.15 3162.11 L 1654.65 3161.56 L 1650.44 3172.36 C 1650.42 3172.43 1650.39 3172.49 1650.37 3172.56 C 1647.42 3162.77 1642.43 3154.72 1637.34 3147.22 C 1629.66 3135.91 1638.6 3122.13 1650.44 3122.13 C 1652.63 3122.13 1654.92 3122.6 1657.23 3123.66 C 1679.7 3133.9 1714.06 3144.19 1764.17 3147.1 C 1770.51 3147.47 1776.77 3147.65 1782.94 3147.65 C 1840.87 3147.65 1890.75 3132.45 1920.09 3121.01 C 1922.09 3120.23 1924.08 3119.87 1925.99 3119.87 C 1937.7 3119.87 1946.57 3133.25 1939.48 3144.37 C 1895.91 3212.75 1722.39 3317.05 1686.95 3380.56 C 1667.98 3414.61 1634.3 3528.57 1657.34 3602.5 C 1673.54 3654.54 1726.33 3684.84 1774.98 3692.22 C 1774.8 3692.25 1774.62 3692.28 1774.44 3692.31 C 1768.33 3693.43 1761.92 3693.95 1755.42 3693.95 Z " fill="rgb(185,175,190)"/><path d=" M 1476.05 2616.31 C 1461.37 2737.47 1438.22 2857.1 1411.99 2976.47 C 1405.1 3007.3 1395.43 3036.87 1384.75 3065.9 C 1374 3094.91 1362.34 3123.44 1349.91 3151.59 C 1337.46 3179.74 1324.28 3207.52 1310.44 3234.99 C 1296.5 3262.45 1282.08 3289.59 1265.93 3316.24 L 1254.13 3335.45 L 1248.86 3344.9 L 1243.87 3354.64 C 1237.4 3367.78 1231.62 3381.35 1226.4 3395.1 C 1221.16 3408.86 1216.86 3422.91 1213.05 3437.01 C 1209.46 3451.16 1206.67 3465.41 1204.98 3479.65 C 1203.6 3493.84 1203.05 3508.04 1204.57 3521.68 C 1206.27 3535.08 1209.6 3548.5 1215.24 3560.71 C 1220.93 3572.86 1228.46 3584.06 1237.88 3593.55 C 1247.31 3603.01 1258.34 3610.98 1270.55 3616.91 C 1294.86 3628.88 1323.34 3633.55 1350.31 3630.01 C 1363.77 3628.25 1376.83 3624.39 1388.34 3618.37 C 1391.16 3616.75 1393.92 3615.29 1396.72 3613.27 L 1400.93 3610.43 L 1404.94 3607.31 C 1410.34 3603.21 1415.24 3598.43 1420.04 3593.55 C 1429.39 3583.49 1437.47 3572.05 1444.38 3559.76 C 1451.17 3547.38 1456.88 3534.23 1461.47 3520.59 C 1466.09 3506.94 1469.68 3492.85 1472.38 3478.56 C 1473.75 3471.41 1474.84 3464.21 1475.74 3457 C 1476.6 3449.92 1477.29 3442.3 1477.53 3435.83 L 1477.79 3428.85 L 1482.88 3424.23 C 1501.1 3407.74 1517.91 3388.63 1533.75 3368.8 C 1549.59 3348.9 1564.48 3328.08 1578.56 3306.72 C 1592.65 3285.37 1605.82 3263.39 1618.02 3240.98 C 1630.17 3218.57 1641.38 3195.65 1650.44 3172.36 L 1654.65 3161.56 L 1666.15 3162.11 L 1717.79 3164.56 L 1733.32 3165.3 L 1733.04 3180.47 C 1732.62 3202.41 1728.5 3221.67 1723.75 3240.9 C 1718.92 3260.03 1713.07 3278.69 1706.56 3297.1 C 1693.39 3333.82 1677.67 3369.54 1658.7 3403.92 C 1650.93 3418.57 1644.67 3436.41 1639.57 3453.94 C 1634.45 3471.61 1630.36 3489.67 1627.55 3507.82 C 1624.72 3525.96 1623.07 3544.21 1623.18 3562.19 C 1623.31 3580.12 1625.21 3597.93 1630.23 3614.03 C 1635.15 3629.52 1644.29 3643.55 1656.34 3655.18 C 1668.43 3666.79 1683.33 3675.92 1699.3 3682.5 C 1715.29 3689.1 1732.57 3692.98 1749.57 3693.81 C 1758.06 3694.2 1766.5 3693.77 1774.44 3692.31 C 1782.38 3690.91 1789.79 3688.34 1795.6 3684.68 C 1797.14 3683.83 1798.37 3682.78 1799.66 3681.79 C 1800.98 3680.79 1802.47 3679.17 1803.88 3677.91 C 1806.66 3675.09 1809.36 3672.13 1811.79 3668.8 C 1816.73 3662.28 1821.04 3654.95 1824.76 3647.15 C 1832.06 3631.42 1837.27 3614.12 1840.91 3596.31 C 1844.64 3578.51 1846.84 3560.17 1848.17 3541.74 C 1849.43 3523.42 1849.8 3504.41 1848.98 3486.59 L 1848.65 3479.22 L 1853.77 3474.18 C 1883.09 3445.37 1907.28 3411.09 1927.46 3374.5 C 1947.64 3337.85 1963.9 3298.81 1977.47 3258.79 C 1991 3218.73 2001.97 3177.69 2010.98 3136.08 C 2013.26 3125.68 2015.44 3115.24 2017.53 3104.76 C 2019.61 3094.29 2021.79 3083.69 2023.42 3073.35 C 2025.11 3062.94 2027.09 3052.58 2028.56 3042.13 L 2032.39 3010.65 C 2036.66 2968.54 2038.43 2926.09 2038.35 2883.56 C 2038.11 2841.01 2035.57 2798.41 2031.7 2755.9 L 2019.36 2628.16 C 2017.49 2606.78 2015.67 2585.36 2014.58 2563.81 C 2013.41 2542.27 2012.74 2520.59 2013.56 2498.79 C 2013.67 2495.81 2016.18 2493.48 2019.16 2493.59 C 2021.56 2493.68 2023.53 2495.32 2024.15 2497.5 L 2024.17 2497.55 C 2030.11 2518.46 2034.91 2539.46 2039.34 2560.58 C 2043.84 2581.68 2047.56 2602.93 2050.98 2624.25 C 2057.69 2666.9 2062.56 2709.95 2065.33 2753.23 C 2068.15 2796.5 2070.04 2839.88 2070.37 2883.39 C 2070.45 2926.9 2068.65 2970.51 2064.24 3014.02 L 2060.26 3046.6 C 2058.74 3057.44 2056.69 3068.23 2054.93 3079.05 C 2053.19 3089.96 2051.03 3100.43 2048.92 3111.06 C 2046.8 3121.68 2044.59 3132.29 2042.26 3142.91 C 2033.06 3185.38 2021.8 3227.61 2007.8 3269.07 C 1993.75 3310.5 1976.82 3351.22 1955.49 3389.97 C 1934.16 3428.64 1908.3 3465.48 1876.16 3497.07 L 1880.95 3484.67 C 1881.88 3504.98 1881.44 3524.2 1880.11 3543.96 C 1878.7 3563.59 1876.35 3583.24 1872.27 3602.81 C 1868.24 3622.37 1862.49 3641.91 1853.71 3660.83 C 1849.22 3670.25 1843.86 3679.49 1837.28 3688.18 C 1834.06 3692.55 1830.35 3696.69 1826.42 3700.65 C 1824.31 3702.59 1822.54 3704.49 1820.11 3706.44 C 1817.64 3708.4 1815.15 3710.34 1812.53 3711.85 C 1802.12 3718.33 1791.07 3721.83 1780.26 3723.8 C 1769.42 3725.78 1758.67 3726.27 1748.11 3725.8 C 1727 3724.75 1706.5 3720.07 1687.19 3712.14 C 1667.93 3704.2 1649.65 3693.12 1634.16 3678.27 C 1618.73 3663.46 1606.31 3644.63 1599.69 3623.66 C 1593.35 3603.23 1591.35 3582.63 1591.16 3562.46 C 1591.04 3542.27 1592.88 3522.39 1595.92 3502.82 C 1598.96 3483.25 1603.32 3464 1608.82 3445.01 C 1614.46 3425.96 1620.63 3407.47 1630.72 3388.34 C 1648.65 3355.86 1663.8 3321.49 1676.39 3286.37 C 1682.61 3268.79 1688.18 3250.98 1692.7 3233.1 C 1697.18 3215.35 1700.74 3196.93 1701.02 3180.64 L 1716.26 3196.55 L 1664.63 3194.09 L 1680.34 3183.84 C 1670.52 3209.06 1658.79 3232.94 1646.16 3256.27 C 1633.48 3279.55 1619.88 3302.24 1605.32 3324.31 C 1590.75 3346.39 1575.36 3367.94 1558.79 3388.75 C 1542.17 3409.53 1524.56 3429.68 1504.19 3448.13 L 1509.54 3436.54 C 1509.22 3445.29 1508.48 3452.85 1507.52 3460.89 C 1506.54 3468.8 1505.34 3476.67 1503.85 3484.49 C 1500.89 3500.13 1496.95 3515.62 1491.8 3530.85 C 1486.67 3546.07 1480.24 3560.99 1472.36 3575.32 C 1464.36 3589.58 1454.79 3603.22 1443.37 3615.48 C 1431.72 3627.68 1418.75 3638.19 1403.32 3646.67 C 1387.81 3654.79 1371.18 3659.56 1354.46 3661.76 C 1321 3666.07 1286.77 3660.5 1256.39 3645.63 C 1241.19 3638.23 1227.16 3628.18 1215.09 3616.05 C 1203.04 3603.9 1193.3 3589.46 1186.12 3574.03 C 1178.99 3558.51 1174.86 3542.07 1172.75 3525.27 C 1170.9 3508.58 1171.58 3492.19 1173.16 3476.09 C 1175.05 3460.06 1178.14 3444.37 1182.05 3428.99 C 1186.17 3413.68 1190.82 3398.57 1196.42 3383.85 C 1202.01 3369.12 1208.18 3354.63 1215.18 3340.44 L 1220.61 3329.84 L 1226.46 3319.33 L 1238.57 3299.6 C 1254.01 3274.14 1268.22 3247.44 1281.85 3220.56 C 1295.5 3193.66 1308.29 3166.29 1320.24 3138.6 C 1332.2 3110.92 1343.47 3082.96 1353.41 3054.65 C 1363.4 3026.38 1372.07 2997.71 1378.52 2969.06 C 1391.24 2909.71 1403.98 2850.11 1417.48 2790.71 C 1424.3 2761.02 1431.36 2731.35 1439.25 2701.84 C 1447.1 2672.33 1455.37 2642.86 1465.66 2613.84 C 1466.66 2611.05 1469.72 2609.58 1472.52 2610.57 C 1474.93 2611.43 1476.35 2613.84 1476.05 2616.28 L 1476.05 2616.31 Z " fill="rgb(55,26,69)"/><path d=" M 2261.6 2769.08 C 2226.69 2769.08 2202.12 2756.28 2201.59 2756 C 2196.73 2753.37 2194.92 2747.31 2197.54 2742.45 C 2200.16 2737.59 2206.22 2735.77 2211.09 2738.4 C 2215.08 2740.52 2310.38 2789.29 2387.69 2665.3 C 2431.75 2594.65 2406.33 2522.48 2379.42 2446.05 C 2357.62 2384.12 2335.07 2320.07 2349.83 2254.3 C 2351.04 2248.91 2356.42 2245.53 2361.77 2246.73 C 2367.16 2247.93 2370.55 2253.29 2369.34 2258.67 C 2355.84 2318.85 2377.42 2380.14 2398.29 2439.41 C 2425.58 2516.93 2453.8 2597.08 2404.66 2675.89 C 2357.48 2751.54 2302.46 2769.08 2261.6 2769.08 Z " fill="rgb(55,26,69)"/><path d=" M 1935.69 3074.92 C 1916.76 3076.55 1895.55 3078.02 1872.75 3079.08 C 1886.36 3079.44 1898.91 3079.59 1910.1 3079.62 C 1919.04 3079.62 1927.71 3077.99 1935.69 3074.92 Z " fill="rgb(255,255,255)"/><path d=" M 2107.53 2876.16 C 2107.08 2907.09 2081.64 2931.81 2050.71 2931.36 C 2019.78 2930.92 1995.06 2905.48 1995.51 2874.55 C 1995.95 2843.62 2021.39 2818.9 2052.32 2819.35 C 2083.26 2819.79 2107.97 2845.23 2107.53 2876.16 Z " fill="rgb(255,255,255)"/><path d=" M 2051.53 2918.87 C 2051.53 2918.87 2051.53 2918.87 2051.52 2918.87 C 2051.31 2918.87 2051.1 2918.87 2050.89 2918.87 C 2045.35 2918.79 2040.06 2917.67 2035.21 2915.71 L 2033.62 2880.29 C 2039.19 2882.25 2045.18 2883.36 2051.41 2883.45 C 2051.68 2883.45 2051.95 2883.45 2052.23 2883.45 C 2068.68 2883.45 2083.53 2876.31 2093.79 2864.95 C 2094.66 2868.52 2095.08 2872.22 2095.02 2875.98 C 2094.68 2899.76 2075.23 2918.87 2051.53 2918.87 Z " fill="rgb(185,175,190)"/><path d=" M 2051.5 2831.84 C 2027.8 2831.84 2008.34 2850.95 2008 2874.73 C 2007.66 2898.72 2026.9 2918.52 2050.89 2918.87 C 2051.1 2918.87 2051.31 2918.87 2051.52 2918.87 C 2075.23 2918.88 2094.68 2899.76 2095.02 2875.98 C 2095.19 2864.36 2090.83 2853.37 2082.72 2845.03 C 2074.62 2836.69 2063.76 2832.01 2052.14 2831.84 C 2051.93 2831.84 2051.71 2831.84 2051.5 2831.84 Z  M 2051.54 2943.87 C 2051.2 2943.87 2050.86 2943.87 2050.53 2943.87 C 2032.23 2943.6 2015.13 2936.23 2002.37 2923.1 C 1989.62 2909.97 1982.74 2892.67 1983 2874.37 C 1983.56 2836.6 2014.55 2806.44 2052.5 2806.84 C 2070.8 2807.11 2087.9 2814.48 2100.66 2827.61 C 2113.41 2840.74 2120.29 2858.04 2120.02 2876.34 C 2119.76 2894.64 2112.39 2911.74 2099.26 2924.5 C 2086.38 2937.02 2069.46 2943.87 2051.54 2943.87 Z " fill="rgb(55,26,69)"/><path d=" M 1332.48 3631.16 C 1311.1 3631.16 1289.55 3626.27 1270.55 3616.91 C 1258.34 3610.98 1247.31 3603.01 1237.88 3593.55 C 1228.46 3584.06 1220.93 3572.86 1215.24 3560.71 C 1209.6 3548.5 1206.27 3535.08 1204.57 3521.68 C 1203.05 3508.04 1203.6 3493.84 1204.98 3479.65 C 1206.67 3465.41 1209.46 3451.16 1213.05 3437.01 C 1216.86 3422.91 1221.16 3408.86 1226.4 3395.1 C 1231.62 3381.35 1237.4 3367.78 1243.87 3354.64 L 1248.86 3344.9 L 1254.13 3335.45 L 1265.93 3316.24 C 1282.08 3289.59 1296.5 3262.45 1310.44 3234.99 C 1324.28 3207.52 1337.46 3179.74 1349.91 3151.59 C 1362.34 3123.44 1374 3094.91 1384.75 3065.9 C 1395.43 3036.87 1405.1 3007.3 1411.99 2976.47 C 1413.66 2968.84 1415.33 2961.21 1416.98 2953.58 C 1427.08 2958.3 1464.45 2973.44 1530.56 2974.68 C 1533.42 2974.73 1536.33 2974.76 1539.3 2974.76 C 1566.17 2974.76 1597.47 2972.47 1633.27 2966.43 L 1633.96 2981.7 C 1634.79 3000.2 1642.82 3017.29 1656.56 3029.85 L 1656.56 3029.85 C 1669.51 3041.68 1686.01 3048.09 1703.32 3048.09 C 1703.32 3048.09 1703.33 3048.09 1703.34 3048.09 C 1703.34 3048.09 1703.35 3048.09 1703.36 3048.09 C 1704.41 3048.09 1705.48 3048.07 1706.54 3048.02 L 1971.05 3036.1 C 1971.92 3036.06 1972.79 3036.01 1973.66 3035.94 C 1974.36 3035.88 1975.07 3035.81 1975.77 3035.73 C 1985.44 3034.64 1994.64 3031.56 2002.9 3026.72 C 1996.39 3049.71 1975.69 3067.13 1950.59 3068.26 L 1686.06 3080.17 C 1685.19 3080.21 1684.33 3080.23 1683.47 3080.23 C 1653.27 3080.23 1627.9 3056.27 1626.53 3025.77 L 1625.79 3008.85 C 1584.75 3016.55 1549.33 3019.4 1519.4 3019.4 C 1476.35 3019.4 1444.66 3013.52 1423.95 3007.77 C 1390.24 3115.29 1324.87 3245.29 1287.63 3303.4 C 1261.88 3343.66 1216.82 3448.65 1233.72 3523.21 C 1248.46 3588.36 1300.3 3622.28 1352.94 3629.63 C 1352.07 3629.77 1351.19 3629.89 1350.31 3630.01 C 1344.42 3630.78 1338.46 3631.16 1332.48 3631.16 Z  M 1622.31 2866.93 C 1623.67 2862.14 1625.66 2857.58 1628.17 2853.36 L 1628.77 2866.51 C 1626.75 2866.65 1624.59 2866.8 1622.31 2866.93 Z " fill="rgb(185,175,190)"/><path d=" M 1332.54 3647.19 C 1273.07 3647.19 1208.06 3613.5 1191.23 3539.21 C 1174.34 3464.65 1219.39 3359.66 1245.14 3319.4 C 1285.91 3255.74 1360.47 3105.84 1390.2 2993.7 C 1392.25 2986 1394.07 2978.45 1395.67 2971.12 C 1397.82 2961.29 1399.96 2951.4 1402.09 2941.48 C 1404.34 2943.89 1406.48 2945.91 1408.31 2947.52 C 1411.78 2950.58 1414.15 2952.18 1414.15 2952.18 C 1414.15 2952.18 1415.09 2952.7 1416.98 2953.58 C 1415.33 2961.21 1413.66 2968.84 1411.99 2976.47 C 1405.1 3007.3 1395.43 3036.87 1384.75 3065.9 C 1374 3094.91 1362.34 3123.44 1349.91 3151.59 C 1337.46 3179.74 1324.28 3207.52 1310.44 3234.99 C 1296.5 3262.45 1282.08 3289.59 1265.93 3316.24 L 1254.13 3335.45 L 1248.86 3344.9 L 1243.87 3354.64 C 1237.4 3367.78 1231.62 3381.35 1226.4 3395.1 C 1221.16 3408.86 1216.86 3422.91 1213.05 3437.01 C 1209.46 3451.16 1206.67 3465.41 1204.98 3479.65 C 1203.6 3493.84 1203.05 3508.04 1204.57 3521.68 C 1206.27 3535.08 1209.6 3548.5 1215.24 3560.71 C 1220.93 3572.86 1228.46 3584.06 1237.88 3593.55 C 1247.31 3603.01 1258.34 3610.98 1270.55 3616.91 C 1289.55 3626.27 1311.1 3631.16 1332.48 3631.16 C 1338.46 3631.16 1344.42 3630.78 1350.31 3630.01 C 1351.19 3629.89 1352.07 3629.77 1352.94 3629.63 C 1360.31 3630.66 1367.69 3631.17 1374.99 3631.17 C 1384.36 3631.17 1393.59 3630.33 1402.48 3628.69 C 1383.15 3640.83 1358.36 3647.19 1332.54 3647.19 Z " fill="rgb(55,26,69)"/><path d=" M 1970.5 3023.61 L 1705.96 3035.53 C 1674.65 3036.95 1647.85 3012.48 1646.43 2981.13 L 1640.1 2840.35 C 1638.86 2812.91 1657.48 2788.97 1683.17 2782.5 C 1686.81 2781.55 1690.59 2781.01 1694.5 2780.83 L 1958.99 2768.91 C 1990.34 2767.49 2017.14 2791.96 2018.52 2823.31 L 2023.56 2934.8 L 2024.89 2964.08 C 2026.31 2995.43 2001.81 3022.19 1970.5 3023.61 Z " fill="rgb(255,255,255)"/><path d=" M 1771.1 3019.03 C 1760.01 3019.03 1749.4 3014.94 1741.07 3007.33 C 1732.26 2999.28 1727.11 2988.34 1726.59 2976.52 L 1721.14 2855.59 C 1727.45 2876.32 1735.52 2894.02 1746.43 2908.67 C 1748.57 2938.54 1769.38 2961.85 1794.01 2961.85 C 1794.52 2961.85 1795.03 2961.84 1795.54 2961.81 L 1816.14 2961 C 1820.86 2960.82 1825.19 2959.08 1828.59 2956.25 C 1845.62 2959.58 1865.13 2961.24 1887.53 2961.24 C 1892.1 2961.24 1896.77 2961.17 1901.57 2961.03 C 1952.63 2959.56 1987.52 2951.54 2011.33 2940.98 L 2012.4 2964.65 C 2012.93 2976.47 2008.79 2987.83 2000.74 2996.64 C 1994.9 3003.03 1987.54 3007.5 1979.43 3009.67 L 1773.03 3018.99 C 1772.39 3019.02 1771.74 3019.03 1771.1 3019.03 Z " fill="rgb(185,175,190)"/><path d=" M 1961.6 2781.34 C 1960.92 2781.34 1960.25 2781.36 1959.57 2781.39 L 1695.05 2793.31 C 1670.53 2794.41 1651.48 2815.27 1652.58 2839.79 L 1658.93 2980.58 C 1659.46 2992.4 1664.61 3003.34 1673.42 3011.39 C 1682.24 3019.44 1693.59 3023.56 1705.41 3023.05 L 1705.42 3023.05 L 1969.93 3011.13 C 1981.74 3010.6 1992.69 3005.45 2000.74 2996.64 C 2008.79 2987.83 2012.93 2976.47 2012.4 2964.65 L 2006.05 2823.86 C 2005.52 2812.04 2000.38 2801.1 1991.56 2793.05 C 1983.25 2785.46 1972.68 2781.34 1961.6 2781.34 Z  M 1703.36 3048.09 C 1686.02 3048.09 1669.51 3041.68 1656.56 3029.85 C 1642.82 3017.29 1634.79 3000.2 1633.96 2981.7 L 1627.61 2840.91 C 1625.88 2802.62 1655.64 2770.06 1693.93 2768.33 L 1958.45 2756.42 C 1976.96 2755.59 1994.68 2762.04 2008.42 2774.59 C 2022.17 2787.15 2030.2 2804.25 2031.03 2822.73 L 2037.37 2963.52 C 2038.21 2982.01 2031.75 2999.76 2019.19 3013.5 C 2006.64 3027.25 1989.54 3035.27 1971.05 3036.1 L 1706.54 3048.02 C 1705.48 3048.07 1704.41 3048.09 1703.36 3048.09 Z " fill="rgb(55,26,69)"/><path d=" M 1981.07 3022.09 C 1977.67 3022.96 1974.16 3023.46 1970.5 3023.61 L 1705.96 3035.53 C 1683.02 3036.55 1662.5 3023.71 1652.63 3004.38 C 1649.03 2997.37 1646.83 2989.49 1646.47 2981.13 L 1643.63 2918.59 L 1642.69 2897.95 L 1640.1 2840.35 C 1638.68 2809 1663.19 2782.25 1694.5 2780.83 L 1751.66 2778.27 C 1725.54 2784.42 1706.52 2808.55 1707.75 2836.27 L 1711.16 2912.31 L 1714.09 2977.08 C 1715.51 3008.39 1742.3 3032.9 1773.61 3031.48 L 1981.07 3022.09 Z " fill="rgb(255,255,255)"/><path d=" M 1703.48 3023.09 C 1692.36 3023.09 1681.77 3019.01 1673.42 3011.4 C 1664.61 3003.34 1659.47 2992.4 1658.94 2980.59 L 1657.72 2953.52 C 1659.6 2950.34 1661.67 2946.48 1663.63 2942.14 C 1665.65 2937.68 1667.54 2932.72 1668.98 2927.43 C 1672.94 2929.38 1677.27 2930.63 1681.99 2930.88 C 1682.35 2930.9 1682.72 2930.91 1683.08 2930.91 C 1688.67 2930.91 1694.09 2928.53 1699.23 2924.6 L 1701.62 2977.64 C 1702.36 2994.49 1709.1 3010.19 1720.7 3022.36 L 1705.39 3023.05 C 1704.75 3023.08 1704.11 3023.09 1703.48 3023.09 Z " fill="rgb(185,175,190)"/><path d=" M 1708.64 2792.69 L 1695.07 2793.3 C 1683.25 2793.84 1672.31 2798.99 1664.25 2807.8 C 1656.2 2816.61 1652.06 2827.97 1652.6 2839.78 L 1658.94 2980.59 C 1659.47 2992.4 1664.61 3003.34 1673.42 3011.4 C 1682.24 3019.45 1693.58 3023.54 1705.39 3023.05 L 1720.7 3022.36 C 1709.1 3010.19 1702.36 2994.49 1701.62 2977.64 L 1695.27 2836.85 C 1694.53 2820.56 1699.54 2805.12 1708.64 2792.69 Z  M 1703.32 3048.09 C 1686.01 3048.09 1669.51 3041.68 1656.56 3029.85 C 1642.81 3017.28 1634.79 3000.19 1633.97 2981.7 L 1627.63 2840.91 C 1626.78 2822.43 1633.23 2804.68 1645.8 2790.94 C 1658.35 2777.2 1675.45 2769.17 1693.94 2768.33 L 1751.08 2765.76 L 1754.52 2790.41 C 1733.7 2795.34 1719.28 2814.39 1720.24 2835.73 L 1726.59 2976.52 C 1727.11 2988.34 1732.26 2999.28 1741.07 3007.33 C 1749.88 3015.38 1761.25 3019.49 1773.03 3018.99 L 1980.52 3009.62 L 1984.08 3034.24 C 1979.81 3035.3 1975.4 3035.92 1971 3036.1 L 1706.52 3048.02 C 1705.45 3048.07 1704.38 3048.09 1703.32 3048.09 Z " fill="rgb(55,26,69)"/><path d=" M 1825.28 2903.12 C 1825.48 2908.33 1819.81 2950.65 1819.81 2950.65 C 1819.81 2950.65 1806.5 2951.18 1790.15 2951.82 C 1769.72 2952.62 1752.33 2932.12 1751.3 2906.03 C 1750.28 2879.94 1766 2858.14 1786.43 2857.33 C 1800.22 2856.79 1816.1 2856.17 1816.1 2856.17 C 1816.1 2856.17 1824.94 2894.64 1825.28 2903.12 Z " fill="rgb(34,167,240)"/><path d=" M 1794.02 2941.84 C 1779.69 2941.84 1767.08 2925.49 1766.29 2905.64 C 1765.5 2885.45 1777.19 2867.9 1791.83 2867.32 L 1798.74 2867.05 C 1793.43 2872.79 1789.45 2880.45 1787.42 2889.17 C 1787.18 2890.2 1786.97 2891.23 1786.79 2892.28 C 1786.79 2892.28 1786.79 2892.27 1786.79 2892.27 C 1786.07 2896.31 1785.78 2900.5 1785.96 2904.85 C 1785.96 2904.91 1785.96 2904.97 1785.96 2905.02 C 1785.96 2905.06 1785.97 2905.09 1785.97 2905.13 C 1785.97 2905.15 1785.97 2905.16 1785.97 2905.17 C 1786.14 2908.92 1786.63 2912.53 1787.44 2915.98 C 1788.78 2921.8 1790.97 2927.16 1793.81 2931.84 C 1795.94 2935.36 1798.44 2938.49 1801.22 2941.14 C 1801.37 2941.28 1801.52 2941.42 1801.67 2941.56 L 1794.76 2941.83 C 1794.51 2941.84 1794.26 2941.84 1794.02 2941.84 Z " fill="rgb(41,118,180)"/><path d=" M 1812.56 2866.51 L 1812.53 2866.51 L 1791.83 2867.32 C 1777.19 2867.9 1765.5 2885.45 1766.29 2905.64 C 1767.08 2925.49 1779.69 2941.84 1794.02 2941.84 C 1794.26 2941.84 1794.51 2941.84 1794.76 2941.83 L 1815.36 2941.02 C 1815.73 2941 1816.03 2940.73 1816.08 2940.38 C 1819.19 2916.44 1820.28 2905.55 1820.28 2903.46 C 1820.15 2900.51 1818.25 2889.43 1813.31 2867.1 C 1813.23 2866.75 1812.92 2866.51 1812.56 2866.51 Z  M 1794.01 2961.85 C 1768.77 2961.85 1747.53 2937.36 1746.31 2906.43 C 1745.07 2874.87 1765.13 2848.36 1791.04 2847.34 L 1811.75 2846.53 C 1821.74 2845.93 1830.67 2852.97 1832.84 2862.79 C 1837.56 2884.18 1840.07 2897.62 1840.27 2902.73 L 1840.27 2902.74 C 1840.32 2904.13 1840.47 2907.83 1835.91 2942.94 C 1834.61 2953.01 1826.29 2960.6 1816.14 2961 L 1795.54 2961.81 C 1795.03 2961.84 1794.52 2961.85 1794.01 2961.85 Z " fill="rgb(55,26,69)"/><path d=" M 1859.94 2901.96 C 1860.97 2928.05 1845.24 2949.85 1824.81 2950.65 C 1804.39 2951.46 1786.99 2930.96 1785.97 2904.86 C 1784.94 2878.77 1800.67 2856.97 1821.1 2856.17 C 1841.53 2855.36 1858.92 2875.86 1859.94 2901.96 Z " fill="rgb(34,167,240)"/><path d=" M 1787.44 2915.98 C 1786.63 2912.53 1786.14 2908.92 1785.97 2905.17 C 1786.14 2908.9 1786.64 2912.52 1787.44 2915.98 Z  M 1785.97 2905.13 C 1785.97 2905.09 1785.96 2905.06 1785.96 2905.02 C 1785.96 2905.06 1785.97 2905.09 1785.97 2905.13 Z  M 1786.79 2892.29 C 1786.79 2892.28 1786.79 2892.28 1786.79 2892.28 C 1786.97 2891.23 1787.18 2890.2 1787.42 2889.17 C 1787.18 2890.2 1786.97 2891.23 1786.79 2892.29 Z " fill="rgb(190,214,232)"/><path d=" M 1855.37 2881.34 C 1853.99 2878.12 1852.33 2875.13 1850.43 2872.41 C 1852.33 2875.13 1853.99 2878.12 1855.37 2881.34 Z  M 1850.41 2872.37 C 1850.4 2872.36 1850.39 2872.35 1850.38 2872.33 C 1850.39 2872.35 1850.4 2872.36 1850.41 2872.37 Z  M 1850.34 2872.26 C 1850.33 2872.26 1850.33 2872.26 1850.33 2872.26 C 1850.33 2872.26 1850.33 2872.26 1850.34 2872.26 Z  M 1838.64 2860.98 C 1836.17 2859.44 1833.57 2858.24 1830.85 2857.42 C 1830.85 2857.42 1830.85 2857.42 1830.85 2857.42 C 1833.56 2858.24 1836.17 2859.44 1838.64 2860.98 Z " fill="rgb(255,255,255)"/><path d=" M 1803.79 2862.49 C 1808.87 2858.68 1814.76 2856.41 1821.1 2856.15 C 1821.48 2856.14 1821.85 2856.13 1822.23 2856.13 C 1825.18 2856.13 1828.07 2856.58 1830.85 2857.42 C 1830.85 2857.42 1830.85 2857.42 1830.85 2857.42 C 1828.08 2856.59 1825.21 2856.15 1822.26 2856.15 C 1821.87 2856.15 1821.49 2856.15 1821.1 2856.17 C 1814.76 2856.42 1808.87 2858.69 1803.79 2862.49 Z " fill="rgb(195,186,199)"/><path d=" M 1838.82 2861.09 C 1838.82 2861.09 1838.81 2861.09 1838.81 2861.08 C 1838.81 2861.09 1838.82 2861.09 1838.82 2861.09 Z  M 1838.73 2861.03 C 1838.7 2861.02 1838.67 2861 1838.65 2860.98 C 1838.67 2861 1838.7 2861.02 1838.73 2861.03 Z " fill="rgb(255,255,255)"/><path d=" M 1859.82 2908.8 C 1859.98 2906.56 1860.02 2904.28 1859.93 2901.96 L 1859.93 2901.96 L 1859.93 2901.96 C 1860.03 2904.27 1859.99 2906.56 1859.82 2908.8 Z  M 1791.44 2902.8 C 1789.57 2899.58 1788 2896.05 1786.79 2892.29 C 1786.97 2891.23 1787.18 2890.2 1787.42 2889.17 C 1790.05 2877.87 1795.95 2868.36 1803.79 2862.49 C 1808.87 2858.69 1814.76 2856.42 1821.1 2856.17 C 1821.49 2856.15 1821.87 2856.15 1822.26 2856.15 C 1825.21 2856.15 1828.08 2856.59 1830.85 2857.42 C 1833.57 2858.24 1836.17 2859.44 1838.64 2860.98 C 1838.64 2860.98 1838.64 2860.98 1838.65 2860.98 C 1838.67 2861 1838.7 2861.02 1838.73 2861.03 C 1838.76 2861.05 1838.78 2861.07 1838.81 2861.08 C 1838.81 2861.09 1838.82 2861.09 1838.82 2861.09 C 1843.19 2863.85 1847.1 2867.65 1850.33 2872.26 C 1850.33 2872.26 1850.33 2872.26 1850.34 2872.26 C 1850.35 2872.29 1850.37 2872.31 1850.38 2872.33 C 1850.39 2872.35 1850.4 2872.36 1850.41 2872.37 C 1850.42 2872.38 1850.43 2872.39 1850.43 2872.41 C 1852.33 2875.13 1853.99 2878.12 1855.37 2881.34 C 1856.07 2882.97 1856.7 2884.65 1857.25 2886.39 C 1856.56 2890.35 1855.47 2894.11 1854.03 2897.62 C 1847.12 2885.68 1836 2877.97 1823.69 2877.97 C 1823.31 2877.97 1822.92 2877.98 1822.54 2878 C 1808.86 2878.52 1797.3 2888.45 1791.44 2902.8 Z  M 1859.88 2900.77 C 1859.88 2900.76 1859.87 2900.76 1859.87 2900.75 C 1859.87 2900.75 1859.88 2900.76 1859.88 2900.77 Z  M 1859.87 2900.64 C 1859.87 2900.62 1859.87 2900.6 1859.86 2900.58 C 1859.87 2900.6 1859.87 2900.62 1859.87 2900.64 Z  M 1859.86 2900.52 C 1859.63 2896.75 1859.05 2893.1 1858.17 2889.62 C 1859.05 2893.1 1859.63 2896.75 1859.86 2900.52 Z " fill="rgb(188,228,250)"/><path d=" M 1834.32 2948.69 C 1834.32 2948.68 1834.32 2948.68 1834.32 2948.68 C 1837.44 2947.48 1840.38 2945.75 1843.08 2943.59 C 1840.38 2945.75 1837.44 2947.48 1834.32 2948.69 Z  M 1857.91 2888.61 C 1857.7 2887.86 1857.48 2887.12 1857.25 2886.39 C 1857.25 2886.38 1857.25 2886.37 1857.26 2886.37 C 1857.49 2887.11 1857.7 2887.86 1857.91 2888.61 Z " fill="rgb(185,175,190)"/><path d=" M 1801.67 2941.56 C 1801.52 2941.42 1801.37 2941.28 1801.22 2941.14 C 1801.37 2941.28 1801.52 2941.42 1801.67 2941.56 L 1801.67 2941.56 Z  M 1793.81 2931.84 C 1790.97 2927.16 1788.78 2921.8 1787.44 2915.98 C 1787.53 2916.4 1787.64 2916.81 1787.74 2917.23 C 1787.74 2917.23 1787.74 2917.22 1787.74 2917.22 C 1789.1 2922.56 1791.17 2927.5 1793.81 2931.84 Z  M 1785.97 2905.17 C 1785.97 2905.16 1785.97 2905.15 1785.97 2905.13 C 1785.97 2905.14 1785.97 2905.16 1785.97 2905.17 Z  M 1785.96 2905.02 C 1785.96 2904.97 1785.96 2904.91 1785.96 2904.85 C 1785.78 2900.5 1786.07 2896.31 1786.79 2892.27 C 1786.79 2892.27 1786.79 2892.28 1786.79 2892.28 C 1786.09 2896.3 1785.79 2900.52 1785.96 2904.85 C 1785.96 2904.91 1785.96 2904.97 1785.96 2905.02 Z " fill="rgb(46,86,141)"/><path d=" M 1823.65 2950.68 C 1815.51 2950.68 1807.9 2947.3 1801.67 2941.56 L 1801.67 2941.56 C 1807.9 2947.3 1815.51 2950.67 1823.65 2950.67 C 1824.04 2950.67 1824.43 2950.67 1824.81 2950.65 C 1828.12 2950.52 1831.31 2949.84 1834.32 2948.68 C 1834.32 2948.68 1834.32 2948.68 1834.32 2948.69 C 1831.31 2949.85 1828.12 2950.53 1824.82 2950.66 C 1824.43 2950.68 1824.04 2950.68 1823.65 2950.68 Z " fill="rgb(55,26,69)"/><path d=" M 1823.65 2950.67 C 1815.51 2950.67 1807.9 2947.3 1801.67 2941.56 C 1801.52 2941.42 1801.37 2941.28 1801.22 2941.14 C 1798.44 2938.49 1795.94 2935.36 1793.81 2931.84 C 1791.17 2927.5 1789.1 2922.56 1787.74 2917.22 C 1788.36 2912.09 1789.63 2907.23 1791.44 2902.8 C 1798.38 2914.74 1809.5 2922.47 1821.8 2922.47 C 1822.19 2922.47 1822.58 2922.46 1822.97 2922.45 C 1836.62 2921.91 1848.18 2911.95 1854.03 2897.62 C 1856.42 2901.74 1858.31 2906.37 1859.57 2911.35 C 1859.67 2910.51 1859.75 2909.66 1859.82 2908.8 C 1858.74 2923.44 1852.37 2936.13 1843.08 2943.59 C 1840.38 2945.75 1837.44 2947.48 1834.32 2948.68 C 1831.31 2949.84 1828.12 2950.52 1824.81 2950.65 C 1824.43 2950.67 1824.04 2950.67 1823.65 2950.67 Z  M 1859.93 2901.96 C 1859.92 2901.56 1859.9 2901.17 1859.88 2900.77 C 1859.9 2901.17 1859.92 2901.56 1859.93 2901.96 Z  M 1859.87 2900.75 C 1859.87 2900.71 1859.87 2900.68 1859.87 2900.64 C 1859.87 2900.68 1859.87 2900.71 1859.87 2900.75 Z  M 1859.86 2900.58 C 1859.86 2900.56 1859.86 2900.54 1859.86 2900.52 C 1859.86 2900.54 1859.86 2900.56 1859.86 2900.58 Z  M 1858.17 2889.62 C 1857.89 2888.53 1857.59 2887.45 1857.25 2886.39 C 1857.25 2886.39 1857.25 2886.39 1857.25 2886.39 C 1857.48 2887.12 1857.7 2887.86 1857.91 2888.61 C 1858 2888.95 1858.09 2889.28 1858.17 2889.62 Z " fill="rgb(41,118,180)"/><path d=" M 1787.74 2917.23 C 1787.64 2916.81 1787.53 2916.4 1787.44 2915.98 C 1786.64 2912.52 1786.14 2908.9 1785.97 2905.17 C 1785.97 2905.16 1785.97 2905.14 1785.97 2905.13 C 1785.97 2905.09 1785.96 2905.06 1785.96 2905.02 C 1785.96 2904.97 1785.96 2904.91 1785.96 2904.85 C 1785.79 2900.52 1786.09 2896.3 1786.79 2892.28 C 1786.79 2892.28 1786.79 2892.28 1786.79 2892.29 C 1786.09 2896.31 1785.8 2900.53 1785.97 2904.86 C 1786.14 2909.16 1786.75 2913.3 1787.74 2917.22 C 1787.74 2917.22 1787.74 2917.23 1787.74 2917.23 Z " fill="rgb(143,148,175)"/><path d=" M 1787.74 2917.22 C 1786.75 2913.3 1786.14 2909.16 1785.97 2904.86 C 1785.8 2900.53 1786.09 2896.31 1786.79 2892.29 C 1788 2896.05 1789.57 2899.58 1791.44 2902.8 C 1789.63 2907.23 1788.36 2912.09 1787.74 2917.22 Z  M 1859.57 2911.35 C 1858.31 2906.37 1856.42 2901.74 1854.03 2897.62 C 1855.47 2894.11 1856.56 2890.35 1857.25 2886.39 C 1857.59 2887.45 1857.89 2888.53 1858.17 2889.62 C 1859.05 2893.1 1859.63 2896.75 1859.86 2900.52 C 1859.86 2900.54 1859.86 2900.56 1859.86 2900.58 C 1859.87 2900.6 1859.87 2900.62 1859.87 2900.64 C 1859.87 2900.68 1859.87 2900.71 1859.87 2900.75 C 1859.87 2900.76 1859.88 2900.76 1859.88 2900.77 C 1859.9 2901.17 1859.92 2901.56 1859.93 2901.96 L 1859.93 2901.96 C 1860.02 2904.28 1859.98 2906.56 1859.82 2908.8 C 1859.75 2909.66 1859.67 2910.51 1859.57 2911.35 Z " fill="rgb(142,157,187)"/><path d=" M 1822.23 2866.14 C 1821.98 2866.14 1821.74 2866.15 1821.49 2866.16 C 1806.86 2866.74 1795.17 2884.28 1795.96 2904.47 C 1796.75 2924.66 1809.6 2941.28 1824.42 2940.66 C 1839.05 2940.08 1850.75 2922.54 1849.96 2902.35 C 1849.18 2882.5 1836.56 2866.14 1822.23 2866.14 Z  M 1823.68 2960.68 C 1798.43 2960.68 1777.19 2936.19 1775.98 2905.25 C 1774.74 2873.7 1794.8 2847.2 1820.7 2846.18 C 1821.22 2846.15 1821.73 2846.14 1822.24 2846.14 C 1847.48 2846.14 1868.72 2870.63 1869.94 2901.57 C 1871.18 2933.12 1851.11 2959.62 1825.21 2960.64 C 1824.7 2960.67 1824.19 2960.68 1823.68 2960.68 Z " fill="rgb(55,26,69)"/><path d=" M 1898.21 3036.3 C 1892.78 3036.3 1888.33 3031.96 1888.21 3026.51 L 1886.69 2955.23 C 1886.27 2935.3 1895.79 2916.62 1912.17 2905.26 C 1923.29 2897.55 1929.59 2884.88 1929.02 2871.37 L 1924.85 2770.95 C 1924.62 2765.43 1928.91 2760.77 1934.42 2760.54 C 1940.12 2760.33 1944.6 2764.6 1944.83 2770.12 L 1949 2870.54 C 1949.85 2890.94 1940.35 2910.06 1923.56 2921.69 C 1912.72 2929.22 1906.41 2941.6 1906.69 2954.8 L 1908.21 3026.08 C 1908.33 3031.61 1903.95 3036.18 1898.43 3036.3 L 1898.21 3036.3 Z " fill="rgb(55,26,69)"/><path d=" M 1428.51 2828.62 C 1428.51 2828.62 1383.06 2837.44 1381.36 2890.86 C 1380.13 2929.26 1414.15 2952.18 1414.15 2952.18 C 1414.15 2952.18 1490.85 2994.65 1651.37 2963.11 C 1651.37 2963.11 1699.39 2901.59 1647.46 2864.79 C 1647.46 2864.79 1495.19 2883.93 1428.51 2828.62 Z " fill="rgb(255,255,255)"/><path d=" M 1539.3 2974.76 C 1536.33 2974.76 1533.42 2974.73 1530.56 2974.68 C 1533.41 2974.73 1536.31 2974.76 1539.27 2974.76 C 1566.15 2974.76 1597.44 2972.47 1633.27 2966.42 L 1633.27 2966.43 C 1597.47 2972.47 1566.17 2974.76 1539.3 2974.76 Z " fill="rgb(140,123,148)"/><path d=" M 1633.27 2966.43 L 1633.27 2966.42 L 1633.28 2966.42 L 1633.28 2966.43 C 1633.27 2966.43 1633.28 2966.43 1633.27 2966.43 Z " fill="rgb(55,26,69)"/><path d=" M 1657.72 2953.52 L 1657.72 2953.51 C 1659.6 2950.33 1661.67 2946.47 1663.63 2942.14 C 1661.67 2946.48 1659.6 2950.34 1657.72 2953.52 Z " fill="rgb(140,123,148)"/><path d=" M 1633.28 2966.43 L 1633.28 2966.42 C 1639.19 2965.42 1645.22 2964.32 1651.37 2963.11 C 1651.37 2963.11 1654.19 2959.5 1657.72 2953.51 L 1657.72 2953.52 C 1654.19 2959.51 1651.38 2963.12 1651.38 2963.12 C 1645.23 2964.33 1639.19 2965.43 1633.28 2966.43 Z " fill="rgb(55,26,69)"/><path d=" M 1388.54 2922.35 C 1384.08 2913.55 1380.96 2902.98 1381.35 2890.87 C 1381.42 2888.72 1381.56 2886.63 1381.77 2884.62 C 1381.57 2886.63 1381.43 2888.71 1381.36 2890.86 C 1380.97 2902.97 1384.09 2913.54 1388.54 2922.33 C 1388.54 2922.34 1388.54 2922.34 1388.54 2922.35 Z " fill="rgb(185,175,190)"/><path d=" M 1402.09 2941.48 C 1397.54 2936.62 1392.51 2930.19 1388.54 2922.35 C 1388.54 2922.34 1388.54 2922.34 1388.54 2922.33 C 1392.51 2930.18 1397.54 2936.61 1402.09 2941.47 C 1402.09 2941.48 1402.09 2941.48 1402.09 2941.48 Z " fill="rgb(55,26,69)"/><path d=" M 1408.31 2947.52 C 1406.48 2945.91 1404.34 2943.89 1402.09 2941.48 C 1402.09 2941.48 1402.09 2941.48 1402.09 2941.47 C 1404.34 2943.88 1406.48 2945.91 1408.31 2947.52 Z " fill="rgb(55,26,69)"/><path d=" M 1539.27 2974.76 C 1536.31 2974.76 1533.41 2974.73 1530.56 2974.68 C 1452.13 2973.2 1414.16 2952.18 1414.16 2952.18 C 1414.16 2952.18 1411.79 2950.58 1408.31 2947.52 C 1406.48 2945.91 1404.34 2943.88 1402.09 2941.47 C 1397.54 2936.61 1392.51 2930.18 1388.54 2922.33 C 1384.09 2913.54 1380.97 2902.97 1381.36 2890.86 C 1381.43 2888.71 1381.57 2886.63 1381.77 2884.62 C 1381.88 2883.64 1381.99 2882.67 1382.13 2881.72 C 1391.69 2901.77 1408.51 2913.12 1408.51 2913.12 C 1408.51 2913.12 1449.29 2935.68 1533.58 2935.68 C 1557.27 2935.68 1584.38 2933.9 1615 2929.34 C 1639.38 2925.7 1659.49 2907.66 1664.49 2883.51 C 1664.54 2883.29 1664.58 2883.06 1664.63 2882.83 C 1676.66 2903.06 1670.93 2925.98 1663.63 2942.14 C 1661.67 2946.47 1659.6 2950.33 1657.72 2953.51 C 1654.19 2959.5 1651.37 2963.11 1651.37 2963.11 C 1645.22 2964.32 1639.19 2965.42 1633.28 2966.42 L 1633.27 2966.42 C 1597.44 2972.47 1566.15 2974.76 1539.27 2974.76 Z " fill="rgb(185,175,190)"/><path d=" M 1420.7 2941.5 C 1427.36 2944.81 1500.66 2978.86 1644.06 2951.79 C 1649.51 2943.54 1661.62 2922.54 1658.65 2902.63 C 1657.21 2892.96 1652.36 2884.79 1643.87 2877.77 C 1616.54 2880.61 1491.3 2890.54 1425.86 2842.4 C 1415.72 2846.16 1394.92 2857.91 1393.85 2891.26 C 1392.94 2919.81 1416.98 2938.74 1420.7 2941.5 Z  M 1539.02 2987.3 C 1453.12 2987.3 1410.5 2964.44 1408.1 2963.12 L 1407.17 2962.55 C 1405.55 2961.45 1367.44 2935.25 1368.86 2890.46 C 1370.46 2840.32 1407.02 2820.06 1426.13 2816.35 L 1431.94 2815.22 L 1436.49 2819 C 1498.28 2870.25 1644.42 2852.56 1645.9 2852.39 L 1650.72 2851.78 L 1654.69 2854.59 C 1671.11 2866.23 1680.77 2881.2 1683.39 2899.09 C 1688.69 2935.14 1662.35 2969.36 1661.23 2970.8 L 1658.35 2974.48 L 1653.78 2975.38 C 1609.37 2984.1 1571.16 2987.3 1539.02 2987.3 Z " fill="rgb(55,26,69)"/><path d=" M 2276.28 2373.21 C 2275.39 2373.21 2274.47 2373.11 2273.56 2372.91 C 2102.73 2334.99 2115.75 2173.59 2115.9 2171.96 C 2116.54 2165.09 2122.78 2160.08 2129.5 2160.67 C 2136.37 2161.31 2141.42 2167.39 2140.79 2174.26 C 2140.28 2180.03 2129.99 2315.43 2278.98 2348.51 C 2285.72 2350 2289.97 2356.68 2288.47 2363.42 C 2287.18 2369.24 2282.01 2373.21 2276.28 2373.21 Z " fill="rgb(55,26,69)"/><path d=" M 2441.14 1544.33 L 2476.24 1605.13 C 2486.28 1622.51 2473.74 1644.23 2453.67 1644.23 L 2383.46 1644.23 C 2363.4 1644.23 2350.86 1622.51 2360.89 1605.13 L 2396 1544.33 C 2406.03 1526.95 2431.11 1526.95 2441.14 1544.33 Z " fill="rgb(255,224,0)"/><path d=" M 2453.67 1614.23 L 2383.46 1614.23 C 2380.9 1614.23 2378.46 1613.87 2376.18 1613.21 L 2395.49 1579.78 C 2402.58 1580.92 2409.5 1581.51 2416.19 1581.51 C 2418.04 1581.51 2419.87 1581.46 2421.68 1581.38 C 2428 1581.06 2434.47 1580.19 2441.07 1578.77 L 2460.95 1613.21 C 2458.67 1613.87 2456.24 1614.23 2453.67 1614.23 Z " fill="rgb(185,155,24)"/><path d=" M 2418.57 1548.58 C 2417.04 1548.58 2413.25 1549.01 2410.97 1552.97 L 2375.86 1613.78 C 2373.57 1617.74 2375.1 1621.23 2375.86 1622.55 C 2376.62 1623.87 2378.89 1626.94 2383.46 1626.94 L 2453.67 1626.94 C 2458.25 1626.94 2460.51 1623.87 2461.28 1622.55 C 2462.04 1621.23 2463.56 1617.74 2461.28 1613.77 L 2426.17 1552.97 C 2423.88 1549.01 2420.09 1548.58 2418.57 1548.58 Z  M 2453.67 1661.51 L 2383.46 1661.51 C 2367.79 1661.51 2353.76 1653.41 2345.92 1639.84 C 2338.09 1626.27 2338.09 1610.06 2345.92 1596.49 L 2381.03 1535.68 C 2388.86 1522.11 2402.89 1514.01 2418.56 1514.01 L 2418.57 1514.01 C 2434.24 1514.01 2448.27 1522.11 2456.11 1535.68 L 2456.11 1535.68 L 2491.22 1596.49 C 2499.05 1610.06 2499.05 1626.27 2491.21 1639.84 C 2483.38 1653.41 2469.34 1661.51 2453.67 1661.51 Z " fill="rgb(55,26,69)"/><path d=" M 2075.82 1130.89 C 2085.7 1331.35 2294.15 1570.35 2420.83 1564.11 C 2547.52 1557.87 2731.46 1299.53 2721.58 1099.06 C 2711.7 898.599 2559.13 743.215 2380.81 752.003 C 2202.49 760.791 2065.94 930.423 2075.82 1130.89 Z " fill="rgb(255,224,0)"/><path d=" M 2681.25 985.73 C 2625.08 871.934 2517 795.608 2395.2 795.608 C 2390.43 795.608 2385.62 795.726 2380.81 795.963 C 2264.94 801.668 2166.71 875.298 2114.84 981.159 C 2128.05 944.544 2146.98 910.494 2171.2 880.407 C 2225.67 812.741 2300.42 773.271 2381.66 769.269 C 2386.18 769.045 2390.66 768.935 2395.15 768.935 C 2522.48 768.935 2634.29 858.043 2681.25 985.73 Z " fill="rgb(255,246,178)"/><path d=" M 2415.93 1519.24 C 2321.86 1519.23 2186.03 1390.22 2117.86 1242.92 C 2103.42 1203.88 2094.83 1165.51 2093.08 1130.04 C 2092.45 1117.3 2092.44 1104.64 2093.01 1092.1 C 2141.07 1236.79 2305.18 1380.68 2414.86 1380.67 C 2416.86 1380.67 2418.85 1380.63 2420.82 1380.53 C 2519.25 1375.68 2653.44 1244.26 2704.6 1107.87 C 2705.75 1159.69 2693.56 1215.56 2672.89 1269.51 C 2611.34 1402.8 2503.81 1515.04 2420.82 1519.13 C 2419.19 1519.2 2417.58 1519.24 2415.93 1519.24 Z " fill="rgb(185,155,24)"/><path d=" M 2395.15 768.935 C 2390.66 768.935 2386.18 769.045 2381.66 769.269 C 2300.42 773.271 2225.67 812.741 2171.2 880.407 C 2116.26 948.664 2088.51 1037.32 2093.08 1130.04 C 2097.43 1218.24 2144.08 1324.4 2217.87 1414.03 C 2286.5 1497.38 2366.05 1549.51 2419.98 1546.84 C 2536.11 1541.12 2713.71 1290.52 2704.32 1099.91 C 2695.17 914.398 2557.83 768.935 2395.15 768.935 Z  M 2416.19 1581.51 C 2351.13 1581.51 2265.56 1526.34 2191.18 1436 C 2112.83 1340.84 2063.25 1227.1 2058.55 1131.74 C 2053.57 1030.55 2084.01 933.593 2144.27 858.728 C 2205.01 783.268 2288.72 739.235 2379.96 734.737 C 2567.39 725.505 2728.51 888.549 2738.85 1098.21 C 2743.54 1193.58 2705.39 1311.64 2636.78 1414.04 C 2569.79 1514.02 2487.37 1578.14 2421.68 1581.38 C 2419.87 1581.46 2418.04 1581.51 2416.19 1581.51 Z " fill="rgb(55,26,69)"/><path d=" M 2213.69 1031.78 C 2165.22 1031.78 2152.47 978.215 2201.44 923.12 C 2243.18 876.162 2296.18 850.313 2369.68 850.313 C 2377.47 850.313 2385.5 850.604 2393.76 851.19 C 2461.81 856.023 2468.81 900.521 2395.29 922.61 C 2281.53 956.789 2262.15 1031.78 2213.69 1031.78 Z " fill="rgb(255,246,178)"/><path d=" M 1542.71 2439.16 L 1510.52 2564.43 L 1453.04 2788.33 C 1446.68 2790.68 1439.87 2793.09 1432.54 2795.77 C 1393.51 2810.06 1340.53 2832.49 1270.59 2901.14 C 1246.07 2925.21 1218.65 2943.14 1175.68 2969.45 C 1083.22 3025.96 919.962 2933.99 1050.11 2757.6 C 1162.47 2605.32 1292.57 2535.45 1402.07 2491.43 C 1438.64 2476.77 1472.91 2464.94 1503.45 2453.93 C 1517.37 2448.91 1530.5 2444.03 1542.71 2439.16 Z " fill="rgb(255,255,255)"/><path d=" M 1466.42 2779.54 C 1464.2 2776.16 1460.81 2773.81 1457.02 2772.83 L 1469.53 2724.09 C 1478.35 2722.05 1486 2721.06 1492.2 2721.06 C 1500.99 2721.06 1506.86 2723.06 1508.99 2726.9 C 1517.08 2741.5 1485.43 2766.36 1466.42 2779.54 Z " fill="rgb(185,175,190)"/><path d=" M 1114.68 2970.19 C 1086.72 2970.19 1058.84 2959.29 1039.96 2938.7 C 1026.55 2924.07 1019.2 2906.36 1017.82 2886.37 C 1034.42 2934.02 1063.48 2951.58 1096.84 2951.58 C 1161.07 2951.58 1241.23 2886.55 1279.19 2845.96 C 1347.55 2772.85 1424.06 2734.59 1469.53 2724.09 L 1457.02 2772.83 C 1455.73 2772.5 1454.4 2772.33 1453.05 2772.33 C 1451.2 2772.33 1449.32 2772.66 1447.48 2773.34 C 1444.04 2774.62 1440.45 2775.9 1436.73 2777.25 C 1397.3 2791.43 1337.7 2812.85 1259.37 2889.72 C 1236.93 2911.74 1211.81 2928.56 1167.32 2955.77 C 1151.41 2965.5 1133.03 2970.19 1114.68 2970.19 Z " fill="rgb(185,175,190)"/><path d=" M 1115 3001.98 C 1078.13 3001.98 1041.32 2987.57 1016.35 2960.34 C 969.268 2908.97 977.071 2829.63 1037.23 2748.1 C 1182.16 2551.65 1353.41 2490.52 1478.45 2445.88 C 1499.4 2438.4 1519.19 2431.33 1536.74 2424.32 C 1544.97 2421.02 1554.27 2425.02 1557.55 2433.23 C 1560.83 2441.44 1556.84 2450.76 1548.63 2454.04 C 1530.53 2461.28 1510.46 2468.45 1489.22 2476.03 C 1368.06 2519.29 1202.13 2578.53 1063 2767.11 C 1011.89 2836.38 1003.49 2898.92 1039.96 2938.7 C 1071.23 2972.81 1127.18 2980.32 1167.32 2955.77 C 1211.81 2928.56 1236.93 2911.74 1259.37 2889.72 C 1337.7 2812.85 1397.3 2791.43 1436.73 2777.25 C 1440.45 2775.9 1444.04 2774.62 1447.48 2773.34 C 1455.77 2770.25 1464.99 2774.49 1468.06 2782.78 C 1471.14 2791.07 1466.91 2800.28 1458.62 2803.36 C 1455.08 2804.67 1451.4 2806 1447.56 2807.38 C 1408.56 2821.4 1355.13 2840.61 1281.8 2912.57 C 1257.14 2936.77 1230.63 2954.58 1184.02 2983.08 C 1163.18 2995.83 1139.08 3001.98 1115 3001.98 Z " fill="rgb(55,26,69)"/><path d=" M 2120.64 2084.93 C 2115.52 2086.32 2110.25 2083.29 2108.86 2078.17 L 2036.51 1811.14 C 2035.12 1806.02 2038.15 1800.75 2043.27 1799.36 C 2096.98 1784.81 2152.32 1816.55 2166.87 1870.27 L 2191.55 1961.32 C 2206.1 2015.04 2174.35 2070.38 2120.64 2084.93 Z " fill="rgb(255,255,255)"/><path d=" M 2069.59 1799.24 C 2061.19 1799.24 2052.65 1800.34 2044.16 1802.64 C 2042.55 1803.07 2041.22 1804.1 2040.39 1805.54 C 2039.57 1806.98 2039.35 1808.65 2039.78 1810.25 L 2112.13 2077.28 C 2112.57 2078.89 2113.6 2080.22 2115.04 2081.05 C 2116.47 2081.87 2118.15 2082.09 2119.75 2081.65 L 2119.75 2081.65 C 2144.85 2074.85 2165.81 2058.69 2178.75 2036.12 C 2191.69 2013.56 2195.07 1987.32 2188.27 1962.21 L 2163.6 1871.15 C 2151.86 1827.83 2112.47 1799.24 2069.59 1799.24 Z  M 2118.1 2088.67 C 2115.86 2088.67 2113.66 2088.08 2111.67 2086.94 C 2108.65 2085.21 2106.49 2082.42 2105.58 2079.06 L 2033.23 1812.03 C 2032.32 1808.68 2032.77 1805.17 2034.5 1802.16 C 2036.23 1799.15 2039.03 1796.99 2042.38 1796.08 C 2097.82 1781.06 2155.13 1813.94 2170.15 1869.38 L 2194.82 1960.44 C 2202.1 1987.29 2198.48 2015.37 2184.64 2039.51 C 2170.8 2063.64 2148.38 2080.94 2121.53 2088.21 C 2120.4 2088.51 2119.24 2088.67 2118.1 2088.67 Z " fill="rgb(55,26,69)"/><path d=" M 2128.81 2065.1 C 2128.95 2044.01 2127.73 2022.72 2125.05 2001.32 C 2146.57 1990.45 2163.02 1972.37 2172.15 1950.97 L 2176.09 1965.51 C 2182.01 1987.36 2179.07 2010.21 2167.81 2029.85 C 2158.74 2045.65 2145.16 2057.86 2128.81 2065.1 Z " fill="rgb(185,175,190)"/><path d=" M 2053.7 1813.37 L 2122.57 2067.57 C 2141.7 2060.84 2157.61 2047.62 2167.81 2029.85 C 2179.07 2010.21 2182.01 1987.36 2176.09 1965.51 L 2151.42 1874.45 C 2139.76 1831.43 2096.79 1805.1 2053.7 1813.37 Z  M 2116.45 2069.48 L 2116.44 2069.48 L 2116.45 2069.48 Z  M 2118.08 2101.29 C 2113.67 2101.29 2109.32 2100.14 2105.39 2097.89 C 2099.45 2094.48 2095.2 2088.96 2093.4 2082.36 L 2021.05 1815.33 C 2019.26 1808.72 2020.15 1801.82 2023.56 1795.88 C 2026.96 1789.95 2032.48 1785.69 2039.08 1783.91 C 2101.23 1767.08 2165.48 1803.93 2182.33 1866.08 L 2207 1957.14 C 2215.16 1987.25 2211.1 2018.72 2195.58 2045.78 C 2180.06 2072.84 2154.93 2092.23 2124.82 2100.38 C 2122.6 2100.99 2120.33 2101.29 2118.08 2101.29 Z " fill="rgb(55,26,69)"/><path d=" M 1161.86 2038.18 C 1166.98 2036.79 1172.25 2039.82 1173.64 2044.94 L 1245.99 2311.97 C 1247.38 2317.09 1244.35 2322.36 1239.23 2323.75 C 1185.52 2338.3 1130.18 2306.56 1115.62 2252.85 L 1090.95 2161.79 C 1076.4 2108.07 1108.14 2052.73 1161.86 2038.18 Z " fill="rgb(255,255,255)"/><path d=" M 1162.74 2041.45 C 1110.92 2055.5 1080.19 2109.08 1094.22 2160.9 L 1118.9 2251.96 C 1125.7 2277.06 1141.87 2298.01 1164.43 2310.95 C 1186.99 2323.9 1213.25 2327.27 1238.34 2320.47 C 1241.65 2319.57 1243.61 2316.16 1242.72 2312.86 L 1170.36 2045.82 C 1169.93 2044.22 1168.9 2042.89 1167.46 2042.06 C 1166.02 2041.24 1164.34 2041.02 1162.74 2041.45 Z  M 1212.9 2330.66 C 1167.03 2330.67 1124.9 2300.09 1112.34 2253.73 L 1087.67 2162.68 C 1072.65 2107.24 1105.53 2049.92 1160.97 2034.9 C 1167.88 2033.02 1175.04 2037.12 1176.91 2044.05 L 1249.27 2311.08 C 1251.14 2318 1247.04 2325.16 1240.12 2327.03 C 1231.03 2329.49 1221.9 2330.66 1212.9 2330.66 Z " fill="rgb(55,26,69)"/><path d=" M 1212.74 2311.28 C 1198.14 2311.28 1183.72 2307.47 1170.71 2300.01 C 1151.07 2288.74 1136.99 2270.51 1131.08 2248.66 L 1127.17 2234.25 C 1143.45 2245.06 1162.81 2251.13 1182.93 2251.13 C 1185.9 2251.13 1188.89 2251 1191.88 2250.73 C 1200.57 2271.49 1210.66 2291.54 1222.07 2310.76 C 1218.96 2311.11 1215.85 2311.28 1212.74 2311.28 Z " fill="rgb(185,175,190)"/><path d=" M 1161.86 2038.18 L 1161.9 2038.18 L 1161.86 2038.18 Z  M 1159.92 2055.54 C 1118.55 2070.15 1094.75 2114.57 1106.4 2157.6 L 1131.08 2248.66 C 1136.99 2270.51 1151.07 2288.74 1170.71 2300.01 C 1188.48 2310.21 1208.91 2313.58 1228.8 2309.74 L 1159.92 2055.54 Z  M 1212.91 2343.28 C 1161.48 2343.28 1114.25 2309 1100.17 2257.04 L 1075.49 2165.98 C 1058.66 2103.83 1095.52 2039.57 1157.67 2022.72 C 1171.32 2019.03 1185.4 2027.12 1189.09 2040.75 L 1261.45 2307.78 C 1263.23 2314.39 1262.34 2321.29 1258.94 2327.23 C 1255.53 2333.16 1250.02 2337.42 1243.41 2339.2 C 1233.23 2341.96 1222.98 2343.28 1212.91 2343.28 Z " fill="rgb(55,26,69)"/><path d=" M 1992.63 2412.82 L 1992.63 2412.82 C 1991.01 2410.03 1989.28 2407.27 1987.45 2404.54 C 1995.43 2396.47 2003.1 2388.14 2010.48 2379.56 C 2005.08 2390.94 1999.12 2402.04 1992.63 2412.82 Z " fill="rgb(185,175,190)"/><path d=" M 1665.54 2597.64 C 1611.09 2597.64 1558.44 2585.9 1510.52 2564.43 L 1510.52 2564.43 L 1518.46 2533.53 C 1558.12 2543.89 1599.01 2549.15 1640.29 2549.15 C 1671.78 2549.15 1703.5 2546.09 1735.09 2539.9 C 1834.57 2520.39 1921.07 2471.73 1987.45 2404.54 C 1989.28 2407.27 1991.01 2410.03 1992.63 2412.82 L 1992.63 2412.82 L 1992.63 2412.82 C 1957.84 2470.67 1907.84 2519.19 1846.9 2551.97 C 1814.01 2569.71 1777.92 2582.88 1739.3 2590.44 C 1714.54 2595.29 1689.85 2597.64 1665.54 2597.64 Z " fill="rgb(185,175,190)"/><path d=" M 1510.52 2564.43 C 1500.81 2560.11 1491.32 2555.39 1482.06 2550.25 C 1458.18 2537.08 1435.74 2521.39 1415.19 2503.44 C 1418.91 2501.97 1422.61 2500.53 1426.29 2499.11 C 1455.96 2513.77 1486.82 2525.27 1518.46 2533.53 L 1510.52 2564.43 Z " fill="rgb(185,175,190)"/><path d=" M 1415.19 2503.44 C 1410.72 2499.54 1406.35 2495.54 1402.07 2491.43 C 1403.87 2490.71 1405.66 2490 1407.44 2489.29 C 1413.67 2492.71 1419.95 2495.98 1426.29 2499.11 C 1422.61 2500.53 1418.91 2501.97 1415.19 2503.44 Z " fill="rgb(55,26,69)"/><path d=" M 2103.95 1970.83 C 2154.04 2226.34 1987.52 2474.09 1732.01 2524.18 C 1476.5 2574.28 1228.76 2407.76 1178.66 2152.25 C 1128.56 1896.74 1295.09 1648.99 1550.6 1598.9 C 1806.11 1548.8 2053.85 1715.32 2103.95 1970.83 Z " fill="rgb(255,255,255)"/><path d=" M 1642.28 1593.34 C 1612.04 1593.34 1581.59 1596.28 1551.25 1602.23 C 1428.56 1626.29 1322.59 1696.68 1252.84 1800.44 C 1183.1 1904.2 1157.94 2028.91 1182 2151.6 C 1206.05 2274.28 1276.44 2380.26 1380.2 2450 C 1483.97 2519.74 1608.68 2544.92 1731.36 2520.85 C 1984.62 2471.2 2150.27 2224.75 2100.61 1971.49 C 2076.56 1848.8 2006.17 1742.82 1902.41 1673.08 C 1824.31 1620.58 1734.32 1593.34 1642.28 1593.34 Z  M 1640.32 2536.53 C 1546.93 2536.53 1455.65 2508.9 1376.41 2455.64 C 1271.14 2384.88 1199.73 2277.37 1175.33 2152.91 C 1150.92 2028.44 1176.45 1901.92 1247.21 1796.65 C 1317.96 1691.38 1425.47 1619.97 1549.94 1595.57 C 1674.42 1571.15 1800.93 1596.69 1906.2 1667.44 C 2011.47 1738.2 2082.88 1845.71 2107.28 1970.18 C 2157.66 2227.12 1989.6 2477.14 1732.67 2527.52 C 1701.89 2533.55 1670.99 2536.53 1640.32 2536.53 Z " fill="rgb(55,26,69)"/><path d=" M 1640.35 2517.12 C 1553.88 2517.12 1469.26 2492.4 1395.13 2444.72 C 1433.16 2458.94 1481.01 2471.16 1533.85 2477.28 C 1557.08 2479.99 1581.27 2481.51 1606.01 2481.51 C 1644.81 2481.51 1684.97 2477.76 1724.9 2468.92 C 1793.13 2453.82 1854.29 2428.23 1905.88 2398.86 C 1945.78 2376.14 1979.95 2351.17 2007.29 2327.03 C 2010.89 2323.84 2014.38 2320.67 2017.74 2317.52 C 1952.62 2413.29 1851.28 2484.48 1728.93 2508.47 C 1699.41 2514.26 1669.78 2517.12 1640.35 2517.12 Z " fill="rgb(185,175,190)"/><path d=" M 1642.25 1605.96 C 1612.83 1605.96 1583.2 1608.82 1553.68 1614.61 C 1434.3 1638.01 1331.18 1706.51 1263.31 1807.47 C 1195.45 1908.44 1170.97 2029.79 1194.38 2149.17 C 1217.78 2268.55 1286.27 2371.67 1387.24 2439.53 C 1488.2 2507.4 1609.55 2531.88 1728.93 2508.47 C 1975.37 2460.16 2136.55 2220.35 2088.23 1973.91 C 2064.83 1854.53 1996.34 1751.41 1895.37 1683.55 C 1819.38 1632.47 1731.81 1605.96 1642.25 1605.96 Z  M 1640.29 2549.15 C 1544.42 2549.15 1450.72 2520.78 1369.38 2466.11 C 1261.31 2393.47 1188 2283.1 1162.95 2155.33 C 1137.9 2027.56 1164.1 1897.67 1236.74 1789.61 C 1309.37 1681.55 1419.74 1608.24 1547.51 1583.19 C 1675.29 1558.14 1805.17 1584.34 1913.23 1656.97 C 2021.3 1729.61 2094.6 1839.98 2119.66 1967.75 C 2171.37 2231.52 1998.86 2488.18 1735.09 2539.9 C 1703.5 2546.09 1671.78 2549.15 1640.29 2549.15 Z " fill="rgb(55,26,69)"/><path d=" M 2104.8 1983.01 C 2123.91 2073.26 2112.36 2163.26 2076.94 2243.2 C 2050.38 2303.13 1915.23 2426.8 1724.91 2468.9 C 1548.44 2507.93 1367.61 2447.74 1319.04 2403.72 C 1254.25 2345 1207.21 2267.42 1188.09 2177.16 C 1137.51 1938.32 1321.74 1795.85 1574.89 1742.23 C 1828.04 1688.62 2054.21 1744.17 2104.8 1983.01 Z " fill="rgb(55,26,69)"/><path d=" M 1950.1 2075.53 C 1917.31 2075.53 1889.87 2039.34 1888.53 1993.89 C 1887.17 1947.83 1913.13 1909.7 1946.5 1908.71 C 1946.94 1908.7 1947.38 1908.7 1947.82 1908.7 C 1974.54 1908.7 1997.71 1932.72 2006.09 1966.21 C 2006.43 1987.81 2005.44 2009.27 2003.19 2030.49 C 1993.7 2056.69 1974.3 2074.83 1951.42 2075.51 C 1950.98 2075.52 1950.54 2075.53 1950.1 2075.53 Z " fill="rgb(155,141,162)"/><path d=" M 1909.69 2207.38 C 1908.66 2207.38 1907.62 2207.32 1906.58 2207.21 C 1888.54 2205.23 1875.78 2186.58 1878.08 2165.56 C 1880.25 2145.75 1895.02 2130.9 1911.81 2130.9 C 1912.84 2130.9 1913.88 2130.96 1914.92 2131.07 C 1932.96 2133.05 1945.72 2151.7 1943.42 2172.72 C 1941.25 2192.53 1926.48 2207.38 1909.69 2207.38 Z " fill="rgb(155,141,162)"/><path d=" M 2034.96 1835.56 C 2015.67 1813.2 1993.35 1794.46 1968.47 1779.1 C 1968.47 1779.09 1968.46 1779.08 1968.46 1779.07 C 1993.34 1794.44 2015.67 1813.19 2034.96 1835.56 Z " fill="rgb(172,175,180)"/><path d=" M 1606.01 2481.51 C 1581.27 2481.51 1557.08 2479.99 1533.85 2477.28 C 1557.04 2479.97 1581.2 2481.49 1605.9 2481.49 C 1644.73 2481.49 1684.94 2477.74 1724.91 2468.9 C 1793.14 2453.8 1854.29 2428.22 1905.88 2398.86 C 1854.29 2428.23 1793.13 2453.82 1724.9 2468.92 C 1684.97 2477.76 1644.81 2481.51 1606.01 2481.51 Z  M 2007.29 2327.03 C 2010.89 2323.84 2014.38 2320.67 2017.74 2317.52 C 2017.73 2317.53 2017.75 2317.51 2017.74 2317.52 C 2014.38 2320.67 2010.89 2323.84 2007.29 2327.03 Z " fill="rgb(126,123,138)"/><path d=" M 2017.74 2317.52 C 2017.75 2317.51 2017.73 2317.53 2017.74 2317.52 C 2047.88 2289.31 2068.24 2262.83 2076.94 2243.2 C 2082.44 2230.79 2087.36 2218.15 2091.68 2205.3 C 2087.36 2218.15 2082.44 2230.79 2076.95 2243.2 C 2068.25 2262.83 2047.88 2289.31 2017.74 2317.52 Z " fill="rgb(42,26,59)"/><path d=" M 1605.9 2481.49 C 1581.2 2481.49 1557.04 2479.97 1533.85 2477.28 C 1532.22 2477.09 1530.59 2476.9 1528.96 2476.7 C 1761.8 2419.94 1926.26 2268.45 1959.19 2194.12 C 1982.13 2142.35 1997.18 2087.26 2003.19 2030.49 C 2007.54 2018.49 2009.81 2004.8 2009.39 1990.33 C 2009.14 1981.92 2008 1973.82 2006.09 1966.21 C 2005.56 1932.36 2001.79 1898.14 1994.53 1863.91 C 1988.07 1833.3 1979.27 1805.08 1968.47 1779.1 C 1993.35 1794.46 2015.67 1813.2 2034.96 1835.56 C 2067.89 1873.75 2091.97 1922.5 2104.79 1982.99 C 2120.94 2059.26 2115.19 2135.33 2091.68 2205.3 C 2087.36 2218.15 2082.44 2230.79 2076.94 2243.2 C 2068.24 2262.83 2047.88 2289.31 2017.74 2317.52 C 2014.38 2320.67 2010.89 2323.84 2007.29 2327.03 C 1979.95 2351.18 1945.78 2376.14 1905.88 2398.86 C 1854.29 2428.22 1793.14 2453.8 1724.91 2468.9 C 1684.94 2477.74 1644.73 2481.49 1605.9 2481.49 Z " fill="rgb(42,26,59)"/><path d=" M 2003.19 2030.49 C 2005.44 2009.27 2006.43 1987.81 2006.09 1966.21 C 2008 1973.82 2009.14 1981.92 2009.39 1990.33 C 2009.81 2004.8 2007.54 2018.49 2003.19 2030.49 Z " fill="rgb(107,101,119)"/><path d=" M 2020.95 1781.87 L 2021 1781.87 L 2020.95 1781.87 Z  M 1179.47 1981.14 C 1177.16 1981.14 1174.81 1980.61 1172.62 1979.48 C 1165.52 1975.81 1162.56 1967.28 1165.8 1960.06 C 1221.94 1823.19 1365.24 1721.16 1559.04 1680.11 C 1751.41 1639.37 1923.19 1672.24 2030.51 1770.29 C 2035.83 1774.64 2037.63 1782.22 2034.43 1788.62 C 2030.73 1796.02 2021.73 1799.03 2014.31 1795.33 C 2014.1 1795.22 2013.8 1795.06 2013.59 1794.94 L 2012.08 1794.09 L 2010.8 1792.92 C 1910.75 1701.1 1748.36 1670.68 1565.25 1709.46 C 1381.16 1748.45 1245.63 1844.07 1193.41 1971.79 L 1192.76 1973.17 C 1190.06 1978.24 1184.85 1981.14 1179.47 1981.14 Z " fill="rgb(55,26,69)"/><path d=" M 1321.12 2297.44 C 1321.12 2297.44 1197.25 2077.5 1304.34 1956.71 C 1398.64 1850.36 1551.6 1807.94 1585.6 1807.94 C 1590.21 1807.94 1592.63 1808.72 1592.41 1810.23 C 1592.41 1810.23 1400.53 1902.03 1355.26 2078.68 C 1320.36 2214.9 1321.12 2297.44 1321.12 2297.44 Z " fill="rgb(155,141,162)"/><path d=" M 1717.82 3165 C 1735.15 3163.95 1753.09 3163.31 1770.72 3162.46 C 1788.41 3161.51 1806.15 3160.89 1823.79 3159.29 C 1841.42 3157.64 1859.07 3155.72 1876.51 3152.53 C 1893.93 3149.3 1911.23 3145.25 1928.23 3139.22 L 1928.28 3139.2 C 1929.21 3138.87 1930.24 3139.36 1930.57 3140.29 C 1930.85 3141.08 1930.55 3141.94 1929.89 3142.38 C 1914.65 3152.67 1897.72 3160.49 1880.39 3166.91 C 1862.99 3173.18 1845.09 3177.78 1827.05 3181.59 C 1809 3185.29 1790.78 3188.04 1772.47 3189.52 C 1754.09 3190.93 1735.93 3191.59 1717.18 3190 C 1710.29 3189.41 1705.18 3183.35 1705.77 3176.46 C 1706.3 3170.19 1711.37 3165.39 1717.48 3165.02 L 1717.82 3165 Z " fill="rgb(55,26,69)"/><path d=" M 1849.85 3379.48 C 1755.5 3379.48 1679.53 3315.42 1678.45 3314.49 C 1673.21 3309.99 1672.62 3302.1 1677.13 3296.86 C 1681.63 3291.64 1689.51 3291.04 1694.75 3295.54 C 1700.46 3300.43 1835.81 3414.01 1962.25 3313.85 C 1967.66 3309.55 1975.52 3310.46 1979.81 3315.88 C 1984.1 3321.29 1983.18 3329.15 1977.77 3333.44 C 1934.74 3367.54 1890.58 3379.48 1849.85 3379.48 Z " fill="rgb(55,26,69)"/><path d=" M 1521.34 3338.73 C 1479.28 3338.73 1435.8 3322.42 1392.56 3290 C 1339.16 3249.96 1305.27 3199.92 1303.85 3197.81 C 1300.01 3192.08 1301.53 3184.32 1307.26 3180.47 C 1312.99 3176.62 1320.75 3178.14 1324.61 3183.87 C 1325.88 3185.77 1453.98 3372.88 1592.57 3294.15 C 1598.58 3290.73 1606.2 3292.84 1609.62 3298.84 C 1613.03 3304.84 1610.93 3312.48 1604.93 3315.89 C 1578.08 3331.14 1550.04 3338.73 1521.34 3338.73 Z " fill="rgb(55,26,69)"/><path d=" M 1378.48 2831.96 C 1372.38 2831.96 1367.05 2827.49 1366.13 2821.28 C 1347.52 2694.98 1235.25 2583.28 1234.12 2582.17 C 1229.2 2577.32 1229.14 2569.41 1233.98 2564.49 C 1238.81 2559.57 1246.73 2559.49 1251.65 2564.34 C 1256.51 2569.11 1371.01 2682.9 1390.86 2817.64 C 1391.87 2824.47 1387.15 2830.82 1380.32 2831.83 C 1379.7 2831.91 1379.09 2831.96 1378.48 2831.96 Z " fill="rgb(55,26,69)"/><path d=" M 1305.01 3384.34 C 1315.42 3399.66 1328.35 3413.07 1342.69 3424.08 C 1357.06 3435.02 1373.2 3443.3 1390.01 3447.09 C 1406.84 3450.85 1424.01 3450.08 1440.1 3445.4 C 1456.2 3440.64 1471.29 3432.61 1485.16 3422.54 C 1492.33 3417.33 1502.37 3418.93 1507.58 3426.1 C 1512.79 3433.28 1511.2 3443.32 1504.02 3448.53 C 1503.41 3448.97 1502.78 3449.37 1502.14 3449.71 L 1501.92 3449.82 C 1484.28 3459.08 1465 3466.1 1444.86 3468.94 C 1434.77 3470.14 1424.56 3470.68 1414.48 3469.42 C 1404.42 3468.28 1394.57 3465.91 1385.28 3462.38 C 1366.67 3455.22 1350.66 3443.59 1337.38 3430.07 C 1324.14 3416.46 1313.14 3401.03 1305.01 3384.34 Z " fill="rgb(55,26,69)"/><path d=" M 1691.73 3438.18 C 1701.45 3451.76 1713.61 3463.33 1726.94 3472.6 C 1740.3 3481.84 1755.19 3488.34 1770.43 3491.26 C 1785.68 3494.18 1801.19 3493.43 1815.89 3489.66 C 1830.62 3485.89 1844.63 3479.49 1857.73 3471.36 C 1865.27 3466.68 1875.18 3469 1879.86 3476.54 C 1884.54 3484.08 1882.22 3493.98 1874.68 3498.66 C 1873.96 3499.11 1873.23 3499.49 1872.48 3499.81 L 1872.22 3499.91 C 1855.61 3506.84 1837.86 3511.76 1819.67 3513.38 C 1801.53 3515.02 1782.92 3512.84 1766.09 3506.67 C 1749.23 3500.51 1734.27 3490.69 1721.87 3478.8 C 1709.51 3466.88 1699.19 3453.17 1691.73 3438.18 Z " fill="rgb(55,26,69)"/></g></svg>