<?xml version="1.0" encoding="UTF-8" standalone="no"?><!-- Generator: Gravit.io --><svg xmlns="http://www.w3.org/2000/svg" xmlns:xlink="http://www.w3.org/1999/xlink" style="isolation:isolate" viewBox="0 0 1700 1450" width="1700pt" height="1450pt"><clipPath id="_clipPath_HCwilsVKk72Wn4pe3XiIf3FyaJsU3G8b"><path d=" M -370.367 -138.876 L -367.554 2477.158 L 2574.781 3107.257 L 2307.551 -93.869 L -370.367 -138.876 Z " fill="rgb(255,255,255)"/></clipPath><g clip-path="url(#_clipPath_HCwilsVKk72Wn4pe3XiIf3FyaJsU3G8b)"><path d=" M 1530.049 944.529 C 1522.129 944.579 1515.679 938.199 1515.639 930.279 L 1513.319 517.489 C 1513.269 509.579 1519.649 503.119 1527.569 503.079 C 1610.599 502.609 1678.289 569.549 1678.759 652.579 L 1679.549 793.339 C 1680.019 876.369 1613.079 944.059 1530.049 944.529 Z " fill="rgb(255,255,255)"/><path d=" M 1528.439 506.449 C 1528.159 506.449 1527.869 506.449 1527.589 506.449 C 1524.659 506.459 1521.909 507.619 1519.849 509.699 C 1517.789 511.779 1516.669 514.539 1516.689 517.469 L 1519.009 930.259 C 1519.019 933.189 1520.179 935.939 1522.259 937.989 C 1524.329 940.039 1527.059 941.159 1529.969 941.159 L 1530.029 941.159 C 1569.289 940.939 1606.109 925.449 1633.719 897.529 C 1661.319 869.609 1676.399 832.619 1676.179 793.359 L 1675.389 652.599 C 1675.169 613.339 1659.669 576.519 1631.759 548.909 C 1604.039 521.509 1567.379 506.449 1528.439 506.449 Z  M 1529.969 947.899 C 1525.279 947.899 1520.859 946.089 1517.529 942.789 C 1514.159 939.459 1512.299 935.029 1512.269 930.299 L 1509.949 517.509 C 1509.919 512.779 1511.739 508.329 1515.059 504.969 C 1518.389 501.599 1522.819 499.739 1527.549 499.709 C 1568.519 499.469 1607.299 515.249 1636.489 544.119 C 1665.689 572.989 1681.889 611.499 1682.129 652.559 L 1682.919 793.319 C 1683.149 834.379 1667.379 873.069 1638.509 902.269 C 1609.639 931.459 1571.129 947.669 1530.069 947.899 L 1529.969 947.899 Z " fill="rgb(55,26,69)"/><path d=" M 1544.319 924.929 C 1550.769 900.519 1555.769 875.709 1559.319 850.559 C 1560.679 842.639 1561.919 834.659 1563.019 826.649 C 1603.399 819.609 1638.229 796.449 1660.629 764.059 L 1660.799 793.449 C 1660.999 828.599 1647.499 861.719 1622.779 886.719 C 1601.469 908.269 1574.019 921.549 1544.319 924.929 Z " fill="rgb(185,175,190)"/><path d=" M 1532.089 521.869 L 1534.359 925.689 C 1567.849 924.399 1599.099 910.659 1622.779 886.719 C 1647.499 861.719 1660.999 828.599 1660.799 793.449 L 1660.009 652.679 C 1659.809 617.529 1645.939 584.559 1620.939 559.849 C 1596.999 536.169 1565.589 522.779 1532.089 521.869 Z  M 1529.969 963.279 C 1521.199 963.279 1512.949 959.889 1506.709 953.719 C 1500.429 947.509 1496.939 939.219 1496.889 930.379 L 1494.569 517.589 C 1494.519 508.759 1497.909 500.429 1504.129 494.149 C 1510.339 487.869 1518.629 484.379 1527.459 484.329 C 1572.779 483.969 1615.189 501.429 1647.309 533.179 C 1679.419 564.939 1697.249 607.309 1697.499 652.469 L 1698.299 793.239 C 1698.549 838.399 1681.199 880.959 1649.439 913.079 C 1617.689 945.199 1575.319 963.019 1530.159 963.279 L 1529.969 963.279 Z " fill="rgb(55,26,69)"/><path d=" M 165.039 510.739 C 172.959 510.699 179.409 517.079 179.449 524.989 L 181.779 937.779 C 181.819 945.699 175.439 952.149 167.529 952.189 C 84.489 952.659 16.799 885.729 16.339 802.689 L 15.539 661.929 C 15.079 578.899 82.009 511.209 165.039 510.739 Z " fill="rgb(255,255,255)"/><path d=" M 165.059 514.109 C 84.019 514.559 18.459 580.869 18.909 661.909 L 19.699 802.669 C 20.159 883.429 86.009 948.819 166.669 948.819 C 166.949 948.819 167.229 948.819 167.509 948.819 C 170.439 948.809 173.179 947.649 175.239 945.569 C 177.299 943.489 178.419 940.729 178.409 937.799 L 176.089 525.009 C 176.069 522.079 174.909 519.329 172.829 517.269 C 170.749 515.219 167.949 513.939 165.059 514.109 Z  M 166.669 955.559 C 82.309 955.569 13.439 887.179 12.959 802.709 L 12.169 661.949 C 11.699 577.189 80.269 507.849 165.019 507.369 C 169.929 507.479 174.209 509.159 177.569 512.479 C 180.929 515.809 182.799 520.239 182.819 524.969 L 185.149 937.759 C 185.169 942.489 183.349 946.949 180.029 950.299 C 176.709 953.669 172.269 955.529 167.549 955.559 C 167.259 955.559 166.959 955.559 166.669 955.559 Z " fill="rgb(55,26,69)"/><path d=" M 155.199 932.949 C 88.309 927.139 35.469 871.029 35.079 802.589 L 34.919 774.119 C 58.539 803.809 93.189 824.349 132.599 829.609 C 137.619 864.889 145.209 899.389 155.199 932.949 Z " fill="rgb(185,175,190)"/><path d=" M 160.729 529.579 C 90.219 532.319 33.889 590.739 34.289 661.829 L 35.079 802.589 C 35.479 873.669 92.469 931.449 162.999 933.399 L 160.729 529.579 Z  M 166.659 970.939 C 73.859 970.949 -1.891 895.719 -2.411 802.799 L -3.201 662.039 C -3.731 568.799 71.699 492.519 164.939 491.989 C 173.799 491.959 182.099 495.339 188.379 501.549 C 194.659 507.759 198.149 516.049 198.199 524.879 L 200.519 937.679 C 200.569 946.509 197.179 954.839 190.969 961.119 C 184.749 967.399 176.469 970.889 167.629 970.939 C 167.309 970.939 166.979 970.939 166.659 970.939 Z " fill="rgb(55,26,69)"/><path d=" M 1549.569 773.579 C 1524.189 1161.249 1189.349 1454.949 801.679 1429.569 C 414.009 1404.199 120.319 1069.359 145.689 681.689 C 171.069 294.016 505.909 0.32 893.579 25.697 C 1281.249 51.074 1574.949 385.909 1549.569 773.579 Z " fill="rgb(255,255,255)"/><path d=" M 847.159 27.545 C 481.789 27.545 173.259 312.178 149.059 681.909 C 123.839 1067.099 416.709 1400.999 801.899 1426.209 C 817.369 1427.229 832.809 1427.719 848.099 1427.729 C 1213.479 1427.749 1522.009 1143.089 1546.209 773.359 C 1571.419 388.169 1278.559 54.273 893.359 29.058 C 877.889 28.045 862.449 27.545 847.159 27.545 Z  M 848.639 1434.479 C 832.959 1434.479 817.249 1433.969 801.459 1432.929 C 412.559 1407.469 116.879 1070.369 142.329 681.469 C 167.789 292.565 504.839 -3.102 893.799 22.335 C 1282.699 47.794 1578.389 384.899 1552.929 773.799 C 1540.599 962.189 1455.639 1134.509 1313.709 1258.999 C 1183.669 1373.069 1020.029 1434.479 848.639 1434.479 Z " fill="rgb(55,26,69)"/><path d=" M 848.089 1412.349 L 848.089 1412.349 C 833.139 1412.349 818.039 1411.849 802.909 1410.869 C 644.689 1400.509 502.409 1336.919 392.399 1238.709 C 499.849 1302.159 649.179 1359.139 811.789 1365.849 C 825.469 1366.419 838.969 1366.689 852.369 1366.689 C 1007.249 1366.689 1143.109 1330.129 1244.669 1285.139 C 1132.109 1365.449 994.769 1412.349 848.089 1412.349 Z " fill="rgb(185,175,190)"/><path d=" M 847.169 42.923 C 489.829 42.923 188.069 321.307 164.399 682.909 C 139.739 1059.639 426.179 1386.199 802.909 1410.869 C 818.039 1411.849 833.139 1412.349 848.089 1412.349 C 1205.439 1412.369 1507.189 1133.959 1530.859 772.359 C 1555.519 395.629 1269.089 69.068 892.349 44.405 C 877.229 43.414 862.119 42.923 847.169 42.923 Z  M 848.119 1449.839 C 832.319 1449.839 816.439 1449.329 800.459 1448.279 C 403.089 1422.259 100.979 1077.819 126.989 680.459 C 152.999 283.097 497.349 -19.018 894.809 6.988 C 1292.169 33.001 1594.289 377.449 1568.279 774.809 C 1543.309 1156.189 1224.999 1449.839 848.119 1449.839 Z " fill="rgb(55,26,69)"/><path d=" M 1546.139 791.469 C 1539.229 928.939 1488.179 1054.329 1406.539 1156.099 C 1345.339 1232.389 1103.149 1359.119 812.569 1347.119 C 543.129 1335.989 305.319 1180.079 252.079 1098.029 C 181.069 988.579 142.859 858.699 149.779 721.219 C 168.079 357.419 488.229 222.318 873.849 241.716 C 1259.459 261.113 1564.449 427.659 1546.139 791.469 Z " fill="rgb(55,26,69)"/><path d=" M 1546.139 791.469 L 1546.199 791.469 L 1546.139 791.469 Z  M 806.979 258.783 C 580.909 258.783 188.849 317.636 168.499 722.169 C 162.009 851.239 196.349 977.689 267.809 1087.819 C 318.539 1166.009 550.609 1317.539 813.339 1328.389 C 1104.599 1340.449 1337.389 1212.349 1391.919 1144.369 C 1474.069 1041.959 1520.929 919.599 1527.419 790.519 C 1535.729 625.279 1476.169 494.749 1350.379 402.559 C 1237.199 319.603 1072.089 270.458 872.909 260.438 C 853.249 259.452 831.039 258.783 806.979 258.783 Z  M 852.369 1366.689 C 838.969 1366.689 825.469 1366.419 811.789 1365.849 C 532.459 1354.319 292.309 1194.469 236.349 1108.229 C 160.569 991.439 124.159 857.289 131.049 720.279 C 140.039 541.649 218.599 407.519 364.559 321.61 C 491.829 246.705 668.239 212.576 874.789 222.991 C 1081.319 233.379 1253.439 285.015 1372.539 372.309 C 1509.149 472.439 1573.849 613.779 1564.869 792.409 C 1557.979 929.419 1508.289 1059.239 1421.169 1167.829 C 1363.419 1239.819 1140.929 1366.689 852.369 1366.689 Z " fill="rgb(55,26,69)"/><path d=" M 851.819 1329.179 C 839.119 1329.179 826.279 1328.919 813.339 1328.389 C 731.049 1324.989 651.769 1307.789 580.119 1283.369 C 913.489 1275.199 1183.349 1130.229 1255.459 1040.319 C 1312.589 969.109 1357.919 888.769 1388.559 801.779 C 1397.849 787.149 1405.149 770.019 1409.559 751.149 C 1412.559 738.309 1413.999 725.589 1414.029 713.349 C 1423.979 669.349 1430.279 623.999 1432.609 577.549 C 1434.389 542.719 1433.769 509.319 1430.989 477.299 C 1501.309 560.899 1533.689 665.829 1527.419 790.519 C 1520.929 919.599 1474.069 1041.959 1391.919 1144.369 C 1339.809 1209.329 1124.949 1329.189 851.819 1329.179 Z " fill="rgb(42,26,59)"/><path d=" M 851.049 1347.929 C 838.309 1347.929 825.499 1347.679 812.549 1347.139 C 709.949 1342.929 611.959 1317.689 526.969 1283.489 C 534.869 1283.649 542.799 1283.729 550.639 1283.729 C 560.509 1283.729 570.359 1283.609 580.119 1283.369 C 651.769 1307.789 731.049 1324.989 813.339 1328.389 C 826.279 1328.919 839.119 1329.179 851.819 1329.179 C 1124.949 1329.189 1339.809 1209.329 1391.919 1144.369 C 1474.069 1041.959 1520.929 919.599 1527.419 790.519 C 1533.689 665.829 1501.309 560.899 1430.989 477.299 C 1430.049 466.449 1428.849 455.759 1427.419 445.229 C 1508.679 530.969 1553.469 645.319 1546.139 791.439 C 1539.219 928.949 1488.149 1054.329 1406.559 1156.099 C 1348.069 1228.989 1124.309 1347.919 851.049 1347.929 Z " fill="rgb(42,26,59)"/><path d=" M 1502.149 487.739 C 1497.619 487.739 1493.089 486.069 1489.549 482.709 L 1487.679 481.039 L 1486.619 479.199 C 1376.689 307.421 1152.919 200.811 872.679 186.71 C 590.909 172.564 357.619 259.248 232.689 424.599 L 231.369 426.159 C 224.629 433.699 213.169 434.199 205.629 427.449 C 198.289 420.889 197.609 409.609 203.779 402.059 C 336.229 227.157 580.649 135.308 874.529 150.103 C 1166.279 164.783 1400.349 277.198 1516.929 458.579 C 1522.079 465.589 1521.649 475.479 1515.449 482.019 C 1511.849 485.819 1506.999 487.739 1502.149 487.739 Z " fill="rgb(55,26,69)"/></g><g clip-path="url(#_clipPath_d39LBNZwq9vSHzNJmDsurcxCO621T8gX)"><text transform="matrix(1,0,0,1,505.642,975.968)" style="font-family:'Roboto Condensed';font-weight:400;font-size:600px;font-style:normal;fill:#009fb7;stroke:none;">R</text><text transform="matrix(1,0,0,1,824.099,975.968)" style="font-family:'Roboto Condensed';font-weight:400;font-size:600px;font-style:normal;fill:#ffda22;stroke:none;">G</text></g><defs><clipPath id="_clipPath_d39LBNZwq9vSHzNJmDsurcxCO621T8gX"><rect x="0" y="0" width="1099.424" height="727.311" transform="matrix(1,0,0,1,293.405,419.328)"/></clipPath></defs></svg>